<svg width="270" height="180" viewBox="0 0 270 180" fill="none" xmlns="http://www.w3.org/2000/svg">
<rect width="270" height="180" fill="white"/>
<path opacity="0.2" d="M32 115.419L45.422 124.054V106.785L32 115.419Z" fill="black"/>
<path opacity="0.1" d="M58.8221 115.419L45.422 124.054V106.785L58.8221 115.419Z" fill="black"/>
<path opacity="0.3" d="M45.422 106.785L32 115.419V98.1504L45.422 106.785Z" fill="black"/>
<path opacity="0.3" d="M45.422 106.785L58.8221 115.419V98.1504L45.422 106.785Z" fill="black"/>
<path opacity="0.4" d="M72.2441 106.785L58.8221 115.419V98.1504L72.2441 106.785Z" fill="black"/>
<path opacity="0.3" d="M58.8221 98.1494L72.2441 106.784V89.5151L58.8221 98.1494Z" fill="black"/>
<path opacity="0.4" d="M72.2441 89.5151L58.8221 98.1504V80.8799L72.2441 89.5151Z" fill="black"/>
<path opacity="0.5" d="M58.8221 80.8807L72.2441 89.5156V72.27L58.8221 80.8807Z" fill="black"/>
<path opacity="0.6" d="M72.2441 72.2705L58.8221 80.8809V63.6357L72.2441 72.2705Z" fill="black"/>
<path opacity="0.7" d="M45.422 72.2705L58.8221 80.8809V63.6357L45.422 72.2705Z" fill="black"/>
<path opacity="0.6" d="M58.8221 63.635L45.422 72.27V55L58.8221 63.635Z" fill="black"/>
<path opacity="0.7" d="M32 63.635L45.422 72.27V55L32 63.635Z" fill="black"/>
<path opacity="0.8" d="M45.422 72.2705L32 80.8809V63.6357L45.422 72.2705Z" fill="black"/>
<path opacity="0.5" d="M35.8192 95.6934L45.4219 101.872V89.5151L35.8192 95.6934Z" fill="black"/>
<path opacity="0.4" d="M55.0029 95.6934L45.422 101.872V89.5151L55.0029 95.6934Z" fill="black"/>
<path opacity="0.6" d="M45.422 89.5142L55.0029 95.6924V83.3359L45.422 89.5142Z" fill="black"/>
<path opacity="0.7" d="M55.0029 83.3372L45.422 89.5156V77.1831L55.0029 83.3372Z" fill="black"/>
<path opacity="0.7" d="M45.4219 89.5142L35.8192 95.6924V83.3359L45.4219 89.5142Z" fill="black"/>
<path opacity="0.8" d="M35.8192 83.3372L45.4219 89.5156V77.1831L35.8192 83.3372Z" fill="black"/>
<path opacity="0.4" d="M94.2896 78.3634C96.5096 78.3634 98.4496 78.7934 100.11 79.6534C101.79 80.4934 103.08 81.7134 103.98 83.3134C104.9 84.8934 105.36 86.7434 105.36 88.8634C105.36 90.9834 104.9 92.8234 103.98 94.3834C103.08 95.9434 101.79 97.1434 100.11 97.9834C98.4496 98.8034 96.5096 99.2134 94.2896 99.2134H87.4796V78.3634H94.2896ZM94.2896 96.4234C96.7296 96.4234 98.5996 95.7634 99.8996 94.4434C101.2 93.1234 101.85 91.2634 101.85 88.8634C101.85 86.4434 101.2 84.5534 99.8996 83.1934C98.5996 81.8334 96.7296 81.1534 94.2896 81.1534H90.8996V96.4234H94.2896ZM123.899 90.5434C123.899 91.1634 123.859 91.7234 123.779 92.2234H111.149C111.249 93.5434 111.739 94.6034 112.619 95.4034C113.499 96.2034 114.579 96.6034 115.859 96.6034C117.699 96.6034 118.999 95.8334 119.759 94.2934H123.449C122.949 95.8134 122.039 97.0634 120.719 98.0434C119.419 99.0034 117.799 99.4834 115.859 99.4834C114.279 99.4834 112.859 99.1334 111.599 98.4334C110.359 97.7134 109.379 96.7134 108.659 95.4334C107.959 94.1334 107.609 92.6334 107.609 90.9334C107.609 89.2334 107.949 87.7434 108.629 86.4634C109.329 85.1634 110.299 84.1634 111.539 83.4634C112.799 82.7634 114.239 82.4134 115.859 82.4134C117.419 82.4134 118.809 82.7534 120.029 83.4334C121.249 84.1134 122.199 85.0734 122.879 86.3134C123.559 87.5334 123.899 88.9434 123.899 90.5434ZM120.329 89.4634C120.309 88.2034 119.859 87.1934 118.979 86.4334C118.099 85.6734 117.009 85.2934 115.709 85.2934C114.529 85.2934 113.519 85.6734 112.679 86.4334C111.839 87.1734 111.339 88.1834 111.179 89.4634H120.329ZM133.655 96.1534L138.335 82.6834H141.965L135.665 99.2134H131.585L125.315 82.6834H128.975L133.655 96.1534ZM147.97 96.4534H155.02V99.2134H144.55V78.3634H147.97V96.4534ZM165.05 99.4834C163.49 99.4834 162.08 99.1334 160.82 98.4334C159.56 97.7134 158.57 96.7134 157.85 95.4334C157.13 94.1334 156.77 92.6334 156.77 90.9334C156.77 89.2534 157.14 87.7634 157.88 86.4634C158.62 85.1634 159.63 84.1634 160.91 83.4634C162.19 82.7634 163.62 82.4134 165.2 82.4134C166.78 82.4134 168.21 82.7634 169.49 83.4634C170.77 84.1634 171.78 85.1634 172.52 86.4634C173.26 87.7634 173.63 89.2534 173.63 90.9334C173.63 92.6134 173.25 94.1034 172.49 95.4034C171.73 96.7034 170.69 97.7134 169.37 98.4334C168.07 99.1334 166.63 99.4834 165.05 99.4834ZM165.05 96.5134C165.93 96.5134 166.75 96.3034 167.51 95.8834C168.29 95.4634 168.92 94.8334 169.4 93.9934C169.88 93.1534 170.12 92.1334 170.12 90.9334C170.12 89.7334 169.89 88.7234 169.43 87.9034C168.97 87.0634 168.36 86.4334 167.6 86.0134C166.84 85.5934 166.02 85.3834 165.14 85.3834C164.26 85.3834 163.44 85.5934 162.68 86.0134C161.94 86.4334 161.35 87.0634 160.91 87.9034C160.47 88.7234 160.25 89.7334 160.25 90.9334C160.25 92.7134 160.7 94.0934 161.6 95.0734C162.52 96.0334 163.67 96.5134 165.05 96.5134ZM183.671 82.4134C184.951 82.4134 186.081 82.6734 187.061 83.1934C188.061 83.6934 188.841 84.3234 189.401 85.0834V82.6834H192.851V99.4834C192.851 101.003 192.531 102.353 191.891 103.533C191.251 104.733 190.321 105.673 189.101 106.353C187.901 107.033 186.461 107.373 184.781 107.373C182.541 107.373 180.681 106.843 179.201 105.783C177.721 104.743 176.881 103.323 176.681 101.523H180.071C180.331 102.383 180.881 103.073 181.721 103.593C182.581 104.133 183.601 104.403 184.781 104.403C186.161 104.403 187.271 103.983 188.111 103.143C188.971 102.303 189.401 101.083 189.401 99.4834V96.7234C188.821 97.5034 188.031 98.1634 187.031 98.7034C186.051 99.2234 184.931 99.4834 183.671 99.4834C182.231 99.4834 180.911 99.1234 179.711 98.4034C178.531 97.6634 177.591 96.6434 176.891 95.3434C176.211 94.0234 175.871 92.5334 175.871 90.8734C175.871 89.2134 176.211 87.7434 176.891 86.4634C177.591 85.1834 178.531 84.1934 179.711 83.4934C180.911 82.7734 182.231 82.4134 183.671 82.4134ZM189.401 90.9334C189.401 89.7934 189.161 88.8034 188.681 87.9634C188.221 87.1234 187.611 86.4834 186.851 86.0434C186.091 85.6034 185.271 85.3834 184.391 85.3834C183.511 85.3834 182.691 85.6034 181.931 86.0434C181.171 86.4634 180.551 87.0934 180.071 87.9334C179.611 88.7534 179.381 89.7334 179.381 90.8734C179.381 92.0134 179.611 93.0134 180.071 93.8734C180.551 94.7334 181.171 95.3934 181.931 95.8534C182.711 96.2934 183.531 96.5134 184.391 96.5134C185.271 96.5134 186.091 96.2934 186.851 95.8534C187.611 95.4134 188.221 94.7734 188.681 93.9334C189.161 93.0734 189.401 92.0734 189.401 90.9334ZM199.083 80.4934C198.463 80.4934 197.943 80.2834 197.523 79.8634C197.103 79.4434 196.893 78.9234 196.893 78.3034C196.893 77.6834 197.103 77.1634 197.523 76.7434C197.943 76.3234 198.463 76.1134 199.083 76.1134C199.683 76.1134 200.193 76.3234 200.613 76.7434C201.033 77.1634 201.243 77.6834 201.243 78.3034C201.243 78.9234 201.033 79.4434 200.613 79.8634C200.193 80.2834 199.683 80.4934 199.083 80.4934ZM200.763 82.6834V99.2134H197.343V82.6834H200.763ZM204.113 90.9334C204.113 89.2334 204.453 87.7434 205.133 86.4634C205.833 85.1634 206.793 84.1634 208.013 83.4634C209.233 82.7634 210.633 82.4134 212.213 82.4134C214.213 82.4134 215.863 82.8934 217.163 83.8534C218.483 84.7934 219.373 86.1434 219.833 87.9034H216.143C215.843 87.0834 215.363 86.4434 214.703 85.9834C214.043 85.5234 213.213 85.2934 212.213 85.2934C210.813 85.2934 209.693 85.7934 208.853 86.7934C208.033 87.7734 207.623 89.1534 207.623 90.9334C207.623 92.7134 208.033 94.1034 208.853 95.1034C209.693 96.1034 210.813 96.6034 212.213 96.6034C214.193 96.6034 215.503 95.7334 216.143 93.9934H219.833C219.353 95.6734 218.453 97.0134 217.133 98.0134C215.813 98.9934 214.173 99.4834 212.213 99.4834C210.633 99.4834 209.233 99.1334 208.013 98.4334C206.793 97.7134 205.833 96.7134 205.133 95.4334C204.453 94.1334 204.113 92.6334 204.113 90.9334ZM229.241 99.4834C227.941 99.4834 226.771 99.2534 225.731 98.7934C224.711 98.3134 223.901 97.6734 223.301 96.8734C222.701 96.0534 222.381 95.1434 222.341 94.1434H225.881C225.941 94.8434 226.271 95.4334 226.871 95.9134C227.491 96.3734 228.261 96.6034 229.181 96.6034C230.141 96.6034 230.881 96.4234 231.401 96.0634C231.941 95.6834 232.211 95.2034 232.211 94.6234C232.211 94.0034 231.911 93.5434 231.311 93.2434C230.731 92.9434 229.801 92.6134 228.521 92.2534C227.281 91.9134 226.271 91.5834 225.491 91.2634C224.711 90.9434 224.031 90.4534 223.451 89.7934C222.891 89.1334 222.611 88.2634 222.611 87.1834C222.611 86.3034 222.871 85.5034 223.391 84.7834C223.911 84.0434 224.651 83.4634 225.611 83.0434C226.591 82.6234 227.711 82.4134 228.971 82.4134C230.851 82.4134 232.361 82.8934 233.501 83.8534C234.661 84.7934 235.281 86.0834 235.361 87.7234H231.941C231.881 86.9834 231.581 86.3934 231.041 85.9534C230.501 85.5134 229.771 85.2934 228.851 85.2934C227.951 85.2934 227.261 85.4634 226.781 85.8034C226.301 86.1434 226.061 86.5934 226.061 87.1534C226.061 87.5934 226.221 87.9634 226.541 88.2634C226.861 88.5634 227.251 88.8034 227.711 88.9834C228.171 89.1434 228.851 89.3534 229.751 89.6134C230.951 89.9334 231.931 90.2634 232.691 90.6034C233.471 90.9234 234.141 91.4034 234.701 92.0434C235.261 92.6834 235.551 93.5334 235.571 94.5934C235.571 95.5334 235.311 96.3734 234.791 97.1134C234.271 97.8534 233.531 98.4334 232.571 98.8534C231.631 99.2734 230.521 99.4834 229.241 99.4834Z" fill="black"/>
</svg>
