<svg width="18" height="18" viewBox="0 0 18 18" fill="none" xmlns="http://www.w3.org/2000/svg">
<path d="M9.0163 0.0675049C4.05559 0.0675049 0.032959 4.15797 0.032959 9.20421C0.032959 13.2411 2.60696 16.666 6.17631 17.8741C6.62527 17.9587 6.7901 17.6759 6.7901 17.4346C6.7901 17.2167 6.78177 16.497 6.7779 15.7335C4.27873 16.2862 3.75137 14.6555 3.75137 14.6555C3.34273 13.5994 2.75393 13.3186 2.75393 13.3186C1.93888 12.7515 2.81537 12.7631 2.81537 12.7631C3.71746 12.8275 4.19245 13.7047 4.19245 13.7047C4.99367 15.1015 6.29398 14.6977 6.80661 14.4642C6.88724 13.8739 7.12005 13.4705 7.37696 13.2425C5.38164 13.0114 3.28412 12.228 3.28412 8.727C3.28412 7.72947 3.63504 6.9144 4.2097 6.27454C4.11643 6.04426 3.80894 5.11511 4.29673 3.85657C4.29673 3.85657 5.05109 3.61101 6.76779 4.79314C7.48436 4.59069 8.25286 4.48917 9.0163 4.48569C9.77974 4.48917 10.5488 4.59069 11.2667 4.79314C12.9814 3.61101 13.7347 3.85657 13.7347 3.85657C14.2237 5.11511 13.916 6.04426 13.8227 6.27454C14.3987 6.9144 14.7473 7.72947 14.7473 8.727C14.7473 12.2363 12.6458 13.009 10.6454 13.2352C10.9676 13.5188 11.2547 14.0748 11.2547 14.9272C11.2547 16.1496 11.2443 17.1335 11.2443 17.4346C11.2443 17.6778 11.406 17.9627 11.8613 17.8729C15.4288 16.6634 17.9995 13.2398 17.9995 9.20421C17.9995 4.15797 13.9775 0.0675049 9.0163 0.0675049Z" fill="url(#paint0_linear)"/>
<path d="M3.43541 13.1859C3.41562 13.2315 3.34541 13.2449 3.28144 13.2137C3.21629 13.1839 3.17969 13.1221 3.20081 13.0765C3.22015 13.0298 3.29052 13.0169 3.35553 13.0479C3.42083 13.0779 3.45802 13.1404 3.43541 13.1859Z" fill="url(#paint1_linear)"/>
<path d="M3.79942 13.5986C3.75657 13.639 3.67282 13.6202 3.616 13.5563C3.55724 13.4927 3.54623 13.4075 3.58967 13.3665C3.63385 13.3261 3.71507 13.345 3.77398 13.4087C3.83274 13.4731 3.84419 13.5577 3.79942 13.5986Z" fill="url(#paint2_linear)"/>
<path d="M4.15343 14.1249C4.09839 14.1638 4.00839 14.1273 3.95275 14.0461C3.89771 13.9648 3.89771 13.8674 3.95394 13.8284C4.00973 13.7893 4.09839 13.8244 4.15477 13.9051C4.20966 13.9875 4.20966 14.0851 4.15343 14.1249Z" fill="url(#paint3_linear)"/>
<path d="M4.63878 14.6332C4.58954 14.6885 4.48467 14.6736 4.40791 14.5983C4.32936 14.5246 4.30749 14.42 4.35688 14.3648C4.40672 14.3094 4.51219 14.325 4.58954 14.3998C4.66749 14.4733 4.69129 14.5786 4.63878 14.6332Z" fill="url(#paint4_linear)"/>
<path d="M5.30814 14.9284C5.28643 15 5.18542 15.0325 5.08367 15.0021C4.98206 14.9708 4.91557 14.887 4.9361 14.8147C4.95722 14.7426 5.05867 14.7088 5.16117 14.7413C5.26262 14.7725 5.32927 14.8557 5.30814 14.9284Z" fill="url(#paint5_linear)"/>
<path d="M6.04326 14.9832C6.04579 15.0586 5.95951 15.121 5.8527 15.1223C5.74529 15.1248 5.65842 15.0638 5.65723 14.9897C5.65723 14.9136 5.74157 14.8517 5.84898 14.8499C5.95579 14.8478 6.04326 14.9083 6.04326 14.9832Z" fill="url(#paint6_linear)"/>
<path d="M6.7275 14.8647C6.74029 14.9383 6.66606 15.0138 6.55999 15.0337C6.45571 15.0532 6.35917 15.0079 6.34593 14.9349C6.33298 14.8596 6.40855 14.7841 6.51269 14.7646C6.6189 14.7458 6.71396 14.79 6.7275 14.8647Z" fill="url(#paint7_linear)"/>
<defs>
<linearGradient id="paint0_linear" x1="0.0329591" y1="17.8899" x2="18.7255" y2="17.0927" gradientUnits="userSpaceOnUse">
<stop stop-color="#F52C68"/>
<stop offset="1" stop-color="#FF4874"/>
</linearGradient>
<linearGradient id="paint1_linear" x1="3.19482" y1="13.3361" x2="3.50697" y2="13.3231" gradientUnits="userSpaceOnUse">
<stop stop-color="#F52C68"/>
<stop offset="1" stop-color="#FF4874"/>
</linearGradient>
<linearGradient id="paint2_linear" x1="3.56323" y1="13.6503" x2="3.87538" y2="13.6373" gradientUnits="userSpaceOnUse">
<stop stop-color="#F52C68"/>
<stop offset="1" stop-color="#FF4874"/>
</linearGradient>
<linearGradient id="paint3_linear" x1="3.91162" y1="14.1405" x2="4.22384" y2="14.1285" gradientUnits="userSpaceOnUse">
<stop stop-color="#F52C68"/>
<stop offset="1" stop-color="#FF4874"/>
</linearGradient>
<linearGradient id="paint4_linear" x1="4.33057" y1="14.6665" x2="4.68046" y2="14.6516" gradientUnits="userSpaceOnUse">
<stop stop-color="#F52C68"/>
<stop offset="1" stop-color="#FF4874"/>
</linearGradient>
<linearGradient id="paint5_linear" x1="4.93237" y1="15.034" x2="5.32702" y2="15.0132" gradientUnits="userSpaceOnUse">
<stop stop-color="#F52C68"/>
<stop offset="1" stop-color="#FF4874"/>
</linearGradient>
<linearGradient id="paint6_linear" x1="5.65723" y1="15.1549" x2="6.0585" y2="15.1335" gradientUnits="userSpaceOnUse">
<stop stop-color="#F52C68"/>
<stop offset="1" stop-color="#FF4874"/>
</linearGradient>
<linearGradient id="paint7_linear" x1="6.34448" y1="15.0653" x2="6.74406" y2="15.044" gradientUnits="userSpaceOnUse">
<stop stop-color="#F52C68"/>
<stop offset="1" stop-color="#FF4874"/>
</linearGradient>
</defs>
</svg>
