<svg width="278" height="321" viewBox="0 0 278 321" fill="none" xmlns="http://www.w3.org/2000/svg">
<rect x="1.5" y="0.5" width="276" height="319" stroke="#54555A"/>
<g opacity="0.8">
<path opacity="0.8" d="M109.35 264.055C122.212 276.814 155.486 282.703 166.39 274.851C177.295 266.999 170.165 262.793 178.553 236.152C186.942 209.512 183.866 190.163 182.888 183.853C181.769 177.543 185.823 169.411 189.318 165.906C192.814 162.401 192.114 157.072 191.415 153.707C190.716 150.342 187.92 138.704 187.92 138.704C188.48 118.373 184.705 113.186 184.705 113.186C186.103 109.68 188.2 107.858 189.039 103.511C186.942 96.9211 155.905 70 123.47 70C58.7399 70 56.6427 91.5928 44.6193 106.455C44.6193 106.455 37.4894 101.688 29.3807 106.596C27.4234 107.717 18.8953 123.001 21.4118 131.554C24.0681 140.107 30.3594 139.265 31.1982 139.826C31.1982 139.826 24.6272 153.006 15.6796 158.755C15.6796 158.755 34.6933 160.297 37.769 139.546C37.769 139.546 38.1883 149.781 41.1242 154.689L41.6836 144.033C41.6836 144.033 46.1574 159.035 47.2759 164.504" stroke="#76777E"/>
<path opacity="0.8" d="M76.495 228.16C74.9571 224.935 74.3979 206.007 74.3979 206.007C74.3979 206.007 76.495 209.372 71.6018 210.353C66.7086 211.195 53.0075 201.239 48.1143 191.705C43.2211 182.17 42.662 161.699 52.4485 161.559C62.2349 161.419 64.6115 167.308 64.6115 167.308" stroke="#76777E"/>
<path opacity="0.8" d="M58.7399 203.903C58.7399 203.903 59.5787 214.559 61.536 218.906" stroke="#76777E"/>
<path opacity="0.8" d="M63.0737 206.708C63.0737 206.708 60.2777 239.097 56.6428 244.005C56.6428 244.005 69.2253 304.577 89.4972 320" stroke="#76777E"/>
<path opacity="0.8" d="M143.602 278.356C143.602 278.356 129.761 291.396 139.268 316.354" stroke="#76777E"/>
<path opacity="0.8" d="M172.821 265.457C172.821 265.457 191.835 271.065 194.212 272.608C196.588 274.15 210.429 289.714 217 307.661" stroke="#76777E"/>
<path opacity="0.8" d="M61.536 221.71C61.536 221.71 40.0058 222.692 38.0485 266.859L1 293.359" stroke="#76777E"/>
</g>
<path d="M100.122 245.967C89.6368 243.724 88.3786 232.227 84.8835 217.785C84.4641 214.139 80.1302 211.054 78.7322 207.689C76.9147 203.202 77.7534 198.575 74.3981 194.93L72.161 195.631L72.301 210.774C72.5806 223.253 76.6351 235.031 81.5283 242.462C86.4215 249.893 103.198 262.933 113.404 269.243C119.835 273.169 121.653 273.729 122.072 273.589C126.266 281.441 133.117 287.33 141.505 290.415L143.602 286.489C143.602 286.489 150.033 292.238 150.872 293.92C150.872 293.92 155.206 291.817 155.206 290.555L157.303 292.518L165.132 286.208L167.229 286.629C167.229 286.629 178.414 274.711 173.66 262.933L172.262 261.531C172.262 261.531 163.175 265.597 160.658 259.708C155.765 256.764 149.474 258.306 144.86 259.708C143.602 263.774 138.01 262.933 131.579 261.952C128.083 261.812 125.847 260.69 122.631 262.092C122.631 262.092 116.34 248.912 117.179 244.425C117.039 244.425 103.198 246.668 100.122 245.967Z" fill="url(#paint0_linear)"/>
<defs>
<linearGradient id="paint0_linear" x1="72.2072" y1="200.767" x2="158.67" y2="288.525" gradientUnits="userSpaceOnUse">
<stop stop-color="#4663FF"/>
<stop offset="1" stop-color="#17A8D3"/>
</linearGradient>
</defs>
</svg>
