<svg width="278" height="321" viewBox="0 0 278 321" fill="none" xmlns="http://www.w3.org/2000/svg">
<rect x="1.5" y="0.5" width="276" height="319" stroke="#54555A"/>
<path d="M122.649 160.249C122.649 160.249 135.262 156.185 144.652 154.083C154.183 151.981 159.929 155.064 163.713 156.746C166.235 157.727 166.235 158.568 167.637 158.427C169.038 158.287 169.038 157.446 170.3 155.905C177.307 147.777 194.545 149.739 196.648 151.561C197.348 152.262 196.788 153.943 196.788 153.943C196.788 153.943 195.947 154.364 195.526 155.064C195.526 155.064 196.788 179.167 177.587 178.466L169.178 160.95C169.178 160.95 166.375 159.829 165.815 163.612C165.394 165.995 164.554 178.606 155.023 183.511C145.493 188.416 134.422 184.212 132.74 176.925C131.058 169.638 131.058 168.237 128.255 165.014C125.452 161.931 121.528 163.472 121.528 163.472L122.649 160.249Z" stroke="#76777E" stroke-miterlimit="10"/>
<path d="M122.929 236.482C139.887 242.788 162.732 241.526 167.356 237.883C171.981 234.099 170.86 230.036 170.44 227.233C170.019 224.43 170.86 222.188 170.86 222.188C170.86 222.188 173.523 218.264 174.924 211.818C176.326 205.372 178.428 198.225 178.428 198.225C180.671 197.104 183.474 193.741 183.894 191.919C184.314 190.098 182.913 187.575 182.913 187.575L180.39 183.231L182.633 178.046" stroke="#76777E" stroke-miterlimit="10"/>
<path d="M164.974 102.655C164.974 102.655 172.402 110.782 174.925 117.369C177.447 123.955 177.447 128.579 178.148 131.382C178.849 134.185 181.091 139.089 181.512 139.369C181.932 139.79 183.053 143.293 182.633 146.236C182.633 146.236 182.212 147.777 181.652 150.02" stroke="#76777E" stroke-miterlimit="10"/>
<path d="M118.725 272.215C119.285 270.954 125.872 264.928 125.872 264.928C128.956 263.246 135.683 252.596 138.766 246.991C141.849 241.386 147.736 240.685 147.736 240.685" stroke="#76777E" stroke-miterlimit="10"/>
<path d="M146.194 241.246C146.194 241.246 152.08 254.278 157.686 268.712C163.292 283.145 162.031 290.712 161.05 296.878C160.069 302.904 159.228 305.987 159.228 305.987H138.766L135.263 302.203C135.122 299.12 133.861 294.776 130.638 285.808C127.554 276.839 129.236 275.998 130.638 270.673C132.039 265.208 134.141 254.979 134.141 254.979" stroke="#76777E" stroke-miterlimit="10"/>
<path d="M99.1041 250.354C99.1041 250.354 119.285 281.183 121.107 283.005C122.929 284.827 135.543 303.184 140.027 306.968C144.652 310.751 150.959 310.751 153.201 315.936C153.201 315.936 150.819 317.758 147.736 320" stroke="#76777E" stroke-miterlimit="10"/>
<path d="M171.981 157.306C173.103 154.504 186.417 148.758 193.705 152.542C195.667 176.364 180.671 176.645 179.409 175.664C177.728 174.402 176.186 173.702 173.944 170.759L171.981 166.835C170.58 163.612 171 159.689 171.981 157.306Z" stroke="#76777E" stroke-miterlimit="10"/>
<path d="M134.141 163.613C135.543 153.243 160.489 154.784 163.012 159.409C165.675 164.313 160.769 183.932 148.296 184.072C135.963 184.212 132.74 174.823 134.141 163.613Z" stroke="#76777E" stroke-miterlimit="10"/>
<path d="M17.3974 261.425C17.3974 261.425 5.34461 281.044 1 285.108" stroke="#76777E" stroke-miterlimit="10"/>
<path d="M160.629 240.545C160.629 240.545 179.269 253.017 182.913 285.948" stroke="#76777E" stroke-miterlimit="10"/>
<path d="M43.0447 267.31L43.6053 269.272C43.4651 268.712 43.325 268.011 43.0447 267.31Z" fill="url(#paint0_linear)"/>
<path d="M60.1428 280.343C62.6655 283.987 65.4685 287.07 65.4685 287.07C64.9079 285.668 62.3852 283.146 60.1428 280.343Z" fill="url(#paint1_linear)"/>
<path d="M180.951 119.331C179.69 110.502 173.243 104.056 169.319 99.5719C169.319 99.4318 171.141 97.7502 171.141 97.4699C172.122 91.8646 155.023 84.7179 153.482 84.4376C153.482 84.4376 137.225 69.7237 115.922 70.004C94.6194 70.2842 77.2409 70.004 62.8056 81.4948C48.3703 92.9857 41.2227 102.094 31.2722 134.465C21.3216 166.976 19.0792 191.359 16.5566 197.524C14.0339 203.83 10.6703 218.544 10.9506 228.354L14.174 222.888C14.174 222.888 11.2309 238.303 13.3332 246.571C13.3332 246.571 13.4733 243.488 15.5755 240.545C15.5755 240.545 15.5755 264.788 9.12869 273.616C9.12869 273.616 27.0677 253.437 33.0941 252.737L34.7759 255.119L26.6473 268.852L36.4577 255.259C36.4577 255.259 41.0826 261.285 43.0447 267.17L40.2417 256.52L48.9309 248.393C48.9309 248.393 50.6127 250.214 51.0331 251.055C51.4536 251.756 53.9763 268.011 55.6581 273.476C55.7982 273.897 55.9383 274.317 56.0785 274.597C56.7792 276.139 58.461 278.241 60.1428 280.203C58.461 277.68 56.9194 274.737 56.7792 272.355C56.3588 266.33 55.7982 256.1 55.7982 256.1C55.7982 256.1 61.6844 269.833 61.8246 270.814C61.9647 271.795 68.2714 291.553 87.0514 302.203C87.0514 302.203 65.7488 288.33 65.6086 265.769C65.6086 265.769 89.574 312.013 112.418 313.834C112.418 313.834 100.085 304.025 98.8238 292.534C98.8238 292.534 106.532 303.324 117.604 302.063C117.604 302.063 104.43 275.438 100.786 252.456C96.8617 229.755 112.839 181.129 113.119 179.868C113.399 178.887 141.289 135.866 154.883 111.623C154.883 111.623 161.33 107.279 165.535 102.795C170.16 108.4 173.663 114.846 173.663 114.846C174.504 110.782 173.383 107.139 173.383 107.139C176.186 108.26 180.951 119.331 180.951 119.331Z" fill="url(#paint2_linear)"/>
<path d="M156.145 264.788C156.425 263.247 156.705 241.246 156.705 241.246H146.194C146.194 241.246 153.482 258.202 156.145 264.788Z" fill="url(#paint3_linear)"/>
<path d="M157.406 241.246C157.406 241.246 156.705 249.374 158.948 258.342C158.948 258.342 158.247 245.87 160.489 240.545L157.406 241.246Z" fill="url(#paint4_linear)"/>
<defs>
<linearGradient id="paint0_linear" x1="43.0518" y1="268.291" x2="43.5789" y2="268.291" gradientUnits="userSpaceOnUse">
<stop stop-color="#EF3F7C"/>
<stop offset="0.9768" stop-color="#FF029A"/>
<stop offset="1" stop-color="#FF009B"/>
</linearGradient>
<linearGradient id="paint1_linear" x1="60.0791" y1="283.706" x2="65.4409" y2="283.706" gradientUnits="userSpaceOnUse">
<stop stop-color="#EF3F7C"/>
<stop offset="0.9768" stop-color="#FF029A"/>
<stop offset="1" stop-color="#FF009B"/>
</linearGradient>
<linearGradient id="paint2_linear" x1="9.12869" y1="191.917" x2="180.951" y2="191.917" gradientUnits="userSpaceOnUse">
<stop stop-color="#EF3F7C"/>
<stop offset="0.9768" stop-color="#FF029A"/>
<stop offset="1" stop-color="#FF009B"/>
</linearGradient>
<linearGradient id="paint3_linear" x1="146.171" y1="253.017" x2="156.695" y2="253.017" gradientUnits="userSpaceOnUse">
<stop stop-color="#EF3F7C"/>
<stop offset="0.9768" stop-color="#FF029A"/>
<stop offset="1" stop-color="#FF009B"/>
</linearGradient>
<linearGradient id="paint4_linear" x1="157.352" y1="249.444" x2="160.618" y2="249.444" gradientUnits="userSpaceOnUse">
<stop stop-color="#EF3F7C"/>
<stop offset="0.9768" stop-color="#FF029A"/>
<stop offset="1" stop-color="#FF009B"/>
</linearGradient>
</defs>
</svg>
