<svg width="277" height="321" viewBox="0 0 277 321" fill="none" xmlns="http://www.w3.org/2000/svg">
<rect x="0.5" y="0.5" width="276" height="319" stroke="white" stroke-opacity="0.1"/>
<path opacity="0.8" d="M61.1661 210.988C69.666 225.883 76.4992 214 76.4992 214L76.3326 223.373C76.4992 240.109 91.9991 247.139 91.9991 247.139" stroke="#76777E"/>
<path opacity="0.8" d="M184.165 130.986C184.165 130.986 189.498 153.413 189.831 154.919C190.165 156.426 190.165 162.283 188.331 165.631C186.498 168.978 182.831 174.501 182.831 174.501C182.831 174.501 192.665 192.577 193.498 194.418C194.498 196.092 196.164 198.435 195.831 201.447C195.331 204.46 190.998 207.807 187.331 208.811C187.331 208.811 188.831 222.703 187.498 226.887C186.331 230.904 180.998 242.118 180.498 245.297C179.998 248.645 180.998 253.833 179.331 262.034C177.665 270.235 173.165 272.746 164.665 273.75C160.498 274.252 146.832 272.746 142.665 272.076C133.332 270.403 122.499 264.879 115.665 260.528" stroke="#76777E"/>
<path opacity="0.8" d="M134.499 287.976C134.499 287.976 142.165 272.579 148.998 272.913" stroke="#76777E"/>
<path opacity="0.8" d="M65.3327 217.18C65.3327 217.18 69.4993 237.933 65.8327 246.302" stroke="#76777E"/>
<path opacity="0.8" d="M142.998 276.428C142.998 276.428 147.832 298.186 122.165 313.918C96.4989 329.651 63.666 311.742 50.6661 295.508C37.6663 279.273 37.9996 268.394 38.4996 263.373C38.4996 263.373 38.3329 261.365 35.9996 261.867C33.833 262.369 22.1664 268.562 20.8331 269.398C20.3331 269.901 12.9999 274.085 4.83331 278.938" stroke="#76777E"/>
<path opacity="0.8" d="M176.165 270.236C176.165 270.236 199.164 281.951 202.831 303.709" stroke="#76777E"/>
<path opacity="0.8" d="M24.9997 275.424C24.9997 275.424 25.6664 292.662 41.3328 307.893" stroke="#76777E"/>
<path opacity="0.8" d="M151.498 280.445C151.498 280.445 153.665 298.855 141.999 313.918" stroke="#76777E"/>
<path d="M189.998 123.622C190.831 119.605 188.498 115.923 189.331 113.245C190.331 110.233 184.665 108.057 184.665 108.057C185.831 103.873 178.998 99.1864 178.998 99.1864C177.831 96.0064 172.831 92.9938 172.831 92.9938C170.331 87.6381 160.165 83.1192 160.165 83.1192C154.332 73.5792 138.498 76.7592 138.498 76.7592C134.332 74.7508 128.332 74.7508 128.332 74.7508C128.332 74.7508 126.165 71.0687 117.665 70.0645C109.165 69.0603 86.499 80.1066 86.499 80.1066C70.6659 83.2865 60.3326 91.1528 57.9993 92.3244C55.4994 93.4959 46.3328 100.86 35.9996 127.137C25.833 153.413 32.6663 179.857 32.6663 179.857C31.9996 182.368 32.4996 183.205 32.833 189.899C33.333 196.594 24.3331 201.95 14.8332 205.297C5.33327 208.644 0 198.602 0 198.602C5.83327 218.184 22.6664 212.159 22.6664 212.159C17.3331 230.402 29.9997 240.277 29.9997 240.277C29.1663 243.791 17.4998 234.921 17.4998 234.921C23.3331 246.971 29.9997 244.796 29.9997 244.796L32.9996 252.16C32.333 257.181 24.4997 249.649 24.4997 249.649C24.9997 260.361 33.333 259.691 33.333 259.691C32.833 262.202 27.6663 264.043 27.6663 264.043C31.9996 269.231 38.6662 263.373 38.6662 263.373C35.4996 268.06 21.1664 269.566 21.1664 269.566C54.4994 278.102 60.9993 262.704 60.9993 262.704L64.3326 264.712C62.8326 262.704 59.166 252.997 59.166 252.997C63.3326 252.829 70.6659 262.871 70.6659 262.871L66.8326 252.997C70.1659 235.758 65.6659 217.18 65.6659 217.18L62.166 211.322C64.1659 197.096 74.9991 190.736 74.9991 190.736C88.3323 187.556 117.665 164.627 129.165 155.422C116.832 167.807 110.499 193.414 104.832 202.452C100.666 209.314 96.1656 209.649 93.6656 209.147C114.165 215.674 122.165 181.029 130.999 169.983C139.998 158.434 155.332 148.225 155.332 148.225C155.332 148.225 174.331 138.016 184.165 130.986L188.831 147.221C192.831 147.221 194.998 140.526 191.498 132.158C199.164 139.857 202.164 150.233 200.498 153.246C198.831 156.426 190.664 160.275 190.664 160.275C189.498 166.468 187.498 168.476 187.498 168.476C187.498 168.476 192.164 166.635 200.164 159.941C209.831 151.405 191.831 126.635 189.998 123.622Z" fill="url(#paint0_linear)"/>
<defs>
<linearGradient id="paint0_linear" x1="-0.290345" y1="171.104" x2="202.71" y2="171.104" gradientUnits="userSpaceOnUse">
<stop stop-color="#4663FF"/>
<stop offset="1" stop-color="#17A8D3"/>
</linearGradient>
</defs>
</svg>
