<svg width="278" height="320" viewBox="0 0 278 320" fill="none" xmlns="http://www.w3.org/2000/svg">
<rect x="1.5" y="0.5" width="276" height="319" stroke="#54555A"/>
<path d="M174.954 109.164C182.499 113.578 187.766 135.367 189.474 138.928C191.182 142.488 192.036 146.333 192.178 150.321C192.178 154.308 188.477 158.866 188.477 158.866C188.477 158.866 187.623 159.008 188.335 159.435C189.758 160.432 191.609 160.575 193.175 160.005C193.175 160.005 193.317 161.714 189.189 161.002C189.189 161.002 187.196 160.147 186.911 161.144C186.769 161.999 186.484 162.996 185.915 163.708C185.915 163.708 187.338 169.974 188.335 172.395C189.331 174.816 190.755 179.8 189.901 183.076C189.901 183.076 191.751 187.918 191.751 188.488C191.751 189.912 191.467 191.336 190.613 192.475C189.474 193.899 187.765 193.33 187.481 196.605C186.911 200.878 185.773 205.15 184.064 208.995C182.641 211.701 180.648 217.255 180.648 219.961C180.648 222.667 181.644 234.772 172.249 237.905C162.711 241.038 151.608 236.766 137.943 231.212" stroke="#76777E" stroke-miterlimit="10"/>
<path d="M103.778 197.602C103.494 200.023 101.928 202.017 99.5078 202.729C92.6749 204.865 89.2582 200.023 89.2582 200.023" stroke="#76777E" stroke-miterlimit="10"/>
<path d="M148.619 236.054C146.199 237.62 144.348 239.899 143.21 242.605C141.359 246.877 137.373 254.995 135.807 258.697C134.242 262.258 134.526 271.087 134.526 271.087" stroke="#76777E" stroke-miterlimit="10"/>
<path d="M138.512 252.716C138.512 252.716 142.783 270.803 134.384 277.639C134.384 277.639 117.871 279.917 109.045 275.787" stroke="#76777E" stroke-miterlimit="10"/>
<path d="M39.7199 252.716C33.1717 258.27 26.1964 263.54 18.9364 268.382C10.253 273.936 2.42352 288.035 1 292.307" stroke="#76777E" stroke-miterlimit="10"/>
<path d="M18.6516 298.836C18.6516 298.836 42.5665 305.957 50.5382 319.202" stroke="#76777E" stroke-miterlimit="10"/>
<path d="M103.778 195.893C103.778 195.893 109.615 211.559 112.319 212.698" stroke="#76777E" stroke-miterlimit="10"/>
<path d="M190.057 319.87H185.504C185.361 319.353 185.361 319.094 185.361 318.964L184.935 319.87H183.512C184.081 318.705 184.508 317.799 184.508 317.67L178.247 311.196C178.674 314.044 178.817 317.022 178.674 320H178.105V317.022C177.963 316.763 172.272 309.643 172.272 309.643C172.841 313.268 176.682 318.576 177.963 320H176.683C173.695 316.116 167.861 308.736 167.861 308.607C167.435 312.491 168.146 316.375 169.711 320H168.857C167.719 317.152 166.723 314.174 166.154 311.196C166.438 314.174 167.008 317.152 167.861 320H165.869C164.162 314.174 163.166 308.218 162.597 302.134C161.316 300.451 160.463 298.508 160.321 296.437C160.036 293.848 159.894 291.388 160.036 288.798C160.178 285.562 160.605 282.325 161.174 279.218C161.032 278.7 154.203 267.566 152.78 265.365V265.236C156.194 274.169 155.199 280.383 153.918 289.057C153.491 291.388 153.207 293.718 152.78 296.437C152.211 301.357 152.922 306.147 154.629 310.808C155.768 313.915 157.19 317.022 158.898 320H158.755C156.621 316.763 154.914 313.268 153.776 309.513C151.784 303.299 151.499 296.696 152.637 290.352C153.776 284.655 154.06 278.7 153.491 272.874C153.064 269.767 152.211 266.66 151.072 263.682C150.788 262.776 150.361 261.87 150.077 261.093C148.654 256.302 140.117 236.494 139.975 236.235L139.406 235.199C140.117 233.775 143.532 226.913 144.528 225.23C145.808 223.547 147.231 222.123 148.938 220.829C148.938 220.829 152.211 222.512 160.747 223.677C162.455 223.936 164.162 224.065 165.869 224.065C168.43 224.195 171.134 223.677 173.41 222.641C173.41 222.77 174.122 232.61 177.109 237.53C178.959 241.155 180.097 245.039 180.382 249.052C180.951 246.463 181.093 241.414 178.817 231.963C177.394 226.266 175.687 221.735 175.687 221.605C178.675 220.181 180.239 214.744 180.382 214.744C180.097 216.686 180.809 221.735 182.374 227.82C183.796 233.516 185.646 239.083 188.207 244.521C192.618 253.454 193.471 261.74 192.191 264.329C191.195 266.53 188.349 272.874 187.78 274.039C189.061 276.629 203.431 284.138 204 284.397C200.728 284.267 188.207 275.464 188.065 275.334C189.061 278.053 190.341 280.772 191.764 283.361C194.04 287.763 196.886 293.2 198.736 297.861C201.297 304.334 201.439 314.562 201.154 320H194.467C193.898 319.353 193.614 318.835 193.614 318.835V320H191.906C190.768 317.929 189.203 316.116 187.353 314.692C187.211 316.634 188.207 318.576 190.057 319.87ZM169.853 292.682C169.995 298.12 171.418 303.299 173.837 308.218C174.975 310.419 176.256 312.62 177.821 314.562C177.821 312.62 177.536 310.808 177.109 308.866C175.971 307.701 173.979 303.428 172.699 300.192C171.134 296.437 169.995 292.941 169.853 292.682ZM188.065 280.772C187.78 280.772 187.496 280.772 187.496 281.03C187.353 281.548 188.065 282.584 189.915 284.138C191.195 285.303 193.329 288.41 196.317 296.825C198.024 301.745 199.305 306.276 199.305 306.535C199.305 301.357 196.317 294.754 193.898 290.093C192.333 286.856 190.483 283.749 188.349 280.901C188.349 280.771 188.207 280.772 188.065 280.772ZM187.638 282.843C187.922 284.396 188.492 285.821 189.345 287.115C190.626 289.316 196.175 302.263 196.175 302.392C196.175 297.861 187.78 283.102 187.638 282.843ZM162.455 284.656C161.743 286.08 161.174 287.504 160.89 289.057C160.178 292.682 160.747 296.437 162.455 299.803V299.674C162.455 296.696 162.597 293.718 162.882 290.74C162.882 290.611 162.882 290.352 162.739 290.093C162.597 288.41 162.455 286.598 162.455 284.656ZM183.512 277.146C182.658 277.664 182.943 278.959 182.943 279.088C183.654 279.606 186.073 285.432 186.215 285.691C185.931 283.749 185.504 281.937 184.792 280.124C184.366 279.218 183.939 278.182 183.512 277.146ZM186.215 250.865C186.215 251.641 185.504 270.026 184.792 271.062L184.935 271.191C185.931 272.615 186.357 273.392 186.5 273.521C186.926 271.45 187.211 269.508 187.496 267.436C187.496 267.178 187.638 266.66 187.638 265.883C188.065 261.611 189.203 252.03 186.215 250.865ZM184.223 239.731C184.223 239.86 190.057 253.583 190.057 259.539C190.057 262.776 189.488 265.883 188.492 268.99C188.207 269.767 188.065 270.544 188.065 271.32C188.065 271.32 189.488 267.954 189.772 266.789C189.914 266.53 189.914 266.271 190.057 265.883C191.195 263.423 191.479 260.834 191.052 258.244L190.768 256.302C190.341 252.677 190.057 249.7 184.223 239.731ZM183.512 250.217C183.37 250.606 181.662 260.186 181.804 262.646C182.089 264.588 182.516 266.66 183.227 268.472C183.369 268.213 185.077 252.677 183.512 250.217ZM22.7376 319.87H20.6034C19.1806 317.54 17.6155 315.339 15.9082 313.268C11.3553 308.089 8.08267 302.134 6.09077 295.66C5.09483 292.294 4.81055 288.928 4.95283 285.432C5.23738 281.937 6.37547 278.441 8.36737 275.463C12.3512 269.378 18.3267 264.588 25.2983 261.61C31.1317 259.021 37.5344 257.208 43.9369 256.302C46.7825 256.173 49.4857 254.749 51.3353 252.677C52.4735 250.994 52.9006 249.052 52.616 247.11C50.055 246.333 47.6362 245.427 45.3597 244.262C43.3678 243.226 41.6603 242.061 40.2375 240.507C38.6725 238.954 37.8191 237.141 37.6768 235.07C37.5345 231.186 38.5305 227.302 40.5224 223.806C41.5183 221.994 42.5141 220.44 43.9369 218.887C43.7946 218.369 39.3839 206.458 39.9531 201.15C40.3799 198.172 41.0914 195.324 41.8027 192.346C43.7946 184.578 46.6403 172.796 47.2094 161.144C47.2094 160.109 47.3515 159.202 47.3515 158.296C47.3515 153.117 47.9208 147.939 48.6322 142.89C49.6281 138.747 51.1933 134.733 53.3274 130.849L53.754 130.072C59.4451 118.809 68.978 100.036 73.5309 96.0229C74.2423 95.505 74.8114 94.8576 75.3806 94.3398C78.5107 91.621 81.0716 89.1611 85.6245 89.1611C86.905 89.1611 88.3279 89.4199 89.6084 89.6789C89.7507 89.4199 93.4496 83.4645 98.5716 80.6162C102.271 78.2858 106.539 76.8617 110.95 76.4733C112.657 75.3081 114.792 74.6609 116.926 74.6609C117.353 74.6609 117.637 74.6607 118.064 74.7902C118.633 74.9197 119.344 75.0491 119.913 75.0491C121.194 75.0491 122.474 74.6608 123.47 73.884C124.466 72.8483 124.893 71.4241 124.609 70C124.751 71.0357 124.751 72.2009 124.609 73.2367C125.747 71.942 127.17 71.0356 128.877 70.5177C129.588 70.2588 130.442 70.1296 131.154 70.1296C134.426 70.3885 137.556 71.0359 140.686 72.0716C142.251 71.8127 143.674 71.8124 145.239 71.8124C151.357 71.6829 157.19 73.2367 162.312 76.2145C169.426 80.6163 173.695 87.9959 174.69 98.2238C177.394 98.7416 179.955 100.166 181.662 102.108C183.37 104.309 183.796 107.157 182.658 109.746C182.658 109.746 183.085 106.251 181.093 104.179C180.097 103.143 178.674 102.626 177.252 102.755C176.825 102.755 176.398 102.755 175.971 102.884C176.683 103.661 182.516 110.523 181.804 114.407C181.804 114.278 177.536 107.545 175.544 106.251C173.695 105.085 167.577 101.59 167.292 101.46C167.577 101.719 168.288 102.496 168.288 102.755C168.288 102.885 168.146 102.884 168.003 102.884H167.861C167.577 102.884 167.292 102.496 166.723 102.108C165.016 100.295 162.455 99.13 159.894 98.8711C158.755 98.7416 157.902 98.6121 157.048 98.4826C156.052 98.3532 155.483 98.2238 155.198 98.2238H154.914V98.7415C154.914 98.871 154.772 98.8711 154.629 98.8711C154.203 98.8711 153.776 98.7417 153.349 98.6122L152.353 98.353C150.93 97.9646 149.507 97.8353 148.085 97.8353C147.089 97.8353 145.95 97.9647 144.954 98.0942C143.959 98.3531 142.962 98.353 141.966 98.353C141.113 98.353 140.402 98.3532 139.69 98.2238H139.406C138.837 98.2238 138.41 98.0942 137.983 98.0942C137.556 98.0942 137.129 98.2237 136.845 98.4826C136.56 98.7416 136.56 99.3888 136.845 100.295C137.556 102.755 137.556 105.344 136.987 107.804C136.133 111.3 134.284 114.666 131.58 117.255C127.17 121.916 123.328 126.965 119.913 132.274C119.06 133.439 118.491 134.474 117.922 135.122C115.93 137.841 114.934 138.617 111.092 141.854L110.95 141.984C110.381 142.501 109.669 143.019 108.958 143.666C106.682 145.608 102.556 150.01 100.279 158.814C97.7182 168.524 98.1448 180.694 101.417 194.935C104.12 206.717 106.539 215.52 108.389 222.512C111.804 234.811 113.369 241.025 112.088 246.333C111.946 246.722 111.946 247.11 111.804 247.628C109.527 255.655 108.673 263.812 108.958 272.097C109.812 284.785 114.934 295.401 124.182 303.299C130.869 307.959 136.844 313.397 141.966 319.482H136.275C134.71 318.317 132.861 317.152 131.011 315.986C131.865 317.022 132.576 318.187 133.003 319.482H131.011C130.015 316.116 128.166 312.879 125.889 310.031C123.613 307.183 120.198 305.37 116.356 304.852L122.332 319.482H86.1935C85.9089 319.223 85.7668 318.964 85.6245 318.835V319.482H71.6812C70.6852 315.598 69.4046 308.995 67.9818 302.004V301.875C65.1362 287.763 62.0063 271.709 59.5875 266.789V266.919C59.0184 270.414 55.8883 288.022 53.8964 290.223C55.0346 286.468 56.0306 282.713 56.742 278.959C57.7379 273.133 58.5916 264.977 56.742 259.021C54.3232 258.762 51.7623 258.633 49.3436 258.633C44.2215 258.633 39.0996 259.151 34.1199 260.316C28.0019 261.61 22.453 264.329 17.7579 268.084C2.5341 280.383 7.37149 293.718 11.6398 300.58C12.7781 302.522 17.9001 310.937 22.7376 319.87ZM73.2464 290.223C73.1041 292.942 73.2463 295.66 73.5309 298.379C74.1 302.392 75.3803 307.959 78.6527 311.067L73.2464 290.223ZM113.653 296.308C113.796 296.437 121.479 305.629 123.328 306.535C122.475 305.111 121.621 303.817 120.625 302.522C118.775 300.062 116.357 297.861 113.653 296.308ZM84.2017 286.727C84.344 286.986 86.9048 294.107 88.6122 296.308C88.6122 296.308 89.6082 291.388 87.3318 288.54C86.7627 287.633 85.4822 286.986 84.2017 286.727ZM50.6239 187.297C48.632 189.239 47.2092 191.569 46.3556 194.158C45.5019 196.877 45.0751 199.725 45.3597 202.574C45.7865 206.587 46.9248 210.471 48.9167 214.226C48.7744 212.284 48.2053 202.444 49.628 197.783C50.4817 194.288 50.9085 190.792 50.6239 187.297Z" fill="url(#paint0_linear)"/>
<defs>
<linearGradient id="paint0_linear" x1="59.9626" y1="111.13" x2="162.25" y2="257.103" gradientUnits="userSpaceOnUse">
<stop stop-color="#EF3F7C"/>
<stop offset="1" stop-color="#FF009B"/>
</linearGradient>
</defs>
</svg>
