<svg width="52" height="52" viewBox="0 0 52 52" fill="none" xmlns="http://www.w3.org/2000/svg">
<g clip-path="url(#clip0)">
<path d="M15.9598 21.9309C15.9598 22.5429 16.0211 23.0392 16.1282 23.4031C16.2506 23.767 16.4037 24.164 16.6179 24.5941C16.6945 24.7264 16.7251 24.8587 16.7251 24.9745C16.7251 25.1399 16.6332 25.3053 16.4343 25.4707L15.4701 26.1655C15.3323 26.2647 15.1946 26.3144 15.0722 26.3144C14.9191 26.3144 14.7661 26.2316 14.613 26.0828C14.3988 25.8347 14.2151 25.57 14.062 25.3053C13.909 25.0241 13.756 24.7098 13.5876 24.3294C12.3938 25.8512 10.894 26.6121 9.08802 26.6121C7.80242 26.6121 6.77701 26.2151 6.02708 25.4211C5.27715 24.6271 4.89453 23.5685 4.89453 22.2452C4.89453 20.8392 5.35367 19.6978 6.28726 18.8377C7.22085 17.9775 8.46053 17.5474 10.0369 17.5474C10.5573 17.5474 11.0929 17.5971 11.6592 17.6798C12.2255 17.7625 12.8071 17.8948 13.4193 18.0437V16.8362C13.4193 15.579 13.1744 14.7023 12.6999 14.1895C12.2102 13.6768 11.3837 13.4286 10.2053 13.4286C9.6696 13.4286 9.11863 13.4948 8.55236 13.6437C7.98608 13.7926 7.43511 13.9745 6.89945 14.2061C6.65457 14.3219 6.47092 14.388 6.36378 14.4211C6.25665 14.4542 6.18013 14.4707 6.11891 14.4707C5.90464 14.4707 5.79751 14.3053 5.79751 13.958V13.1474C5.79751 12.8828 5.82812 12.6843 5.90464 12.5685C5.98117 12.4527 6.11891 12.3369 6.33317 12.2211C6.86884 11.9234 7.51164 11.6753 8.26157 11.4768C9.0115 11.2617 9.80734 11.1625 10.6491 11.1625C12.4704 11.1625 13.8019 11.6091 14.6589 12.5023C15.5007 13.3956 15.9292 14.752 15.9292 16.5715V21.9309H15.9598ZM9.74612 24.4452C10.2512 24.4452 10.7715 24.3459 11.3225 24.1474C11.8735 23.9489 12.3632 23.585 12.7765 23.0888C13.0213 22.7745 13.205 22.4271 13.2968 22.0301C13.3886 21.6332 13.4499 21.1535 13.4499 20.591V19.8963C13.006 19.7805 12.5316 19.6813 12.0418 19.6151C11.5521 19.5489 11.0776 19.5159 10.6032 19.5159C9.57777 19.5159 8.82784 19.7309 8.32278 20.1775C7.81773 20.6241 7.57285 21.2527 7.57285 22.0798C7.57285 22.8572 7.75651 23.4362 8.13913 23.8332C8.50644 24.2467 9.04211 24.4452 9.74612 24.4452ZM22.0358 26.2316C21.7603 26.2316 21.5767 26.182 21.4542 26.0662C21.3318 25.967 21.2246 25.7354 21.1328 25.4211L17.5362 12.6347C17.4444 12.3038 17.3985 12.0888 17.3985 11.973C17.3985 11.7083 17.5209 11.5595 17.7658 11.5595H19.2656C19.5564 11.5595 19.7554 11.6091 19.8625 11.7249C19.985 11.8241 20.0768 12.0557 20.1686 12.37L22.7398 23.3204L25.1273 12.37C25.2039 12.0392 25.2957 11.8241 25.4181 11.7249C25.5406 11.6256 25.7548 11.5595 26.0303 11.5595H27.2547C27.5455 11.5595 27.7445 11.6091 27.8669 11.7249C27.9893 11.8241 28.0965 12.0557 28.1577 12.37L30.5758 23.4527L33.2235 12.37C33.3154 12.0392 33.4225 11.8241 33.5296 11.7249C33.6521 11.6256 33.851 11.5595 34.1265 11.5595H35.5499C35.7947 11.5595 35.9325 11.6918 35.9325 11.973C35.9325 12.0557 35.9172 12.1384 35.9019 12.2377C35.8866 12.3369 35.8559 12.4692 35.7947 12.6512L32.1063 25.4377C32.0145 25.7685 31.9073 25.9835 31.7849 26.0828C31.6625 26.182 31.4635 26.2482 31.2033 26.2482H29.8871C29.5963 26.2482 29.3974 26.1986 29.2749 26.0828C29.1525 25.967 29.0454 25.7519 28.9841 25.4211L26.6119 14.7519L24.255 25.4046C24.1785 25.7354 24.0866 25.9504 23.9642 26.0662C23.8418 26.182 23.6275 26.2316 23.352 26.2316H22.0358ZM41.7023 26.6783C40.9065 26.6783 40.1107 26.579 39.3454 26.3805C38.5802 26.182 37.9833 25.967 37.5854 25.7189C37.3405 25.57 37.1722 25.4046 37.1109 25.2557C37.0497 25.1068 37.0191 24.9414 37.0191 24.7925V23.9489C37.0191 23.6016 37.1415 23.4362 37.3711 23.4362C37.4629 23.4362 37.5548 23.4527 37.6466 23.4858C37.7384 23.5189 37.8762 23.585 38.0292 23.6512C38.5496 23.8993 39.1158 24.0978 39.7127 24.2301C40.3249 24.3625 40.9218 24.4286 41.534 24.4286C42.4982 24.4286 43.2481 24.2467 43.7685 23.8828C44.2888 23.5189 44.5643 22.9895 44.5643 22.3113C44.5643 21.8482 44.4266 21.4677 44.1511 21.1535C43.8756 20.8392 43.3553 20.558 42.6053 20.2933L40.3861 19.5489C39.2689 19.1685 38.4424 18.6061 37.9374 17.8617C37.4323 17.1339 37.1721 16.3234 37.1721 15.4632C37.1721 14.7685 37.3099 14.1565 37.5854 13.6271C37.8609 13.0978 38.2282 12.6347 38.6873 12.2707C39.1465 11.8903 39.6668 11.6091 40.279 11.4106C40.8912 11.2121 41.534 11.1294 42.2074 11.1294C42.5441 11.1294 42.8961 11.1459 43.2328 11.1956C43.5848 11.2452 43.9062 11.3113 44.2276 11.3775C44.5337 11.4602 44.8245 11.5429 45.1 11.6422C45.3755 11.7414 45.5897 11.8407 45.7428 11.9399C45.9571 12.0723 46.1101 12.2046 46.2019 12.3535C46.2938 12.4858 46.3397 12.6677 46.3397 12.8993V13.6768C46.3397 14.0241 46.2172 14.2061 45.9877 14.2061C45.8652 14.2061 45.6663 14.1399 45.4061 14.0076C44.5337 13.5775 43.5542 13.3625 42.4676 13.3625C41.5952 13.3625 40.9065 13.5113 40.4321 13.8256C39.9576 14.1399 39.7127 14.6196 39.7127 15.2978C39.7127 15.761 39.8658 16.158 40.1719 16.4723C40.478 16.7865 41.0442 17.1008 41.8554 17.382L44.0287 18.1264C45.1306 18.5068 45.9264 19.0362 46.4009 19.7144C46.8753 20.3925 47.1049 21.17 47.1049 22.0301C47.1049 22.7414 46.9672 23.3865 46.707 23.9489C46.4315 24.5113 46.0642 25.0076 45.5897 25.4046C45.1153 25.8181 44.549 26.1159 43.8909 26.3309C43.2022 26.5625 42.4829 26.6783 41.7023 26.6783Z" fill="#252F3E"/>
<path fill-rule="evenodd" clip-rule="evenodd" d="M44.5943 34.7173C39.5591 38.7369 32.2434 40.8707 25.9532 40.8707C17.1377 40.8707 9.19452 37.3474 3.19507 31.4918C2.72063 31.0286 3.14916 30.4 3.71543 30.764C10.2046 34.8331 18.209 37.2978 26.4888 37.2978C32.0751 37.2978 38.2122 36.0407 43.8597 33.4602C44.7014 33.0467 45.4208 34.0557 44.5943 34.7173Z" fill="#FF9900"/>
<path fill-rule="evenodd" clip-rule="evenodd" d="M46.6914 32.1368C46.0486 31.2436 42.4367 31.7068 40.7991 31.9218C40.3093 31.988 40.2328 31.5248 40.6766 31.1774C43.5539 28.994 48.2831 29.6226 48.834 30.3504C49.385 31.0947 48.681 36.206 45.9874 38.6541C45.5741 39.0346 45.1762 38.8361 45.3599 38.3398C45.9721 36.7022 47.3342 33.0135 46.6914 32.1368Z" fill="#FF9900"/>
</g>
<defs>
<clipPath id="clip0">
<rect x="2.73633" y="10.9473" width="46.5263" height="30.1053" fill="white"/>
</clipPath>
</defs>
</svg>
