<svg width="52" height="53" viewBox="0 0 52 53" fill="none" xmlns="http://www.w3.org/2000/svg">
<g clip-path="url(#clip0)">
<path d="M14.275 33.5883L6.8418 26.213L30.9773 2.26758H45.8418L14.275 33.5883ZM45.8418 24.3644H30.9773L25.4092 29.889L32.8424 37.2643" fill="#42A5F5" fill-opacity="0.8"/>
<path d="M25.4092 44.6375L30.9773 50.1622H45.8417L32.8424 37.2642" fill="#0D47A1"/>
<path d="M17.9941 37.2679L25.4157 29.9023L32.8372 37.266L25.4157 44.6316L17.9941 37.2679Z" fill="#42A5F5"/>
<path d="M25.415 44.6317L32.8366 37.2681L33.8725 38.296L26.451 45.6596L25.415 44.6317Z" fill="url(#paint0_linear)"/>
<path d="M25.4092 44.6375L36.438 40.8569L32.8424 37.2622" fill="url(#paint1_linear)"/>
</g>
<defs>
<linearGradient id="paint0_linear" x1="29.1272" y1="40.9485" x2="30.1551" y2="41.9845" gradientUnits="userSpaceOnUse">
<stop offset="0.2" stop-opacity="0.15"/>
<stop offset="0.85" stop-color="#616161" stop-opacity="0.01"/>
</linearGradient>
<linearGradient id="paint1_linear" x1="25.4118" y1="40.9501" x2="36.4405" y2="40.9501" gradientUnits="userSpaceOnUse">
<stop offset="0.2" stop-opacity="0.55"/>
<stop offset="0.85" stop-color="#616161" stop-opacity="0.01"/>
</linearGradient>
<clipPath id="clip0">
<rect x="6.8418" y="2.26758" width="39" height="47.8947" fill="white"/>
</clipPath>
</defs>
</svg>
