<svg width="53" height="30" viewBox="0 0 53 30" fill="none" xmlns="http://www.w3.org/2000/svg">
<path d="M3.9997 9.08527C3.89648 9.08527 3.87068 9.00703 3.92229 8.88966L4.46419 7.83331C4.5158 7.71594 4.64482 7.6377 4.74804 7.6377H13.9604C14.0636 7.6377 14.0894 7.75507 14.0378 7.87244L13.5991 8.88966C13.5475 9.00703 13.4185 9.1244 13.341 9.1244L3.9997 9.08527Z" fill="#00ACD7"/>
<path d="M0.103219 12.682C2.15332e-07 12.682 -0.0258049 12.6037 0.0258047 12.4863L0.567706 11.43C0.619316 11.3126 0.74834 11.2344 0.851559 11.2344H12.6186C12.7218 11.2344 12.7734 11.3517 12.7476 11.4691L12.5411 12.4081C12.5153 12.5646 12.4121 12.6428 12.3089 12.6428L0.103219 12.682Z" fill="#00ACD7"/>
<path d="M6.34809 16.2786C6.24487 16.2786 6.21907 16.1613 6.27068 16.0439L6.63195 15.0658C6.68356 14.9484 6.78677 14.8311 6.88999 14.8311H12.051C12.1542 14.8311 12.2058 14.9484 12.2058 15.1049L12.1542 16.0439C12.1542 16.2004 12.051 16.3177 11.9735 16.3177L6.34809 16.2786Z" fill="#00ACD7"/>
<path d="M33.1333 8.3803C31.5076 9.00587 30.398 9.47503 28.7981 10.1006C28.411 10.257 28.3852 10.2961 28.0497 9.70962C27.6627 9.04496 27.3788 8.61489 26.8369 8.22391C25.2112 7.01189 23.6371 7.36377 22.1662 8.81038C20.4115 10.5307 19.5083 13.072 19.5342 16.2389C19.56 19.3667 20.9792 21.9472 23.0178 22.3772C24.7725 22.7291 26.2434 21.7908 27.4046 19.7968C27.6369 19.3667 27.8433 18.8976 28.1014 18.3502C27.1724 18.3502 26.0112 18.3502 23.121 18.3502C22.5791 18.3502 22.4501 17.8419 22.6307 17.1773C22.9662 15.9652 23.5855 13.9322 23.9468 12.9156C24.0242 12.681 24.2048 12.2901 24.5919 12.2901C25.9079 12.2901 30.7592 12.2901 33.9849 12.2901C33.9332 13.3457 33.9332 14.4013 33.83 15.457C33.5462 18.272 32.8494 20.8524 31.714 23.1201C29.8561 26.8344 27.4304 29.1411 24.3597 29.7667C21.8308 30.2749 19.4825 29.5321 17.4182 27.1862C15.5086 24.9968 14.4248 22.1035 14.1409 18.5066C13.8055 14.2449 14.6312 10.4134 16.3344 7.05099C18.1665 3.41491 20.5922 1.10815 23.5597 0.287104C25.9854 -0.377555 28.3078 0.0525189 30.398 2.20289C31.7656 3.5713 32.7462 5.44798 33.3913 7.71564C33.5462 8.06752 33.443 8.26301 33.1333 8.3803Z" fill="#00ACD7"/>
<path d="M41.6749 30.0003C39.3267 29.9221 37.1849 28.9056 35.3785 26.5597C33.8561 24.5657 32.9013 22.0244 32.5916 19.0139C32.1271 14.5959 32.9271 10.6861 34.6818 7.20642C36.5656 3.45306 38.8364 1.49818 41.9072 0.677127C44.5393 -0.0266296 47.0165 0.364345 49.2615 2.6711C51.3001 4.78237 52.5646 7.63649 52.9 11.3899C53.3387 16.668 52.3323 20.9688 49.9325 24.6439C48.2293 27.2635 46.1392 28.9056 43.7393 29.6484C43.0426 29.8439 42.3458 29.883 41.6749 30.0003ZM47.8165 14.2049C47.7907 13.6966 47.7907 13.3056 47.7391 12.9147C47.2746 9.04401 44.9263 6.85454 42.4749 7.71469C40.075 8.53574 38.5267 10.8425 37.959 14.5177C37.4945 17.5673 38.4751 20.656 40.3331 21.9071C41.7523 22.8454 43.1716 22.7282 44.5393 21.6725C46.5778 20.0695 47.6874 17.5673 47.8165 14.2049Z" fill="#00ACD7"/>
</svg>
