<svg width="52" height="52" viewBox="0 0 52 52" fill="none" xmlns="http://www.w3.org/2000/svg">
<g clip-path="url(#clip0)">
<path d="M52 26.3472C52 22.9371 47.6861 19.7054 41.0722 17.7013C42.5985 11.028 41.9201 5.71877 38.9311 4.01898C38.2422 3.62026 37.4366 3.43139 36.5569 3.43139V5.77124C37.0444 5.77124 37.4366 5.86567 37.7652 6.04404C39.2067 6.86247 39.832 9.97876 39.3445 13.9869C39.2279 14.9732 39.0371 16.012 38.8039 17.0718C36.7265 16.5681 34.4582 16.1799 32.0734 15.9281C30.6425 13.9869 29.1586 12.2242 27.6641 10.6818C31.1194 7.50251 34.3628 5.76075 36.5675 5.76075V3.4209C33.6527 3.4209 29.8369 5.47745 25.9788 9.04492C22.1207 5.49843 18.3049 3.46287 15.3901 3.46287V5.80272C17.5842 5.80272 20.8382 7.53399 24.2935 10.6923C22.8096 12.2347 21.3257 13.9869 19.916 15.9281C17.5206 16.1799 15.2523 16.5681 13.1749 17.0822C12.9311 16.033 12.7509 15.0152 12.6237 14.0394C12.1256 10.0312 12.7403 6.91493 14.1712 6.08602C14.4892 5.89715 14.9026 5.81321 15.3901 5.81321V3.47336C14.4998 3.47336 13.6943 3.66223 12.9947 4.06095C10.0163 5.76075 9.34855 11.0595 10.8854 17.7118C4.2927 19.7264 0 22.9476 0 26.3472C0 29.7573 4.3139 32.989 10.9278 34.9931C9.40155 41.6664 10.0799 46.9756 13.0689 48.6754C13.7578 49.0741 14.5634 49.263 15.4537 49.263C18.3685 49.263 22.1843 47.2065 26.0424 43.639C29.9005 47.1855 33.7163 49.221 36.6311 49.221C37.5214 49.221 38.327 49.0322 39.0265 48.6334C42.0049 46.9337 42.6726 41.6349 41.1357 34.9826C47.7073 32.9785 52 29.7468 52 26.3472ZM38.1998 19.3486C37.8076 20.7022 37.32 22.0977 36.7689 23.4932C36.3343 22.6538 35.8785 21.8144 35.3804 20.975C34.8928 20.1356 34.3734 19.3172 33.8541 18.5197C35.3592 18.7401 36.8112 19.0129 38.1998 19.3486ZM33.3453 30.5232C32.5185 31.9397 31.6706 33.2828 30.7909 34.5314C29.2116 34.6678 27.6111 34.7413 26 34.7413C24.3995 34.7413 22.799 34.6678 21.2303 34.5419C20.3506 33.2933 19.4921 31.9607 18.6653 30.5547C17.8598 29.1802 17.1284 27.7847 16.4607 26.3787C17.1178 24.9727 17.8598 23.5667 18.6547 22.1921C19.4815 20.7756 20.3294 19.4326 21.2091 18.184C22.7884 18.0476 24.3889 17.9741 26 17.9741C27.6005 17.9741 29.201 18.0476 30.7697 18.1735C31.6494 19.4221 32.5079 20.7547 33.3347 22.1607C34.1402 23.5352 34.8716 24.9307 35.5393 26.3367C34.8716 27.7427 34.1402 29.1487 33.3453 30.5232ZM36.7689 29.1592C37.3412 30.5652 37.8288 31.9712 38.2316 33.3353C36.8431 33.671 35.3804 33.9543 33.8647 34.1747C34.384 33.3667 34.9034 32.5378 35.391 31.6879C35.8785 30.8485 36.3343 29.9986 36.7689 29.1592ZM26.0212 40.3548C25.0355 39.3475 24.0497 38.2248 23.0746 36.9972C24.0285 37.0391 25.0037 37.0706 25.9894 37.0706C26.9857 37.0706 27.9715 37.0496 28.936 36.9972C27.9821 38.2248 26.9963 39.3475 26.0212 40.3548ZM18.1353 34.1747C16.6302 33.9543 15.1781 33.6815 13.7896 33.3458C14.1818 31.9922 14.6694 30.5967 15.2205 29.2012C15.6551 30.0406 16.1109 30.88 16.6091 31.7194C17.1072 32.5588 17.616 33.3772 18.1353 34.1747ZM25.9682 12.3396C26.9539 13.3469 27.9397 14.4696 28.9148 15.6972C27.9609 15.6553 26.9857 15.6238 26 15.6238C25.0037 15.6238 24.0179 15.6448 23.0534 15.6972C24.0073 14.4696 24.9931 13.3469 25.9682 12.3396ZM18.1247 18.5197C17.6054 19.3277 17.086 20.1566 16.5985 21.0065C16.1109 21.8459 15.6551 22.6853 15.2205 23.5247C14.6482 22.1187 14.1606 20.7127 13.7578 19.3486C15.1464 19.0234 16.6091 18.7401 18.1247 18.5197ZM8.53241 31.6564C4.78027 30.0721 2.35304 27.9945 2.35304 26.3472C2.35304 24.6999 4.78027 22.6118 8.53241 21.0379C9.44395 20.6497 10.4403 20.3035 11.4684 19.9782C12.0726 22.0347 12.8675 24.1752 13.8532 26.3682C12.8781 28.5506 12.0938 30.6806 11.5002 32.7267C10.4509 32.4014 9.45455 32.0447 8.53241 31.6564ZM14.2348 46.6504C12.7933 45.8319 12.168 42.7156 12.6555 38.7075C12.7721 37.7212 12.9629 36.6824 13.1961 35.6226C15.2735 36.1263 17.5418 36.5145 19.9266 36.7663C21.3575 38.7075 22.8414 40.4702 24.3359 42.0126C20.8806 45.1919 17.6372 46.9337 15.4325 46.9337C14.9556 46.9232 14.5528 46.8287 14.2348 46.6504ZM39.3763 38.655C39.8744 42.6632 39.2597 45.7795 37.8288 46.6084C37.5108 46.7972 37.0974 46.8812 36.6099 46.8812C34.4158 46.8812 31.1618 45.1499 27.7065 41.9916C29.1904 40.4492 30.6743 38.697 32.084 36.7558C34.4794 36.504 36.7477 36.1158 38.8251 35.6017C39.0689 36.6614 39.2597 37.6792 39.3763 38.655ZM43.457 31.6564C42.5455 32.0447 41.5491 32.3909 40.521 32.7162C39.9168 30.6597 39.1219 28.5192 38.1362 26.3262C39.1113 24.1438 39.8956 22.0138 40.4892 19.9677C41.5385 20.293 42.5349 20.6497 43.4676 21.0379C47.2197 22.6223 49.647 24.6999 49.647 26.3472C49.6364 27.9945 47.2091 30.0826 43.457 31.6564Z" fill="#61DAFB"/>
<path d="M25.9894 31.1425C28.6646 31.1425 30.8332 28.9956 30.8332 26.3474C30.8332 23.6991 28.6646 21.5522 25.9894 21.5522C23.3142 21.5522 21.1455 23.6991 21.1455 26.3474C21.1455 28.9956 23.3142 31.1425 25.9894 31.1425Z" fill="#61DAFB"/>
</g>
<defs>
<clipPath id="clip0">
<rect width="52" height="52" fill="white"/>
</clipPath>
</defs>
</svg>
