<svg width="467" height="289" viewBox="0 0 467 289" fill="none" xmlns="http://www.w3.org/2000/svg">
<rect x="1" y="1" width="465" height="286.691" rx="4" fill="white" stroke="#C4C4C4" stroke-width="2"/>
<rect y="25.4727" width="467" height="1.69818" fill="#C4C4C4"/>
<rect x="94.3999" y="6.09448" width="281.596" height="14.9818" rx="2" stroke="#C4C4C4" stroke-width="2"/>
<circle cx="22.9256" cy="13.5855" r="4.94364" stroke="#C4C4C4" stroke-width="2"/>
<circle cx="39.0581" cy="13.5855" r="4.94364" stroke="#C4C4C4" stroke-width="2"/>
<circle cx="55.191" cy="13.5855" r="4.94364" stroke="#C4C4C4" stroke-width="2"/>
<g clip-path="url(#clip0)">
<path d="M125 125.425L151.046 116.691L177.792 125.27L173.462 157.703L151.046 169.388L128.98 157.858L125 125.425Z" fill="#E23237"/>
<path d="M177.794 125.27L151.047 116.691V169.388L173.463 157.723L177.794 125.27Z" fill="#B52E31"/>
<path d="M151.088 122.691L134.859 156.677L140.921 156.58L144.18 148.913H158.739L162.307 156.677L168.101 156.774L151.088 122.691ZM151.129 133.58L156.615 144.371H146.304L151.129 133.58Z" fill="white"/>
</g>
<path d="M259 144.038C259 140.628 254.686 137.396 248.072 135.392C249.599 128.719 248.92 123.41 245.931 121.71C245.242 121.311 244.437 121.122 243.557 121.122V123.462C244.044 123.462 244.437 123.557 244.765 123.735C246.207 124.553 246.832 127.67 246.345 131.678C246.228 132.664 246.037 133.703 245.804 134.763C243.727 134.259 241.458 133.871 239.073 133.619C237.642 131.678 236.159 129.915 234.664 128.373C238.119 125.193 241.363 123.452 243.568 123.452V121.112C240.653 121.112 236.837 123.168 232.979 126.736C229.121 123.189 225.305 121.154 222.39 121.154V123.494C224.584 123.494 227.838 125.225 231.294 128.383C229.81 129.926 228.326 131.678 226.916 133.619C224.521 133.871 222.252 134.259 220.175 134.773C219.931 133.724 219.751 132.706 219.624 131.73C219.126 127.722 219.74 124.606 221.171 123.777C221.489 123.588 221.903 123.504 222.39 123.504V121.164C221.5 121.164 220.694 121.353 219.995 121.752C217.016 123.452 216.349 128.75 217.885 135.403C211.293 137.417 207 140.639 207 144.038C207 147.448 211.314 150.68 217.928 152.684C216.402 159.357 217.08 164.667 220.069 166.366C220.758 166.765 221.563 166.954 222.454 166.954C225.368 166.954 229.184 164.897 233.042 161.33C236.901 164.876 240.716 166.912 243.631 166.912C244.521 166.912 245.327 166.723 246.027 166.324C249.005 164.625 249.673 159.326 248.136 152.674C254.707 150.669 259 147.438 259 144.038ZM245.2 137.04C244.808 138.393 244.32 139.789 243.769 141.184C243.334 140.345 242.879 139.505 242.38 138.666C241.893 137.827 241.373 137.008 240.854 136.211C242.359 136.431 243.811 136.704 245.2 137.04ZM240.345 148.214C239.518 149.631 238.671 150.974 237.791 152.222C236.212 152.359 234.611 152.432 233 152.432C231.4 152.432 229.799 152.359 228.23 152.233C227.351 150.984 226.492 149.652 225.665 148.246C224.86 146.871 224.128 145.476 223.461 144.07C224.118 142.664 224.86 141.258 225.655 139.883C226.481 138.467 227.329 137.124 228.209 135.875C229.788 135.739 231.389 135.665 233 135.665C234.6 135.665 236.201 135.739 237.77 135.864C238.649 137.113 239.508 138.446 240.335 139.852C241.14 141.226 241.872 142.622 242.539 144.028C241.872 145.434 241.14 146.84 240.345 148.214ZM243.769 146.85C244.341 148.256 244.829 149.662 245.232 151.026C243.843 151.362 242.38 151.645 240.865 151.866C241.384 151.058 241.903 150.229 242.391 149.379C242.878 148.539 243.334 147.69 243.769 146.85ZM233.021 158.046C232.036 157.038 231.05 155.916 230.075 154.688C231.029 154.73 232.004 154.762 232.989 154.762C233.986 154.762 234.972 154.741 235.936 154.688C234.982 155.916 233.996 157.038 233.021 158.046ZM225.135 151.866C223.63 151.645 222.178 151.372 220.79 151.037C221.182 149.683 221.669 148.288 222.22 146.892C222.655 147.732 223.111 148.571 223.609 149.41C224.107 150.25 224.616 151.068 225.135 151.866ZM232.968 130.031C233.954 131.038 234.94 132.161 235.915 133.388C234.961 133.346 233.986 133.315 233 133.315C232.004 133.315 231.018 133.336 230.053 133.388C231.007 132.161 231.993 131.038 232.968 130.031ZM225.125 136.211C224.605 137.019 224.086 137.848 223.598 138.697C223.111 139.537 222.655 140.376 222.22 141.216C221.648 139.81 221.161 138.404 220.758 137.04C222.146 136.714 223.609 136.431 225.125 136.211ZM215.532 149.347C211.78 147.763 209.353 145.685 209.353 144.038C209.353 142.391 211.78 140.303 215.532 138.729C216.444 138.341 217.44 137.994 218.468 137.669C219.073 139.726 219.867 141.866 220.853 144.059C219.878 146.242 219.094 148.372 218.5 150.418C217.451 150.092 216.455 149.736 215.532 149.347ZM221.235 164.341C219.793 163.523 219.168 160.407 219.656 156.398C219.772 155.412 219.963 154.373 220.196 153.314C222.274 153.817 224.542 154.205 226.927 154.457C228.357 156.398 229.841 158.161 231.336 159.704C227.881 162.883 224.637 164.625 222.432 164.625C221.956 164.614 221.553 164.52 221.235 164.341ZM246.376 156.346C246.874 160.354 246.26 163.47 244.829 164.299C244.511 164.488 244.097 164.572 243.61 164.572C241.416 164.572 238.162 162.841 234.706 159.683C236.19 158.14 237.674 156.388 239.084 154.447C241.479 154.195 243.748 153.807 245.825 153.293C246.069 154.352 246.26 155.37 246.376 156.346ZM250.457 149.347C249.546 149.736 248.549 150.082 247.521 150.407C246.917 148.351 246.122 146.21 245.136 144.017C246.111 141.835 246.896 139.705 247.489 137.659C248.539 137.984 249.535 138.341 250.468 138.729C254.22 140.313 256.647 142.391 256.647 144.038C256.636 145.685 254.209 147.774 250.457 149.347Z" fill="#61DAFB"/>
<path d="M232.989 148.833C235.665 148.833 237.833 146.687 237.833 144.038C237.833 141.39 235.665 139.243 232.989 139.243C230.314 139.243 228.146 141.39 228.146 144.038C228.146 146.687 230.314 148.833 232.989 148.833Z" fill="#61DAFB"/>
<g clip-path="url(#clip1)">
<path d="M331.083 117.691L323 129.932L314.917 117.691H288L323 170.691L358 117.691H331.083Z" fill="#4DBA87"/>
<path d="M331.083 117.691L323 129.932L314.916 117.691H302.002L323 149.49L343.998 117.691H331.083Z" fill="#425466"/>
</g>
<path d="M134.508 192.949H130.912L130.229 195H128.048L131.753 185.047H133.653L137.379 195H135.198L134.508 192.949ZM131.466 191.288H133.954L132.703 187.562L131.466 191.288ZM139.669 187.604L139.73 188.458C140.259 187.797 140.968 187.467 141.856 187.467C142.64 187.467 143.224 187.697 143.606 188.157C143.989 188.618 144.185 189.306 144.194 190.222V195H142.219V190.27C142.219 189.85 142.128 189.547 141.945 189.36C141.763 189.169 141.46 189.073 141.036 189.073C140.48 189.073 140.063 189.31 139.785 189.784V195H137.81V187.604H139.669ZM145.411 191.247C145.411 190.112 145.68 189.199 146.218 188.506C146.76 187.813 147.489 187.467 148.405 187.467C149.216 187.467 149.848 187.745 150.299 188.301L150.381 187.604H152.172V194.754C152.172 195.401 152.024 195.964 151.728 196.442C151.436 196.921 151.023 197.285 150.49 197.536C149.957 197.787 149.333 197.912 148.617 197.912C148.075 197.912 147.546 197.803 147.031 197.584C146.516 197.37 146.127 197.092 145.862 196.75L146.737 195.547C147.229 196.098 147.826 196.374 148.528 196.374C149.052 196.374 149.46 196.233 149.752 195.95C150.044 195.672 150.189 195.276 150.189 194.761V194.364C149.734 194.879 149.134 195.137 148.392 195.137C147.503 195.137 146.783 194.79 146.231 194.098C145.685 193.4 145.411 192.478 145.411 191.329V191.247ZM147.387 191.391C147.387 192.061 147.521 192.587 147.79 192.97C148.059 193.348 148.428 193.537 148.897 193.537C149.499 193.537 149.93 193.312 150.189 192.86V189.75C149.925 189.299 149.499 189.073 148.911 189.073C148.437 189.073 148.063 189.267 147.79 189.654C147.521 190.042 147.387 190.62 147.387 191.391ZM158.126 194.248C157.638 194.84 156.964 195.137 156.103 195.137C155.31 195.137 154.703 194.909 154.284 194.453C153.869 193.997 153.658 193.33 153.648 192.45V187.604H155.624V192.382C155.624 193.152 155.975 193.537 156.677 193.537C157.347 193.537 157.807 193.305 158.058 192.84V187.604H160.04V195H158.181L158.126 194.248ZM163.615 195H161.633V184.5H163.615V195ZM169.535 195C169.444 194.822 169.378 194.601 169.337 194.337C168.858 194.87 168.236 195.137 167.471 195.137C166.746 195.137 166.145 194.927 165.666 194.508C165.192 194.089 164.955 193.56 164.955 192.922C164.955 192.138 165.244 191.536 165.823 191.117C166.407 190.698 167.247 190.486 168.346 190.481H169.255V190.058C169.255 189.716 169.166 189.442 168.988 189.237C168.815 189.032 168.539 188.93 168.161 188.93C167.828 188.93 167.566 189.009 167.375 189.169C167.188 189.328 167.095 189.547 167.095 189.825H165.119C165.119 189.397 165.251 189 165.516 188.636C165.78 188.271 166.154 187.986 166.637 187.781C167.12 187.572 167.662 187.467 168.264 187.467C169.175 187.467 169.897 187.697 170.431 188.157C170.968 188.613 171.237 189.256 171.237 190.085V193.291C171.242 193.993 171.34 194.524 171.531 194.884V195H169.535ZM167.901 193.626C168.193 193.626 168.462 193.562 168.708 193.435C168.954 193.302 169.136 193.127 169.255 192.908V191.637H168.517C167.528 191.637 167.001 191.979 166.938 192.662L166.931 192.778C166.931 193.024 167.017 193.227 167.19 193.387C167.364 193.546 167.601 193.626 167.901 193.626ZM176.911 189.456C176.642 189.42 176.405 189.401 176.2 189.401C175.453 189.401 174.963 189.654 174.73 190.16V195H172.755V187.604H174.621L174.676 188.485C175.072 187.806 175.621 187.467 176.323 187.467C176.542 187.467 176.747 187.496 176.938 187.556L176.911 189.456Z" fill="black"/>
<path d="M221.573 191.356H219.939V195H217.889V185.047H221.587C222.763 185.047 223.67 185.309 224.308 185.833C224.946 186.357 225.265 187.098 225.265 188.055C225.265 188.734 225.117 189.301 224.82 189.757C224.529 190.208 224.084 190.568 223.487 190.837L225.641 194.904V195H223.439L221.573 191.356ZM219.939 189.695H221.594C222.109 189.695 222.507 189.565 222.79 189.306C223.073 189.041 223.214 188.679 223.214 188.219C223.214 187.749 223.079 187.38 222.811 187.111C222.546 186.842 222.138 186.708 221.587 186.708H219.939V189.695ZM230.104 195.137C229.02 195.137 228.136 194.804 227.452 194.139C226.773 193.473 226.434 192.587 226.434 191.479V191.288C226.434 190.545 226.577 189.882 226.864 189.299C227.151 188.711 227.557 188.26 228.081 187.945C228.61 187.626 229.211 187.467 229.886 187.467C230.897 187.467 231.693 187.786 232.271 188.424C232.855 189.062 233.146 189.966 233.146 191.138V191.944H228.437C228.5 192.427 228.692 192.815 229.011 193.106C229.334 193.398 229.742 193.544 230.234 193.544C230.995 193.544 231.59 193.268 232.019 192.717L232.989 193.804C232.693 194.223 232.292 194.551 231.786 194.788C231.28 195.021 230.72 195.137 230.104 195.137ZM229.879 189.066C229.487 189.066 229.168 189.199 228.922 189.463C228.68 189.727 228.525 190.105 228.457 190.598H231.205V190.44C231.196 190.003 231.077 189.666 230.85 189.429C230.622 189.187 230.298 189.066 229.879 189.066ZM238.561 195C238.469 194.822 238.403 194.601 238.362 194.337C237.884 194.87 237.262 195.137 236.496 195.137C235.771 195.137 235.17 194.927 234.691 194.508C234.217 194.089 233.98 193.56 233.98 192.922C233.98 192.138 234.27 191.536 234.849 191.117C235.432 190.698 236.273 190.486 237.371 190.481H238.28V190.058C238.28 189.716 238.191 189.442 238.014 189.237C237.84 189.032 237.565 188.93 237.187 188.93C236.854 188.93 236.592 189.009 236.4 189.169C236.214 189.328 236.12 189.547 236.12 189.825H234.145C234.145 189.397 234.277 189 234.541 188.636C234.805 188.271 235.179 187.986 235.662 187.781C236.145 187.572 236.688 187.467 237.289 187.467C238.201 187.467 238.923 187.697 239.456 188.157C239.994 188.613 240.263 189.256 240.263 190.085V193.291C240.267 193.993 240.365 194.524 240.557 194.884V195H238.561ZM236.927 193.626C237.218 193.626 237.487 193.562 237.733 193.435C237.979 193.302 238.162 193.127 238.28 192.908V191.637H237.542C236.553 191.637 236.027 191.979 235.963 192.662L235.956 192.778C235.956 193.024 236.043 193.227 236.216 193.387C236.389 193.546 236.626 193.626 236.927 193.626ZM244.856 193.544C245.221 193.544 245.517 193.444 245.745 193.243C245.973 193.043 246.091 192.776 246.101 192.443H247.953C247.949 192.945 247.812 193.405 247.543 193.824C247.274 194.239 246.905 194.562 246.436 194.795C245.971 195.023 245.456 195.137 244.891 195.137C243.833 195.137 242.999 194.802 242.389 194.132C241.778 193.457 241.473 192.528 241.473 191.343V191.213C241.473 190.074 241.776 189.164 242.382 188.485C242.988 187.806 243.82 187.467 244.877 187.467C245.802 187.467 246.543 187.731 247.099 188.26C247.659 188.784 247.944 189.483 247.953 190.358H246.101C246.091 189.976 245.973 189.666 245.745 189.429C245.517 189.187 245.216 189.066 244.843 189.066C244.382 189.066 244.034 189.235 243.797 189.572C243.564 189.905 243.448 190.447 243.448 191.199V191.404C243.448 192.165 243.564 192.712 243.797 193.045C244.029 193.378 244.382 193.544 244.856 193.544ZM251.446 185.785V187.604H252.711V189.053H251.446V192.744C251.446 193.018 251.499 193.214 251.604 193.332C251.708 193.451 251.909 193.51 252.205 193.51C252.424 193.51 252.618 193.494 252.786 193.462V194.959C252.399 195.077 252 195.137 251.59 195.137C250.204 195.137 249.498 194.437 249.471 193.038V189.053H248.391V187.604H249.471V185.785H251.446Z" fill="black"/>
<path d="M317.566 192.532L319.822 185.047H322.105L318.64 195H316.5L313.048 185.047H315.324L317.566 192.532ZM327.157 194.248C326.67 194.84 325.995 195.137 325.134 195.137C324.341 195.137 323.735 194.909 323.315 194.453C322.901 193.997 322.689 193.33 322.68 192.45V187.604H324.655V192.382C324.655 193.152 325.006 193.537 325.708 193.537C326.378 193.537 326.838 193.305 327.089 192.84V187.604H329.071V195H327.212L327.157 194.248ZM333.966 195.137C332.881 195.137 331.997 194.804 331.313 194.139C330.634 193.473 330.295 192.587 330.295 191.479V191.288C330.295 190.545 330.438 189.882 330.726 189.299C331.013 188.711 331.418 188.26 331.942 187.945C332.471 187.626 333.073 187.467 333.747 187.467C334.759 187.467 335.554 187.786 336.133 188.424C336.716 189.062 337.008 189.966 337.008 191.138V191.944H332.298C332.362 192.427 332.553 192.815 332.872 193.106C333.196 193.398 333.604 193.544 334.096 193.544C334.857 193.544 335.451 193.268 335.88 192.717L336.851 193.804C336.554 194.223 336.153 194.551 335.647 194.788C335.142 195.021 334.581 195.137 333.966 195.137ZM333.74 189.066C333.348 189.066 333.029 189.199 332.783 189.463C332.542 189.727 332.387 190.105 332.318 190.598H335.066V190.44C335.057 190.003 334.939 189.666 334.711 189.429C334.483 189.187 334.16 189.066 333.74 189.066Z" fill="black"/>
<defs>
<clipPath id="clip0">
<rect width="53" height="53" fill="white" transform="translate(125 117.691)"/>
</clipPath>
<clipPath id="clip1">
<rect width="70" height="53" fill="white" transform="translate(288 117.691)"/>
</clipPath>
</defs>
</svg>
