<svg width="143" height="24" viewBox="0 0 143 24" fill="none" xmlns="http://www.w3.org/2000/svg">
<mask id="mask0" mask-type="alpha" maskUnits="userSpaceOnUse" x="0" y="0" width="143" height="24">
<g clip-path="url(#clip0)">
<path d="M49.7861 5.43799V18.742H47.273V5.43799H49.7861Z" fill="#5A6E78"/>
<path d="M66.3998 18.742H63.3381C61.549 15.4172 59.5662 12.023 57.4912 8.72123V18.742H55.0381V5.43799H58.3304C60.2532 8.47151 62.1761 11.7917 63.9098 15.038V5.43799H66.3998V18.742Z" fill="#5A6E78"/>
<path d="M83.6269 11.9814C83.6269 17.4796 81.5335 19.0288 77.3236 19.0288C73.1136 19.0288 71.0063 17.4796 71.0063 11.9814C71.0063 6.58021 73.1182 5.13281 77.3236 5.13281C81.5289 5.13281 83.6269 6.56171 83.6269 11.9814ZM80.9617 12.023C80.9617 7.99524 80.2378 7.39871 77.3236 7.39871C74.4093 7.39871 73.69 7.99061 73.69 12.023C73.69 16.0554 74.414 16.7536 77.3236 16.7536C80.2332 16.7536 80.9617 16.0137 80.9617 12.0045V12.023Z" fill="#5A6E78"/>
<path d="M93.1027 9.82643C94.2094 8.28192 95.2746 6.75128 96.1507 5.43799H99.2309C97.8798 7.4218 96.2844 9.69232 94.6428 11.9628C96.4181 14.4276 98.2026 16.9247 99.443 18.742H96.3213C95.3668 17.3548 94.2647 15.7825 93.0935 14.1178C91.8577 15.7594 90.6773 17.3224 89.5706 18.742H86.4904C87.8 17.1004 89.7182 14.5802 91.5626 12.023C89.7551 9.57672 87.9245 7.1536 86.5734 5.43799H89.8012C90.7511 6.67729 91.8854 8.18481 93.1027 9.82643Z" fill="#5A6E78"/>
<path d="M114.918 11.9814C114.918 17.4796 112.82 19.0288 108.614 19.0288C104.409 19.0288 102.279 17.4611 102.279 11.9814C102.279 6.58021 104.391 5.13281 108.596 5.13281C112.801 5.13281 114.918 6.56171 114.918 11.9814ZM112.253 12.023C112.253 7.99524 111.529 7.39871 108.614 7.39871C105.7 7.39871 104.981 7.99061 104.981 12.023C104.981 16.0554 105.705 16.7536 108.614 16.7536C111.524 16.7536 112.253 16.0137 112.253 12.0045V12.023Z" fill="#5A6E78"/>
<path d="M128.963 5.43799V7.6114H122.047V11.3709H127.119V13.5305H122.047V18.742H119.534V5.43799H128.963Z" fill="#5A6E78"/>
<path d="M135.396 18.742V7.6114H130.923V5.43799H142.395V7.6114H137.923V18.742H135.396Z" fill="#5A6E78"/>
<path d="M26.0942 22.1547C27.1686 23.2691 27.5836 23.3107 28.6949 23.3107H35.3302C36.6213 23.3107 35.4409 22.5894 34.136 21.7431C31.1756 19.824 25.9051 15.1304 23.346 11.5142C22.9679 10.9824 22.4514 9.98357 22.7281 9.40554C23.0739 8.68415 20.4225 10.0807 19.8784 10.8252C19.1683 11.8102 19.4727 12.3281 19.9107 13.1373C21.9396 16.9339 22.6866 18.6125 26.0942 22.1547Z" fill="url(#paint0_linear)"/>
<g style="mix-blend-mode:multiply" opacity="0.1">
<path d="M23.6504 20.097C21.8798 16.6889 22.2671 13.2623 23.7196 11.2138C25.0107 9.41491 21.9674 9.66462 21.9674 9.66462C21.9674 9.66462 19.5604 10.9687 20.3489 13.6323C21.0753 15.9596 22.1918 18.1458 23.6504 20.097Z" fill="#231F20"/>
</g>
<g style="mix-blend-mode:multiply" opacity="0.15">
<path d="M23.3783 19.0521C22.3915 17.4058 20.7315 13.503 22.9448 10.7839C24.3282 9.06364 21.4508 10.1688 21.4508 10.1688C20.8438 10.5679 20.409 11.1816 20.2329 11.8878C20.0569 12.5939 20.1526 13.3407 20.5009 13.9792C21.2791 15.7672 22.2435 17.4676 23.3783 19.0521Z" fill="#231F20"/>
</g>
<path d="M25.6654 1.18844C26.7767 0.115607 27.164 0 28.2707 0H34.1775C35.4732 0 34.2513 0.864739 32.9878 1.7711C28.3352 5.10058 24.8861 7.78266 20.7592 12.5272C20.5755 12.7454 20.4551 13.01 20.4112 13.2922C20.3673 13.5744 20.4015 13.8632 20.5102 14.1272C20.7776 15.126 22.8157 18.1642 23.5535 19.5653C21.8002 17.2594 20.1836 14.8522 18.7118 12.3561C18.1078 11.2971 18.1585 10.9688 18.6611 10.0439C20.5521 6.76492 22.9119 3.78141 25.6654 1.18844Z" fill="url(#paint1_radial)"/>
<path style="mix-blend-mode:overlay" opacity="0.56" d="M25.6654 1.18844C26.7767 0.115607 27.164 0 28.2707 0H34.1775C35.4732 0 34.2513 0.864739 32.9878 1.7711C28.3352 5.10058 24.8861 7.78266 20.7592 12.5272C20.5755 12.7454 20.4551 13.01 20.4112 13.2922C20.3673 13.5744 20.4015 13.8632 20.5102 14.1272C20.7776 15.126 22.8157 18.1642 23.5535 19.5653C21.8002 17.2594 20.1836 14.8522 18.7118 12.3561C18.1078 11.2971 18.1585 10.9688 18.6611 10.0439C20.5521 6.76492 22.9119 3.78141 25.6654 1.18844Z" fill="url(#paint2_linear)"/>
<path style="mix-blend-mode:overlay" opacity="0.2" d="M33.8732 1.15625C31.5676 2.77012 25.5225 6.19209 20.5702 12.3008C20.1598 12.8094 19.7863 13.2765 21.1189 15.6441C21.2341 15.8522 22.0411 17.1979 20.7823 14.2198C20.6488 13.8871 20.6122 13.5232 20.6766 13.1704C20.7411 12.8176 20.9041 12.4904 21.1465 12.2268C25.3795 7.10307 29.0638 4.76319 33.8732 1.15625Z" fill="url(#paint3_linear)"/>
<path style="mix-blend-mode:overlay" opacity="0.3" d="M25.6654 1.18844C26.7767 0.115607 27.164 0 28.2707 0H34.1775C26.4769 2.47861 21.4001 6.67283 18.6611 10.0532C20.5514 6.7709 22.9112 3.78423 25.6654 1.18844Z" fill="url(#paint4_linear)"/>
<path d="M33.6564 1.83136C34.1452 1.47067 34.7032 0.989741 34.7493 0.777025V0.203613V0.272978C34.6478 0.57818 33.8547 1.19783 33.0247 1.77124C27.8464 5.47067 24.757 7.69494 20.6946 12.5689C20.2796 13.0684 20.3903 13.6973 20.5563 14.3169C20.6162 14.5435 21.7183 17.7481 25.7161 22.1042C26.7628 23.2464 27.3577 23.2926 28.4828 23.2926H28.8471C27.6805 23.2926 27.1548 23.1262 26.1173 21.9793C24.1437 19.8013 22.5022 17.7944 21.2572 14.821C20.9298 14.0395 21.022 13.5123 21.6399 12.74C24.3974 9.20708 28.6857 5.53078 33.6564 1.83136Z" fill="url(#paint5_linear)"/>
<path d="M35.879 23.1074C35.7084 23.3016 35.3395 23.26 35.1228 23.26H28.3583C27.2516 23.26 26.4032 22.5201 25.8083 22.2427C27.4407 24.0924 27.5744 23.9814 28.9347 23.9953C30.2949 24.0091 33.6611 23.9953 35.4502 23.9953C35.9943 24.0045 35.879 23.6947 35.879 23.1074Z" fill="url(#paint6_linear)"/>
<path style="mix-blend-mode:multiply" opacity="0.3" d="M20.7223 14.483C20.5563 13.8634 20.4548 13.216 20.8053 12.7905C24.3328 8.55007 27.4545 5.85412 33.0339 1.73389L32.9878 1.77088C27.8095 5.4703 24.7201 7.69458 20.6577 12.5686C20.2427 13.068 20.3534 13.6969 20.5194 14.3165C20.5747 14.5154 21.4416 17.0033 24.3328 20.5547C21.6814 17.1836 20.773 14.6772 20.7223 14.483Z" fill="url(#paint7_linear)"/>
<path style="mix-blend-mode:overlay" opacity="0.47" d="M26.0528 21.9653C24.2176 20.0476 22.6649 17.8769 21.4417 15.519C22.0549 16.8416 23.2308 18.9364 26.2925 22.363C27.1133 23.2878 27.6759 23.2601 28.2107 23.2601C27.3162 23.2 26.8136 22.8069 26.0528 21.9653Z" fill="url(#paint8_linear)"/>
<path d="M0.669289 0.883449C0.84451 0.693853 1.2134 0.726223 1.43012 0.726223H7.59516C8.54244 0.770824 9.44232 1.15478 10.1313 1.8083C8.67416 -0.115395 8.13005 0.00946067 7.01877 0.00946067H1.12579C0.577067 0.000212113 0.669289 0.273044 0.669289 0.883449Z" fill="url(#paint9_linear)"/>
<path d="M9.85853 1.85871C8.83948 0.69339 8.36915 0.702639 7.26248 0.702639H1.22655C-0.0645571 0.702639 1.29111 1.50726 2.52227 2.45987C6.13737 5.23443 9.97842 9.10495 12.2056 12.4992C12.5606 13.0448 13.0955 14.0252 12.8189 14.6032C12.473 15.3246 15.1244 13.9327 15.6685 13.1882C16.3786 12.1986 16.0743 11.6853 15.6362 10.8761C13.612 7.06102 11.9012 4.19397 9.85853 1.85871Z" fill="url(#paint10_linear)"/>
<g style="mix-blend-mode:multiply" opacity="0.05">
<path d="M11.9013 3.89844C13.6765 7.30653 13.2846 10.7331 11.8321 12.7817C10.541 14.5805 13.5843 14.3262 13.5843 14.3262C13.5843 14.3262 15.9913 13.0221 15.2028 10.3632C14.4764 8.03587 13.3599 5.84968 11.9013 3.89844Z" fill="#231F20"/>
</g>
<g style="mix-blend-mode:multiply" opacity="0.1">
<path d="M12.174 4.94336C13.1607 6.5896 14.8207 10.4925 12.6074 13.2162C11.2241 14.9272 14.106 13.8266 14.106 13.8266C14.7084 13.4233 15.1375 12.8077 15.3084 12.1018C15.4792 11.396 15.3792 10.6515 15.0282 10.0162C14.2574 8.22926 13.3007 6.5289 12.174 4.94336Z" fill="#231F20"/>
</g>
<path d="M9.89085 22.8071C8.77496 23.8799 8.38763 24.0048 7.29019 24.0048H0.571817C-0.723902 24.0048 0.498039 23.14 1.76148 22.2337C6.41408 18.9042 10.6655 16.2221 14.7924 11.4776C14.9778 11.2604 15.0997 10.9959 15.1444 10.7135C15.1892 10.4311 15.1552 10.1418 15.0461 9.8776C14.7786 8.87876 12.7405 5.84061 11.9981 4.43945C13.7522 6.74259 15.3704 9.1467 16.8444 11.6395C17.4438 12.6984 17.3931 13.0267 16.8951 13.9516C15.0008 17.2283 12.6413 20.2114 9.89085 22.8071Z" fill="url(#paint11_radial)"/>
<path style="mix-blend-mode:multiply" opacity="0.9" d="M9.89085 22.8071C8.77496 23.8799 8.38763 24.0048 7.29019 24.0048H0.571817C-0.723902 24.0048 0.498039 23.14 1.76148 22.2337C6.41408 18.9042 10.6655 16.2221 14.7924 11.4776C14.9778 11.2604 15.0997 10.9959 15.1444 10.7135C15.1892 10.4311 15.1552 10.1418 15.0461 9.8776C14.7786 8.87876 12.7405 5.84061 11.9981 4.43945C13.7522 6.74259 15.3704 9.1467 16.8444 11.6395C17.4438 12.6984 17.3931 13.0267 16.8951 13.9516C15.0008 17.2283 12.6413 20.2114 9.89085 22.8071Z" fill="url(#paint12_linear)"/>
<path style="mix-blend-mode:multiply" opacity="0.2" d="M0.871521 22.8346C3.17707 21.2253 10.1813 17.6554 15.0875 11.6808C15.5025 11.1768 15.7654 10.6358 14.2345 8.11089C14.1146 7.90743 13.5244 6.7976 14.7694 9.77101C14.9032 10.1045 14.9401 10.4691 14.8756 10.8227C14.8111 11.1763 14.648 11.5043 14.4051 11.7687C10.1721 16.8924 5.68551 19.2323 0.871521 22.8346Z" fill="url(#paint13_linear)"/>
<path style="mix-blend-mode:multiply" opacity="0.3" d="M9.89136 22.8069C8.77547 23.8797 8.38814 24.0046 7.2907 24.0046H0.572327C8.27286 21.526 14.152 17.3317 16.8956 13.9468C15.0016 17.2252 12.6422 20.2098 9.89136 22.8069Z" fill="url(#paint14_linear)"/>
<path d="M1.09283 22.1547C0.599444 22.5107 0.0414999 22.9963 0 23.209V23.7824V23.713C0.106055 23.4078 0.92222 22.7882 1.72916 22.2148C6.90743 18.5154 10.7992 16.2911 14.8616 11.4171C15.0708 11.1803 15.1974 10.8817 15.2224 10.5663C15.2473 10.2509 15.1693 9.93602 14.9999 9.66911C13.6791 6.91772 12.0749 4.31241 10.2136 1.8957C9.38359 0.785873 8.4752 0.702637 7.36854 0.702637H7.16104C8.32765 0.702637 9.00548 0.947723 9.95537 2.15466C11.6928 4.3104 13.1666 6.66706 14.3451 9.17431C14.7048 9.93732 14.6034 10.5616 13.9947 11.32C10.7623 15.4356 6.08665 18.5708 1.09283 22.1547Z" fill="url(#paint15_linear)"/>
<path style="mix-blend-mode:overlay" opacity="0.25" d="M14.8939 11.4267C15.1031 11.1899 15.2297 10.8913 15.2547 10.5759C15.2796 10.2606 15.2015 9.94563 15.0322 9.67872C13.9884 7.50896 12.7539 5.4368 11.3433 3.48682C13.944 7.48219 14.7832 9.43364 14.8431 9.61861C15.0184 10.1735 15.1429 10.7007 14.7279 11.2047C11.2834 15.3388 6.58005 18.6591 1.6969 22.2568L1.74301 22.2244C6.93972 18.5388 10.8315 16.3007 14.8939 11.4267Z" fill="url(#paint16_linear)"/>
</g>
</mask>
<g mask="url(#mask0)">
<rect x="-18.6318" y="-48" width="179.664" height="120" fill="#EDEDED"/>
</g>
<defs>
<linearGradient id="paint0_linear" x1="25.2688" y1="11.5235" x2="29.5598" y2="22.3359" gradientUnits="userSpaceOnUse">
<stop offset="0.01" stop-color="#5A6E78"/>
<stop offset="1" stop-color="#C3CDD2"/>
</linearGradient>
<radialGradient id="paint1_radial" cx="0" cy="0" r="1" gradientUnits="userSpaceOnUse" gradientTransform="translate(25.1305 9.78497) scale(10.7623 10.7931)">
<stop offset="0.27" stop-color="#50AADC"/>
<stop offset="1" stop-color="#0078AA"/>
</radialGradient>
<linearGradient id="paint2_linear" x1="20.5978" y1="15.0058" x2="29.8976" y2="3.77635" gradientUnits="userSpaceOnUse">
<stop stop-color="#00508C"/>
<stop offset="0.05" stop-color="#0078AA"/>
<stop offset="0.1" stop-color="white"/>
<stop offset="0.13" stop-color="#D0E8F6"/>
<stop offset="0.18" stop-color="#8CC7E8"/>zz
<stop offset="0.22" stop-color="#60B2DF"/>
<stop offset="0.24" stop-color="#50AADC"/>
<stop offset="0.42" stop-color="#58C2F8"/>
<stop offset="0.46" stop-color="#5AC8FF"/>
<stop offset="0.99" stop-color="#50AADC"/>
</linearGradient>
<linearGradient id="paint3_linear" x1="22.2763" y1="12.7354" x2="32.9218" y2="3.48461" gradientUnits="userSpaceOnUse">
<stop stop-color="white"/>
<stop offset="1" stop-color="#50AADC"/>
</linearGradient>
<linearGradient id="paint4_linear" x1="1615.45" y1="785.757" x2="1857.17" y2="456.384" gradientUnits="userSpaceOnUse">
<stop stop-color="white"/>
<stop offset="1" stop-color="#50AADC"/>
</linearGradient>
<linearGradient id="paint5_linear" x1="27.307" y1="5.00824" x2="29.6394" y2="22.8239" gradientUnits="userSpaceOnUse">
<stop offset="0.01" stop-color="#00508C"/>
<stop offset="0.34" stop-color="#0078AA"/>
<stop offset="1" stop-color="#5AC8FF"/>
</linearGradient>
<linearGradient id="paint6_linear" x1="27.6251" y1="23.1213" x2="36.4231" y2="23.1213" gradientUnits="userSpaceOnUse">
<stop offset="0.01" stop-color="#5AC8FF"/>
<stop offset="0.02" stop-color="#52C1F7"/>
<stop offset="0.04" stop-color="#3BACE2"/>
<stop offset="0.05" stop-color="#168CBF"/>
<stop offset="0.06" stop-color="#0078AA"/>
<stop offset="0.82" stop-color="#50AADC"/>
<stop offset="0.99" stop-color="#5AC8FF"/>
</linearGradient>
<linearGradient id="paint7_linear" x1="28.5242" y1="2.95007" x2="23.0796" y2="16.2617" gradientUnits="userSpaceOnUse">
<stop stop-color="#00508C"/>
<stop offset="1" stop-color="white"/>
</linearGradient>
<linearGradient id="paint8_linear" x1="805.777" y1="845.136" x2="726.72" y2="741.795" gradientUnits="userSpaceOnUse">
<stop stop-color="white"/>
<stop offset="1" stop-color="#50AADC"/>
</linearGradient>
<linearGradient id="paint9_linear" x1="8.74333" y1="0.901946" x2="0.480234" y2="0.901946" gradientUnits="userSpaceOnUse">
<stop stop-color="#0078AA"/>
<stop offset="0.05" stop-color="#5AC8FF"/>
<stop offset="0.06" stop-color="#62CBFF"/>
<stop offset="0.07" stop-color="#79D2FF"/>
<stop offset="0.08" stop-color="#9EDFFF"/>
<stop offset="0.09" stop-color="#B0E5FF"/>
<stop offset="0.99" stop-color="#5AC8FF"/>
</linearGradient>
<linearGradient id="paint10_linear" x1="1051.89" y1="811.849" x2="1282.69" y2="1286.03" gradientUnits="userSpaceOnUse">
<stop offset="0.01" stop-color="#5A6E78"/>
<stop offset="1" stop-color="#C3CDD2"/>
</linearGradient>
<radialGradient id="paint11_radial" cx="0" cy="0" r="1" gradientUnits="userSpaceOnUse" gradientTransform="translate(23581.2 7604.64) rotate(180) scale(409.817 464.481)">
<stop offset="0.27" stop-color="#50AADC"/>
<stop offset="1" stop-color="#0078AA"/>
</radialGradient>
<linearGradient id="paint12_linear" x1="14.9262" y1="9.01749" x2="5.41356" y2="20.5053" gradientUnits="userSpaceOnUse">
<stop offset="0.05" stop-color="#5AC8FF"/>
<stop offset="0.09" stop-color="#E0EFF5"/>
<stop offset="0.11" stop-color="#81BDD5"/>
<stop offset="0.12" stop-color="#3C98BE"/>
<stop offset="0.13" stop-color="#0078AA"/>
<stop offset="0.43" stop-color="#1C91C5"/>
<stop offset="1" stop-color="#5AC8FF"/>
</linearGradient>
<linearGradient id="paint13_linear" x1="13.1278" y1="11.2277" x2="2.14947" y2="20.7735" gradientUnits="userSpaceOnUse">
<stop stop-color="#0078AA"/>
<stop offset="1" stop-color="#00508C"/>
</linearGradient>
<linearGradient id="paint14_linear" x1="18.9798" y1="18.3121" x2="1.91325" y2="19.9674" gradientUnits="userSpaceOnUse">
<stop stop-color="#0078AA"/>
<stop offset="1" stop-color="white"/>
</linearGradient>
<linearGradient id="paint15_linear" x1="8.33687" y1="22.5107" x2="5.56392" y2="1.33819" gradientUnits="userSpaceOnUse">
<stop stop-color="#50AADC"/>
<stop offset="0.21" stop-color="#5AC8FF"/>
<stop offset="0.55" stop-color="#A4E1FF"/>
<stop offset="0.63" stop-color="#A1E0FF"/>
<stop offset="0.67" stop-color="#99DDFF"/>
<stop offset="0.71" stop-color="#8BD8FF"/>
<stop offset="0.74" stop-color="#77D2FF"/>
<stop offset="0.77" stop-color="#5AC8FF"/>
<stop offset="0.99" stop-color="#0078AA"/>
</linearGradient>
<linearGradient id="paint16_linear" x1="15.6132" y1="13.1146" x2="-0.474993" y2="12.687" gradientUnits="userSpaceOnUse">
<stop stop-color="white"/>
<stop offset="1" stop-color="#0078AA"/>
</linearGradient>
<clipPath id="clip0">
<rect width="142.4" height="24" fill="white"/>
</clipPath>
</defs>
</svg>
