<svg width="277" height="320" viewBox="0 0 277 320" fill="none" xmlns="http://www.w3.org/2000/svg">
<rect x="0.5" y="0.5" width="276" height="319" stroke="white" stroke-opacity="0.1"/>
<path opacity="0.8" d="M18.5455 287.377C23.522 282.666 32.6208 275.047 42.8904 268.403M66.6902 254.675C89.5816 248.498 85.0397 213.798 77.9619 188.181M66.6902 254.675C85.2214 260.671 113.018 280.292 125.554 285.742C140.011 292.028 175.697 301.366 156.439 279.928M66.6902 254.675C58.2783 256.647 51.3664 262.919 42.8904 268.403M209 306.919C198.923 285.742 187.869 279.928 154.441 271.39M82.3145 163.836C78.1359 160.929 72.4371 149.975 66.1452 151.119C58.1513 152.572 58.6964 168.422 69.2337 180.914C77.0798 190.216 85.2809 191.088 88.4916 189.998M42.8904 268.403C38.8935 258.377 39.8382 231.421 75.5924 203.805V198.173C51.7926 183.457 42.527 116.963 62.6933 90.62C83.8146 63.0291 116.288 56.1012 152.806 68.8187C161.042 72.5128 178.277 84.77 181.329 104.246C185.144 128.591 188.596 123.14 190.595 127.864C192.193 131.643 191.261 136.463 190.595 138.401M190.595 138.401C195.258 137.796 204.874 136.948 206.037 138.401C207.2 139.855 206.522 142.035 206.037 142.943M190.595 138.401C188.414 138.654 184.054 138.995 174.789 141.672M206.037 142.943C205.613 147.485 204.475 156.787 203.312 157.659C202.343 158.386 195.602 161.214 189.141 162.263M206.037 142.943C206.158 141.914 205.965 139.818 204.22 139.673C202.04 139.491 194.592 138.038 175.152 142.762C174.728 143.186 174.098 145.269 174.97 150.21C175.842 155.152 174.915 153.965 174.342 152.754M174.789 141.672C174.052 141.884 173.599 142.758 173.395 144.033M174.789 141.672C173.699 141.887 170.247 142.406 165.16 142.762M189.141 162.263C185.912 162.788 182.753 162.868 180.421 162.019C177.707 161.033 175.552 156.986 174.342 152.754M189.141 162.263C189.868 163.696 190.631 168.451 187.869 176.009C187.506 177.22 186.961 184.003 188.596 189.816M174.342 152.754C173.421 149.531 173.048 146.201 173.395 144.033M165.16 142.762C155.276 138.837 133.911 141.974 124.464 144.033C123.374 144.271 117.897 144.033 111.565 144.033C104.661 144.033 96.3643 145.668 89.5816 147.122L86.4931 150.21L112.291 151.119C112.291 151.119 113.773 148.875 115.198 148.03C118.009 146.365 123.555 148.394 123.555 148.394C123.555 148.394 124.734 148.507 125.736 148.187M165.16 142.762C164.675 146.94 163.488 155.443 162.616 156.024M162.616 156.024C161.744 156.605 162.858 148.272 163.525 144.033C160.012 143.004 148.445 141.672 130.278 144.578C129.309 144.639 127.916 146.032 126.826 147.485C126.568 147.829 126.168 148.048 125.736 148.187M162.616 156.024C162.616 156.024 162.105 159.42 156.257 162.019C148.082 165.653 129.006 164.745 125.736 160.929V148.187M164.771 145.85C165.417 144.942 168.356 143.161 173.395 144.033" stroke="#76777E"/>
<path fill-rule="evenodd" clip-rule="evenodd" d="M93.5769 158L86 166.74C88.2499 177.484 93.2684 194.108 100.098 208.538C100.46 209.301 101.857 209.002 101.857 209.002C101.857 209.002 101.287 210.232 101.603 210.856C104.383 216.35 105.999 218.619 110.131 225.23C116.708 235.749 138.921 243.411 153.078 244.703L156.359 248.362C155.326 251.731 155.266 259.683 163.286 264.535L164.562 267.23C164.137 270.375 165.072 277.575 172.218 281.214L173.311 284.246C173.007 286.717 174.15 292.568 181.149 296.207L183.519 301.43C185.767 304.126 185.342 308.674 169.666 310.696C170.775 312.245 172.941 314.235 176.107 315.746C176.608 315.985 181.818 314.503 182.369 314.714C183.498 315.148 180.046 317.225 181.381 317.496C185.426 318.317 190.409 318.25 196.278 316.424C198.709 312.886 200.434 304.698 187.894 300.251L184.248 295.534C184.613 293.063 183.774 287.076 177.504 282.898L176.045 280.034C177.564 276.211 178.415 267.757 169.666 264.535L168.207 262.85C169.423 259.425 169.884 251.495 162.01 247.182L161.3 243.776C172.601 238.212 179.179 233.575 184.248 226.157C185.413 224.453 186.469 222.596 187.386 220.591C187.662 219.987 185.881 218.738 185.881 218.738C185.881 218.738 188.642 217.514 188.855 216.884C191.501 209.083 192.102 199.397 189.169 187.967L179.509 182.407C177.625 182.801 173.02 183.351 169.666 182.407C165.109 183.755 145.486 191.083 135.716 198.227C131.542 198.84 122.108 196.287 113.643 190.919C113.025 190.528 111.135 191.847 111.135 191.847C111.135 191.847 111.571 189.621 110.856 189.065C104.629 184.214 98.4338 176.867 96.0253 168.256C94.9171 164.294 93.5769 158 93.5769 158ZM177.686 193.004C174.77 195.026 163.833 196.71 153.078 198.227C161.463 204.46 180.967 208.84 181.696 195.38C180.609 194.448 179.625 193.756 177.686 193.004Z" fill="url(#paint0_linear)"/>
<path d="M148.411 205C146.626 201.652 151.089 199.361 153.41 198.462M153.41 198.462C163.942 196.877 174.652 195.115 177.508 193C179.407 193.786 180.371 194.51 181.436 195.485M153.41 198.462C161.621 204.982 180.722 209.563 181.436 195.485M181.436 195.485C182.864 196.793 183.399 197.423 182.685 199.009" stroke="#181818"/>
<defs>
<linearGradient id="paint0_linear" x1="86.0504" y1="165.359" x2="218.989" y2="253.574" gradientUnits="userSpaceOnUse">
<stop stop-color="#4663FF"/>
<stop offset="1" stop-color="#17A8D3"/>
</linearGradient>
</defs>
</svg>
