<svg width="278" height="320" viewBox="0 0 278 320" fill="none" xmlns="http://www.w3.org/2000/svg">
<rect x="1.5" y="0.5" width="276" height="319" stroke="white" stroke-opacity="0.1"/>
<path opacity="0.8" d="M174.954 109.164C182.499 113.578 187.766 135.367 189.474 138.928C191.182 142.488 192.036 146.333 192.178 150.321C192.178 154.308 188.477 158.866 188.477 158.866C188.477 158.866 187.623 159.008 188.335 159.435C189.758 160.432 191.609 160.575 193.175 160.005C193.175 160.005 193.317 161.714 189.189 161.002C189.189 161.002 187.196 160.147 186.911 161.144C186.769 161.999 186.484 162.996 185.915 163.708C185.915 163.708 187.338 169.974 188.335 172.395C189.331 174.816 190.755 179.8 189.901 183.076C189.901 183.076 191.751 187.918 191.751 188.488C191.751 189.912 191.467 191.336 190.613 192.475C189.474 193.899 187.765 193.33 187.481 196.605C186.911 200.878 185.773 205.15 184.064 208.995C182.641 211.701 180.648 217.255 180.648 219.961C180.648 222.667 181.644 234.772 172.249 237.905C162.711 241.038 151.608 236.766 137.943 231.212" stroke="#76777E" stroke-miterlimit="10"/>
<path opacity="0.8" d="M103.778 197.602C103.494 200.023 101.928 202.017 99.5078 202.729C92.6749 204.865 89.2582 200.023 89.2582 200.023" stroke="#76777E" stroke-miterlimit="10"/>
<path opacity="0.8" d="M148.619 236.054C146.199 237.62 144.348 239.899 143.21 242.605C141.359 246.877 137.373 254.995 135.807 258.697C134.242 262.258 134.526 271.087 134.526 271.087" stroke="#76777E" stroke-miterlimit="10"/>
<path opacity="0.8" d="M138.512 252.716C138.512 252.716 142.783 270.803 134.384 277.639C134.384 277.639 117.871 279.917 109.045 275.787" stroke="#76777E" stroke-miterlimit="10"/>
<path opacity="0.8" d="M48 256C40.0515 261.05 31.5845 265.842 22.7721 270.245C12.2317 275.295 2.72793 288.115 1 292" stroke="#76777E" stroke-miterlimit="10"/>
<path opacity="0.8" d="M18.6516 298.836C18.6516 298.836 42.5665 305.957 50.5382 319.202" stroke="#76777E" stroke-miterlimit="10"/>
<path opacity="0.8" d="M103.778 195.893C103.778 195.893 109.615 211.559 112.319 212.698" stroke="#76777E" stroke-miterlimit="10"/>
<path d="M190.712 318.874H186.047C185.901 318.371 185.901 318.119 185.901 317.993L185.464 318.874H184.006C184.589 317.741 185.026 316.861 185.026 316.735L178.611 310.443C179.049 313.211 179.195 316.106 179.049 319H178.466V316.106C178.32 315.854 172.488 308.933 172.488 308.933C173.071 312.456 177.008 317.616 178.32 319H177.008C173.946 315.225 167.969 308.052 167.969 307.926C167.531 311.701 168.26 315.476 169.864 319H168.989C167.823 316.231 166.802 313.337 166.219 310.443C166.51 313.337 167.094 316.231 167.969 319H165.927C164.178 313.337 163.157 307.548 162.574 301.634C161.262 299.998 160.387 298.11 160.242 296.097C159.95 293.58 159.804 291.189 159.95 288.672C160.096 285.526 160.533 282.38 161.116 279.36C160.97 278.857 153.972 268.034 152.514 265.895V265.769C156.013 274.452 154.993 280.492 153.681 288.924C153.243 291.189 152.952 293.454 152.514 296.097C151.931 300.879 152.66 305.535 154.41 310.065C155.576 313.085 157.034 316.106 158.784 319H158.638C156.451 315.854 154.701 312.456 153.535 308.807C151.494 302.766 151.202 296.348 152.368 290.182C153.535 284.645 153.827 278.856 153.243 273.194C152.806 270.173 151.931 267.153 150.765 264.259C150.473 263.378 150.036 262.497 149.744 261.742C148.287 257.086 140.607 252.306 140 251.5L140.5 250.067C141.229 248.683 143.979 242.281 145 240.645C146.312 239.009 147.25 237.619 149 236.36C149 236.36 151.931 238.233 160.679 239.366C162.428 239.617 164.178 239.743 165.927 239.743C168.552 239.869 171.322 239.366 173.654 238.359C173.654 238.485 174.384 247.057 177.445 251.839C179.341 255.362 180.507 259.138 180.798 263.039C181.381 260.522 181.527 255.614 179.195 246.428C177.737 240.891 177.013 237.173 176.5 236.36C179.562 234.976 180 229.044 180.798 229.735C180.507 231.622 181.236 236.486 182.839 242.401C184.297 247.938 186.193 253.349 188.817 258.634C193.336 267.317 194.211 262.371 192.899 264.888C191.879 267.027 188.963 273.194 188.38 274.326C189.692 276.843 204.417 284.142 205 284.394C201.647 284.268 188.817 275.711 188.671 275.585C189.692 278.227 191.004 280.87 192.462 283.387C194.794 287.665 197.71 292.951 199.606 297.481C202.23 303.773 202.376 313.715 202.084 319H195.232C194.649 318.371 194.357 317.867 194.357 317.867V319H192.608C191.441 316.987 189.838 315.225 187.942 313.84C187.796 315.728 188.817 317.616 190.712 318.874ZM170.01 292.447C170.155 297.733 171.613 302.766 174.092 307.548C175.258 309.688 176.57 311.827 178.174 313.714C178.174 311.827 177.883 310.065 177.445 308.178C176.279 307.045 174.238 302.892 172.925 299.746C171.322 296.097 170.155 292.699 170.01 292.447ZM188.671 280.87C188.38 280.87 188.088 280.87 188.088 281.122C187.942 281.625 188.671 282.632 190.567 284.142C191.879 285.274 194.066 288.295 197.127 296.474C198.877 301.256 200.189 305.661 200.189 305.912C200.189 300.879 197.127 294.461 194.649 289.931C193.045 286.784 191.15 283.764 188.963 280.996C188.963 280.87 188.817 280.87 188.671 280.87ZM188.234 282.883C188.525 284.393 189.108 285.778 189.983 287.036C191.295 289.175 196.981 301.76 196.981 301.885C196.981 297.481 188.38 283.135 188.234 282.883ZM162.428 284.645C161.699 286.029 161.116 287.414 160.825 288.924C160.096 292.447 160.679 296.097 162.428 299.369V299.243C162.428 296.348 162.574 293.454 162.866 290.56C162.866 290.434 162.866 290.182 162.72 289.931C162.574 288.295 162.428 286.533 162.428 284.645ZM184.006 277.346C183.131 277.85 183.423 279.108 183.423 279.234C184.151 279.737 186.63 285.4 186.776 285.652C186.484 283.764 186.047 282.003 185.318 280.241C184.881 279.36 184.443 278.353 184.006 277.346ZM186.776 264.8C186.776 265.556 186.047 270.425 185.318 271.432L185.464 271.558C186.484 272.942 186.922 273.697 187.067 273.823C187.505 271.809 187.796 269.922 188.088 267.908C188.088 267.657 188.234 267.153 188.234 266.398C188.671 262.245 189.837 265.933 186.776 264.8ZM184.735 253.978C184.735 254.104 190.712 267.443 190.712 273.232C190.712 276.378 190.129 266.398 189.109 269.418C188.817 270.173 188.671 270.928 188.671 271.683C188.671 271.683 190.129 268.412 190.421 267.279C190.566 267.027 190.566 266.776 190.712 266.398C191.879 264.007 192.17 274.49 191.733 271.973L191.441 270.086C191.004 266.562 190.712 263.668 184.735 253.978ZM184.006 264.171C183.86 264.549 182.11 260.861 182.256 263.252C182.548 265.14 182.985 267.153 183.714 268.915C183.86 268.663 185.61 266.562 184.006 264.171ZM19.2594 318.874H17.0725C15.6146 316.609 14.0108 314.469 12.2612 312.456C7.59585 307.422 4.24239 301.634 2.20128 295.342C1.18073 292.07 0.889426 288.798 1.03522 285.4C1.32681 282.002 2.49301 278.605 4.53412 275.71C8.61633 269.796 14.7395 265.14 21.8834 262.245C27.8609 259.729 34.4218 257.967 40.9825 257.086C43.8983 256.96 46.6683 255.576 48.5636 253.562C49.73 251.926 50.1676 250.039 49.876 248.151C47.2517 247.396 44.7731 246.515 42.4404 245.383C40.3993 244.376 38.6496 243.243 37.1917 241.733C35.588 240.223 34.7135 238.461 34.5677 236.448C34.4219 232.673 35.4425 228.897 37.4836 225.5C38.5041 223.738 39.5245 222.228 40.9825 220.718C40.8367 220.214 36.317 208.637 36.9002 203.477C37.3376 200.583 38.0666 197.815 38.7956 194.92C40.8367 187.37 43.7526 175.918 44.3358 164.592C44.3358 163.586 44.4814 162.705 44.4814 161.824C44.4814 156.79 45.0647 151.757 45.7937 146.849C46.8143 142.822 48.4181 138.921 50.605 135.145L51.0421 134.39C56.8738 123.442 66.6422 105.195 71.3076 101.294C72.0365 100.791 72.6198 100.162 73.2029 99.6583C76.4104 97.0156 79.0346 94.6246 83.7 94.6246C85.0121 94.6246 86.4701 94.8762 87.7823 95.1278C87.9281 94.8762 91.7184 89.0875 96.967 86.3189C100.758 84.0538 105.132 82.6696 109.651 82.2921C111.401 81.1595 113.588 80.5304 115.775 80.5304C116.212 80.5304 116.504 80.5302 116.941 80.6561C117.524 80.7819 118.253 80.9077 118.836 80.9077C120.148 80.9077 121.46 80.5303 122.481 79.7752C123.501 78.7685 123.939 77.3843 123.647 76C123.793 77.0067 123.793 78.1393 123.647 79.146C124.814 77.8876 126.272 77.0066 128.021 76.5032C128.75 76.2516 129.625 76.126 130.354 76.126C133.707 76.3776 136.914 77.0069 140.122 78.0136C141.726 77.7619 143.184 77.7617 144.787 77.7617C151.056 77.6358 157.034 79.1461 162.282 82.0405C169.572 86.3191 173.946 93.492 174.966 103.434C177.736 103.937 180.361 105.321 182.111 107.209C183.86 109.348 184.297 112.116 183.131 114.633C183.131 114.633 183.568 111.235 181.527 109.222C180.507 108.215 179.049 107.712 177.591 107.838C177.153 107.838 176.716 107.838 176.279 107.964C177.008 108.719 182.985 115.388 182.256 119.164C182.256 119.038 177.882 112.494 175.841 111.236C173.946 110.103 167.677 106.705 167.385 106.58C167.677 106.831 168.406 107.586 168.406 107.838C168.406 107.964 168.26 107.964 168.114 107.964H167.969C167.677 107.964 167.385 107.586 166.802 107.209C165.053 105.447 162.428 104.314 159.804 104.063C158.638 103.937 157.763 103.811 156.888 103.685C155.868 103.559 155.284 103.434 154.993 103.434H154.701V103.937C154.701 104.063 154.556 104.063 154.41 104.063C153.972 104.063 153.535 103.937 153.097 103.811L152.077 103.559C150.619 103.182 149.161 103.056 147.703 103.056C146.683 103.056 145.516 103.182 144.496 103.308C143.475 103.559 142.454 103.559 141.434 103.559C140.559 103.559 139.83 103.559 139.101 103.434H138.81C138.227 103.434 137.789 103.308 137.352 103.308C136.915 103.308 136.477 103.433 136.186 103.685C135.894 103.937 135.894 104.566 136.186 105.447C136.915 107.838 136.914 110.355 136.331 112.746C135.456 116.143 133.561 119.415 130.791 121.932C126.272 126.462 122.335 131.37 118.836 136.53C117.961 137.662 117.378 138.669 116.795 139.298C114.754 141.941 113.733 142.696 109.797 145.842L109.651 145.968C109.068 146.471 108.339 146.974 107.61 147.604C105.277 149.491 101.049 153.77 98.7168 162.327C96.0925 171.765 96.5296 183.594 99.8828 197.437C102.653 208.889 105.132 217.446 107.027 224.241C110.526 236.196 112.129 242.236 110.817 247.396C110.672 247.774 110.672 248.151 110.526 248.654C108.193 256.457 107.318 264.385 107.61 272.439C108.485 284.771 113.733 295.09 123.21 302.766C130.062 307.297 136.185 312.582 141.434 318.496H135.602C133.999 317.364 132.103 316.231 130.208 315.099C131.083 316.106 131.812 317.238 132.249 318.496H130.208C129.187 315.225 127.292 312.078 124.96 309.31C122.627 306.541 119.128 304.78 115.191 304.276L121.315 318.496H84.283C83.9914 318.245 83.8458 317.993 83.7 317.867V318.496H69.4122C68.3916 314.721 67.0793 308.303 65.6214 301.508V301.382C62.7055 287.665 59.4982 272.061 57.0197 267.279V267.405C56.4366 270.803 53.2291 287.917 51.188 290.056C52.3544 286.407 53.3749 282.757 54.1039 279.108C55.1244 273.445 55.9992 265.517 54.1039 259.729C51.6254 259.477 49.0012 259.351 46.5227 259.351C41.2741 259.351 36.0256 259.854 30.9229 260.987C24.6537 262.245 18.9678 264.888 14.1566 268.537C-1.44327 280.492 3.51363 293.454 7.88744 300.124C9.05378 302.011 14.3024 310.191 19.2594 318.874ZM71.016 290.056C70.8702 292.699 71.016 295.342 71.3076 297.984C71.8907 301.885 73.2027 307.297 76.5559 310.317L71.016 290.056ZM112.421 295.971C112.567 296.097 120.44 305.031 122.335 305.912C121.46 304.528 120.585 303.27 119.565 302.011C117.67 299.62 115.191 297.481 112.421 295.971ZM82.2421 286.658C82.3878 286.91 85.0119 293.832 86.7614 295.971C86.7614 295.971 87.7821 291.189 85.4494 288.42C84.8663 287.54 83.5542 286.91 82.2421 286.658ZM47.8347 190.012C45.7936 191.9 44.3356 194.165 43.4609 196.682C42.5861 199.325 42.1488 202.093 42.4404 204.862C42.8778 208.763 44.0441 212.538 46.0852 216.187C45.9394 214.3 45.3563 204.736 46.8142 200.205C47.6889 196.808 48.1263 193.41 47.8347 190.012Z" fill="url(#paint0_linear)"/>
<defs>
<linearGradient id="paint0_linear" x1="57.4041" y1="115.978" x2="154.933" y2="262.707" gradientUnits="userSpaceOnUse">
<stop stop-color="#EF3F7C"/>
<stop offset="1" stop-color="#FF009B"/>
</linearGradient>
</defs>
</svg>
