<svg width="136" height="34" viewBox="0 0 136 34" fill="none" xmlns="http://www.w3.org/2000/svg">
<path fill-rule="evenodd" clip-rule="evenodd" d="M18.1814 0.395728C16.1763 0.881459 14.8709 1.57064 13.6683 2.77752C12.1794 4.27226 11.7471 5.38326 11.6347 8.00312C11.5066 10.9836 12.0382 12.9299 14.8025 19.6008C15.9662 22.4094 16.9903 25.2317 17.0782 25.8724C17.2276 26.964 17.1767 27.0913 16.2674 27.8894C15.7336 28.3578 15.1943 28.7412 15.0691 28.7412C14.9436 28.7412 14.3246 27.3477 13.6931 25.6444C13.0618 23.9412 12.1796 21.9389 11.733 21.1948C10.1844 18.616 7.57835 17.3465 5.34603 18.0831C3.8816 18.5662 1.40742 20.3475 0.665889 21.4521C0.0910937 22.3082 0 22.7415 0 24.6149C0 26.5624 0.0825703 26.9206 0.803595 28.0963C1.85437 29.8107 3.18508 30.5159 4.53098 30.0717C6.35338 29.4704 6.68633 27.5951 5.32418 25.6061L4.64418 24.6136L5.45603 23.8813C5.90244 23.4786 6.44314 23.1489 6.65756 23.1489C7.12928 23.1489 7.71526 24.2895 9.05263 27.8092C9.60905 29.2738 10.3793 30.9483 10.7642 31.5305C12.9167 34.7841 16.2948 34.8251 19.7015 31.6391C23.2968 28.2766 23.1833 26.279 18.8071 15.8915C17.0979 11.8347 16.285 8.87526 16.5593 7.70833C16.9948 5.85701 19.2397 4.95319 23.4393 4.93854C26.7189 4.92683 28.6276 5.37181 29.7349 6.40586C30.5364 7.15443 30.5641 7.25136 30.4311 8.8425C30.2737 10.7303 29.6038 12.7518 27.4986 17.6898C25.4703 22.4483 24.9043 24.4181 24.9043 26.72C24.9043 28.3674 25.0103 28.8036 25.6575 29.8208C26.455 31.0746 28.1967 32.6303 29.6275 33.3666C32.0194 34.5977 34.5999 33.9706 36.0979 31.7941C36.5349 31.1587 37.4978 29.0829 38.2375 27.1813C39.78 23.2145 40.0626 22.8499 41.1056 23.481C42.3127 24.2117 42.3937 24.5872 41.6021 25.7832C40.4022 27.5962 40.754 29.3564 42.4574 30.0618C44.6316 30.9622 47.2877 27.9245 47.2723 24.5555C47.2608 22.0558 45.6046 19.9134 42.5767 18.4812C40.9272 17.701 39.8071 17.6592 38.3448 18.3231C36.4598 19.1792 35.1938 20.9485 33.6809 24.8423C32.933 26.7669 32.2083 28.4576 32.0706 28.5996C31.911 28.7636 31.4345 28.4718 30.758 27.7953L29.696 26.7333L30.0777 25.274C30.2876 24.4714 31.3019 21.8084 32.3319 19.356C34.6611 13.809 35.2756 11.8405 35.4733 9.29068C35.8382 4.5809 33.6197 1.65533 28.715 0.378152C26.748 -0.134209 20.3237 -0.123557 18.1814 0.395728ZM52.601 8.19965C50.7551 9.18656 50.6076 9.78014 50.6076 16.2251C50.6076 21.4995 50.6502 22.0241 51.1494 22.8826C52.0174 24.3761 53.0732 24.7459 56.4674 24.7459C59.7228 24.7459 60.788 24.4083 61.7756 23.0635C62.2857 22.369 62.3331 21.8883 62.4061 16.6723C62.4823 11.2352 62.4631 10.9891 61.8734 9.83394C60.9696 8.06331 60.0584 7.70434 56.4631 7.70407C54.1102 7.70354 53.3455 7.8018 52.601 8.19965ZM76.3109 9.53861V11.1316L75.4453 11.2152C74.5836 11.2983 74.5796 11.3055 74.5796 12.7632C74.5796 14.221 74.5836 14.2282 75.4453 14.3112L76.3109 14.3949L76.3114 18.0394C76.3117 20.9831 76.4012 21.8601 76.7776 22.5974C77.562 24.1359 78.4593 24.5984 80.8712 24.7079L82.998 24.8045L82.9173 23.2443L82.8366 21.6843L81.7747 21.5977C80.0956 21.4611 80.0399 21.3346 80.0399 17.6573V14.361H81.3717H82.7035V12.7632V11.1654H81.385H80.0665L79.9866 9.63421L79.9067 8.10299L78.1088 8.02416L76.3109 7.9456V9.53861ZM58.4118 11.2187C58.6361 11.4429 58.7314 12.9347 58.7314 16.2251C58.7314 19.5155 58.6361 21.0074 58.4118 21.2316C57.9947 21.6486 54.9401 21.6486 54.523 21.2316C54.2987 21.0074 54.2034 19.5155 54.2034 16.2251C54.2034 12.9347 54.2987 11.4429 54.523 11.2187C54.7017 11.04 55.5589 10.8991 56.4674 10.8991C57.376 10.8991 58.2331 11.04 58.4118 11.2187ZM66.8111 11.7151C65.0864 12.5686 64.8576 13.3163 64.8576 18.098C64.8576 21.6997 64.9178 22.2512 65.3946 23.0227C66.2464 24.4008 67.3038 24.7467 70.6626 24.7467C73.8735 24.7467 73.9137 24.7257 73.9137 23.0472C73.9137 21.7565 73.5302 21.5511 71.117 21.5511C69.794 21.5511 68.8359 21.4276 68.6399 21.2316C68.2382 20.83 68.2022 15.6116 68.5959 14.8761C68.8367 14.4263 69.171 14.361 71.231 14.361C73.7899 14.361 73.9137 14.2873 73.9137 12.7632C73.9137 11.2051 73.8354 11.1654 70.7555 11.1657C68.4289 11.1657 67.7217 11.2642 66.8111 11.7151ZM87.0983 11.5415C86.6588 11.7367 85.9996 12.2205 85.6334 12.6168C84.9883 13.315 84.9651 13.4708 84.8902 17.644C84.8223 21.4369 84.8724 22.0592 85.3105 22.8621C86.1101 24.3281 87.2038 24.7467 90.2325 24.7467C93.2685 24.7467 94.3299 24.4011 95.2491 23.1125C95.838 22.2872 95.8953 21.9213 95.9792 18.449C96.0596 15.1091 96.0082 14.5413 95.5245 13.4482C94.7582 11.7161 93.5108 11.1756 90.2946 11.1817C88.884 11.1843 87.5684 11.3324 87.0983 11.5415ZM98.4184 20.2196V29.2738H100.15H101.881V26.6039V23.9343L102.667 24.3404C103.665 24.8567 106.399 24.8692 107.61 24.3633C109.338 23.6416 109.604 22.7894 109.604 17.9561C109.604 13.0841 109.344 12.273 107.546 11.522C106.191 10.9559 103.192 11.1268 102.433 11.8136C101.891 12.3044 101.881 12.3031 101.881 11.7393C101.881 11.2104 101.745 11.1654 100.15 11.1654H98.4184V20.2196ZM112.003 16.558C112.003 22.6728 112.189 23.4424 113.867 24.2802C115.005 24.8487 117.697 24.8991 118.709 24.3713C119.326 24.0496 119.443 24.0517 119.572 24.3856C119.684 24.6794 120.121 24.7531 121.388 24.6929L123.056 24.6136V17.9561V11.2986H121.325H119.594L119.461 16.169C119.311 21.6515 119.356 21.5402 117.272 21.5471C116.301 21.5503 115.954 21.4345 115.741 21.0361C115.581 20.7371 115.465 18.5585 115.465 15.8433V11.1654H113.734H112.003L112.003 16.558ZM127.002 11.5553C125.909 12.0306 125.32 13.1928 125.32 14.8763C125.32 16.619 126.033 17.4331 129.052 19.1395C132.573 21.1304 132.32 21.8071 128.051 21.8134L125.32 21.8174V23.2821V24.7467H128.943C133.148 24.7467 134.071 24.4642 134.786 22.9577C135.42 21.6212 135.2 19.5906 134.327 18.7172C133.966 18.3563 132.733 17.4983 131.588 16.8102C129.494 15.5527 128.754 14.8343 129.147 14.4404C129.264 14.3235 130.488 14.1863 131.868 14.1355L134.376 14.0433V12.6043V11.1654L131.114 11.1758C128.94 11.1827 127.568 11.3095 127.002 11.5553ZM92.0094 14.6116C92.4798 14.9091 92.736 19.0817 92.3703 20.4859C92.1317 21.4017 92.1007 21.4193 90.5892 21.4984C89.6846 21.5458 88.8957 21.4502 88.6741 21.2662C88.1797 20.8561 88.1302 15.1669 88.6165 14.6806C88.9897 14.3075 91.4498 14.2574 92.0094 14.6116ZM105.823 14.6806C106.263 15.12 106.263 20.7922 105.823 21.2316C105.647 21.4073 104.875 21.5511 104.107 21.5511C102.164 21.5511 101.881 21.0939 101.881 17.9561C101.881 14.8183 102.164 14.361 104.107 14.361C104.875 14.361 105.647 14.5048 105.823 14.6806Z" fill="black"/>
</svg>
