<svg width="133" height="40" viewBox="0 0 133 40" fill="#F8D346" xmlns="http://www.w3.org/2000/svg">
<g clip-path="url(#clip0_408_16)">
<path d="M0 34.9983L8.66502 40.0001V29.9966L0 34.9983Z" fill="#FDB465"/>
<path d="M17.316 34.9983L8.66504 40.0001V29.9966L17.316 34.9983Z" fill="#EE9378"/>
<path d="M8.66502 29.9964L0 34.9982V24.9946L8.66502 29.9964Z" fill="#F8D346"/>
<path d="M8.66504 29.9964L17.316 34.9982V24.9946L8.66504 29.9964Z" fill="#F17A7C"/>
<path d="M25.9809 29.9964L17.3159 34.9982V24.9946L25.9809 29.9964Z" fill="#F0518C"/>
<path d="M17.3159 24.9949L25.9809 29.9967V19.9932L17.3159 24.9949Z" fill="#EE008E"/>
<path d="M25.9809 19.993L17.3159 24.9947V14.9912L25.9809 19.993Z" fill="#C70283"/>
<path d="M17.3159 14.9911L25.9809 19.9929V10.0034L17.3159 14.9911Z" fill="#C00A81"/>
<path d="M25.9809 10.0032L17.3159 14.9909V5.00146L25.9809 10.0032Z" fill="#AC1086"/>
<path d="M8.66504 10.0032L17.316 14.9909V5.00146L8.66504 10.0032Z" fill="#8E0F7A"/>
<path d="M17.316 5.00176L8.66504 10.0035V0L17.316 5.00176Z" fill="#84187D"/>
<path d="M0 5.00176L8.66502 10.0035V0L0 5.00176Z" fill="#73197B"/>
<path d="M8.66502 10.0032L0 14.9909V5.00146L8.66502 10.0032Z" fill="#73197B"/>
//end
<path d="M2.4657 23.5719L8.66506 27.1506V19.9932L2.4657 23.5719Z" fill="#F0518C"/>
<path d="M14.8503 23.5719L8.66504 27.1506V19.9932L14.8503 23.5719Z" fill="#F0518C"/>
<path d="M8.66504 19.9928L14.8503 23.5715V16.4141L8.66504 19.9928Z" fill="#F0518C"/>
<path d="M14.8503 16.4142L8.66504 19.993V12.8496L14.8503 16.4142Z" fill="#EF9978"/>
<path d="M8.66506 19.9928L2.4657 23.5715V16.4141L8.66506 19.9928Z" fill="#F0518C"/>
<path d="M2.4657 16.4142L8.66506 19.993V12.8496L2.4657 16.4142Z" fill="#EF9978"/>
<path d="M40.2446 14.0966C41.6855 14.0966 42.9447 14.3757 44.0221 14.9339C45.1126 15.4791 45.9498 16.2709 46.534 17.3094C47.1311 18.3349 47.4297 19.5357 47.4297 20.9117C47.4297 22.2877 47.1311 23.4819 46.534 24.4945C45.9498 25.507 45.1126 26.2859 44.0221 26.8311C42.9447 27.3633 41.6855 27.6294 40.2446 27.6294H35.8246V14.0966H40.2446ZM40.2446 25.8185C41.8283 25.8185 43.0421 25.3902 43.8858 24.5334C44.7296 23.6767 45.1515 22.4694 45.1515 20.9117C45.1515 19.341 44.7296 18.1143 43.8858 17.2315C43.0421 16.3488 41.8283 15.9075 40.2446 15.9075H38.0444V25.8185H40.2446Z" fill="black"/>
<path d="M59.4629 22.0021C59.4629 22.4045 59.4369 22.768 59.385 23.0925H51.1874C51.2523 23.9493 51.5703 24.6373 52.1415 25.1565C52.7127 25.6757 53.4137 25.9354 54.2445 25.9354C55.4387 25.9354 56.2825 25.4356 56.7758 24.436H59.1708C58.8463 25.4226 58.2556 26.2339 57.3989 26.87C56.5551 27.4931 55.5036 27.8046 54.2445 27.8046C53.2189 27.8046 52.2973 27.5775 51.4795 27.1231C50.6747 26.6558 50.0386 26.0068 49.5713 25.176C49.1169 24.3322 48.8898 23.3586 48.8898 22.2552C48.8898 21.1518 49.1104 20.1847 49.5518 19.3539C50.0061 18.5102 50.6357 17.8611 51.4405 17.4068C52.2583 16.9524 53.193 16.7253 54.2445 16.7253C55.257 16.7253 56.1592 16.946 56.951 17.3873C57.7429 17.8287 58.3595 18.4518 58.8008 19.2566C59.2422 20.0484 59.4629 20.9636 59.4629 22.0021ZM57.1457 21.3011C57.1327 20.4833 56.8407 19.8278 56.2695 19.3345C55.6983 18.8412 54.9909 18.5946 54.1471 18.5946C53.3812 18.5946 52.7257 18.8412 52.1805 19.3345C51.6353 19.8148 51.3107 20.4703 51.2069 21.3011H57.1457Z" fill="black"/>
<path d="M65.7948 25.6433L68.8324 16.9005H71.1884L67.0994 27.6294H64.4512L60.3817 16.9005H62.7572L65.7948 25.6433Z" fill="black"/>
<path d="M75.0861 25.838H79.6619V27.6294H72.8663V14.0966H75.0861V25.838Z" fill="black"/>
<path d="M86.172 27.8046C85.1595 27.8046 84.2443 27.5775 83.4265 27.1231C82.6087 26.6558 81.9661 26.0068 81.4988 25.176C81.0315 24.3322 80.7978 23.3586 80.7978 22.2552C80.7978 21.1648 81.038 20.1977 81.5183 19.3539C81.9986 18.5102 82.6541 17.8611 83.4849 17.4068C84.3157 16.9524 85.2439 16.7253 86.2694 16.7253C87.2949 16.7253 88.223 16.9524 89.0538 17.4068C89.8846 17.8611 90.5401 18.5102 91.0205 19.3539C91.5008 20.1977 91.7409 21.1648 91.7409 22.2552C91.7409 23.3456 91.4943 24.3127 91.001 25.1565C90.5077 26.0003 89.8327 26.6558 88.9759 27.1231C88.1322 27.5775 87.1975 27.8046 86.172 27.8046ZM86.172 25.877C86.7432 25.877 87.2754 25.7406 87.7687 25.468C88.275 25.1954 88.6839 24.7865 88.9954 24.2413C89.3069 23.6961 89.4627 23.0341 89.4627 22.2552C89.4627 21.4764 89.3134 20.8208 89.0149 20.2886C88.7163 19.7434 88.3204 19.3345 87.8271 19.0619C87.3338 18.7893 86.8016 18.653 86.2304 18.653C85.6593 18.653 85.127 18.7893 84.6338 19.0619C84.1535 19.3345 83.7705 19.7434 83.4849 20.2886C83.1993 20.8208 83.0566 21.4764 83.0566 22.2552C83.0566 23.4105 83.3486 24.3062 83.9328 24.9423C84.5299 25.5654 85.2763 25.877 86.172 25.877Z" fill="black"/>
<path d="M98.258 16.7253C99.0888 16.7253 99.8222 16.894 100.458 17.2315C101.107 17.5561 101.614 17.965 101.977 18.4583V16.9005H104.216V27.8046C104.216 28.7912 104.009 29.6674 103.593 30.4333C103.178 31.2122 102.574 31.8223 101.782 32.2636C101.003 32.705 100.069 32.9257 98.9784 32.9257C97.5245 32.9257 96.3173 32.5817 95.3567 31.8937C94.3961 31.2187 93.8509 30.297 93.7211 29.1287H95.9214C96.0901 29.6869 96.4471 30.1348 96.9923 30.4723C97.5505 30.8227 98.2125 30.998 98.9784 30.998C99.8741 30.998 100.595 30.7254 101.14 30.1802C101.698 29.635 101.977 28.8431 101.977 27.8046V26.0133C101.601 26.5195 101.088 26.9479 100.439 27.2984C99.8027 27.6359 99.0758 27.8046 98.258 27.8046C97.3233 27.8046 96.4666 27.571 95.6877 27.1037C94.9218 26.6234 94.3117 25.9613 93.8574 25.1176C93.416 24.2608 93.1953 23.2937 93.1953 22.2163C93.1953 21.1388 93.416 20.1847 93.8574 19.3539C94.3117 18.5232 94.9218 17.8806 95.6877 17.4263C96.4666 16.9589 97.3233 16.7253 98.258 16.7253ZM101.977 22.2552C101.977 21.5153 101.821 20.8727 101.51 20.3275C101.211 19.7823 100.815 19.3669 100.322 19.0813C99.8287 18.7958 99.2965 18.653 98.7253 18.653C98.1541 18.653 97.6219 18.7958 97.1286 19.0813C96.6353 19.3539 96.2329 19.7629 95.9214 20.3081C95.6228 20.8403 95.4735 21.4764 95.4735 22.2163C95.4735 22.9562 95.6228 23.6053 95.9214 24.1634C96.2329 24.7216 96.6353 25.15 97.1286 25.4486C97.6349 25.7342 98.1671 25.877 98.7253 25.877C99.2965 25.877 99.8287 25.7342 100.322 25.4486C100.815 25.163 101.211 24.7476 101.51 24.2024C101.821 23.6442 101.977 22.9951 101.977 22.2552Z" fill="black"/>
<path d="M108.261 15.4791C107.859 15.4791 107.521 15.3428 107.249 15.0702C106.976 14.7976 106.84 14.4601 106.84 14.0577C106.84 13.6552 106.976 13.3177 107.249 13.0451C107.521 12.7725 107.859 12.6362 108.261 12.6362C108.651 12.6362 108.982 12.7725 109.254 13.0451C109.527 13.3177 109.663 13.6552 109.663 14.0577C109.663 14.4601 109.527 14.7976 109.254 15.0702C108.982 15.3428 108.651 15.4791 108.261 15.4791ZM109.352 16.9005V27.6294H107.132V16.9005H109.352Z" fill="black"/>
<path d="M111.526 22.2552C111.526 21.1518 111.747 20.1847 112.188 19.3539C112.642 18.5102 113.266 17.8611 114.057 17.4068C114.849 16.9524 115.758 16.7253 116.783 16.7253C118.082 16.7253 119.152 17.0368 119.996 17.6599C120.853 18.27 121.431 19.1463 121.729 20.2886H119.334C119.139 19.7564 118.828 19.341 118.4 19.0424C117.971 18.7438 117.432 18.5946 116.783 18.5946C115.875 18.5946 115.148 18.9191 114.603 19.5681C114.07 20.2042 113.804 21.0999 113.804 22.2552C113.804 23.4105 114.07 24.3127 114.603 24.9618C115.148 25.6108 115.875 25.9354 116.783 25.9354C118.069 25.9354 118.919 25.3707 119.334 24.2413H121.729C121.418 25.3317 120.834 26.2015 119.977 26.8505C119.12 27.4866 118.056 27.8046 116.783 27.8046C115.758 27.8046 114.849 27.5775 114.057 27.1231C113.266 26.6558 112.642 26.0068 112.188 25.176C111.747 24.3322 111.526 23.3586 111.526 22.2552Z" fill="black"/>
<path d="M127.836 27.8046C126.992 27.8046 126.233 27.6554 125.558 27.3568C124.895 27.0452 124.37 26.6299 123.98 26.1106C123.591 25.5784 123.383 24.9877 123.357 24.3387H125.655C125.694 24.793 125.908 25.176 126.297 25.4875C126.7 25.7861 127.2 25.9354 127.797 25.9354C128.42 25.9354 128.9 25.8185 129.238 25.5849C129.588 25.3382 129.763 25.0267 129.763 24.6502C129.763 24.2478 129.569 23.9493 129.179 23.7545C128.803 23.5598 128.199 23.3456 127.368 23.112C126.564 22.8913 125.908 22.6771 125.402 22.4694C124.895 22.2617 124.454 21.9437 124.078 21.5153C123.714 21.0869 123.532 20.5222 123.532 19.8213C123.532 19.2501 123.701 18.7309 124.039 18.2635C124.376 17.7832 124.857 17.4068 125.48 17.1342C126.116 16.8616 126.843 16.7253 127.66 16.7253C128.881 16.7253 129.861 17.0368 130.601 17.6599C131.354 18.27 131.756 19.1073 131.808 20.1718H129.588C129.549 19.6915 129.354 19.3085 129.004 19.0229C128.653 18.7373 128.18 18.5946 127.583 18.5946C126.998 18.5946 126.551 18.7049 126.239 18.9256C125.927 19.1463 125.772 19.4383 125.772 19.8018C125.772 20.0874 125.876 20.3275 126.083 20.5222C126.291 20.717 126.544 20.8727 126.843 20.9896C127.141 21.0934 127.583 21.2297 128.167 21.3985C128.946 21.6062 129.582 21.8204 130.075 22.041C130.581 22.2487 131.016 22.5603 131.38 22.9757C131.743 23.3911 131.931 23.9428 131.944 24.6308C131.944 25.2409 131.775 25.7861 131.438 26.2664C131.1 26.7467 130.62 27.1231 129.997 27.3957C129.387 27.6683 128.666 27.8046 127.836 27.8046Z" fill="black"/>
</g>
<defs>
<clipPath id="clip0_408_16">
<rect width="132.892" height="40" fill="black"/>
</clipPath>
</defs>
</svg>
