<svg width="138" height="36" viewBox="0 0 138 36" fill="none" xmlns="http://www.w3.org/2000/svg">
<path fill-rule="evenodd" clip-rule="evenodd" d="M13.0674 0.719964C-0.0173672 4.58682 -4.29303 20.1595 4.93845 30.3277C14.3729 40.7192 31.9777 36.1205 35.5588 22.3295C38.9717 9.18425 26.1411 -3.14329 13.0674 0.719964ZM23.1196 11.548C24.3522 10.0895 24.163 9.59198 21.9528 8.48154C16.8268 5.90604 11.0739 9.55232 11.9528 14.8197C12.2474 16.584 13.9844 18.2634 16.57 19.2837C19.2473 20.3401 20.6391 21.42 20.6391 22.4413C20.6391 25.1826 17.6732 25.983 15.281 23.887L14.1801 22.9224L12.7886 24.3374L11.3971 25.7526L12.6517 26.7231C18.8338 31.5054 27.0088 26.4606 23.9545 19.7485C23.2274 18.151 22.1804 17.364 19.375 16.3064C15.8275 14.9688 14.8911 13.5244 16.5191 11.9C17.595 10.826 19.135 10.8469 20.7731 11.9577L22.0447 12.82L23.1196 11.548Z" fill="#D42A06"/>
<path fill-rule="evenodd" clip-rule="evenodd" d="M61.4196 9.09272L62.4926 7.95443C63.0824 7.32842 63.5816 6.79713 63.6013 6.77418C63.6213 6.75124 64.1984 7.26024 64.8838 7.9056L66.1298 9.0783L64.9317 10.2743L63.7333 11.4699L62.5766 10.2815L61.4196 9.09272ZM65.6112 9.06487L64.7343 8.22647C64.7186 8.21137 64.703 8.1965 64.6877 8.18185C64.1706 7.68722 63.9182 7.44577 63.6753 7.45505C63.4437 7.4639 63.2209 7.70078 62.7854 8.16357C62.7719 8.17798 62.7581 8.19261 62.7441 8.20746L61.9727 9.02685L62.7691 9.92817C63.2069 10.4241 63.5842 10.8731 63.6072 10.9262C63.6305 10.9793 64.091 10.5824 64.6302 10.0439L65.6112 9.06487ZM93.6154 7.75548L94.847 7.62668C95.5245 7.55621 96.3373 7.47361 96.6532 7.44313C97.1879 7.392 97.228 8.00687 97.228 16.2375V25.0869H95.4217H93.6154V16.421V7.75548ZM134.339 7.75548L135.571 7.62668C136.248 7.55621 137.061 7.47361 137.377 7.44313C137.912 7.392 137.952 8.00687 137.952 16.2375V25.0869H136.31C135.111 25.0869 134.668 24.9613 134.668 24.6221C134.668 24.3665 134.578 23.924 134.468 23.6388C134.359 23.3537 134.432 23.1203 134.632 23.1203C134.832 23.1203 134.996 23.4979 134.996 23.9594C134.996 24.7211 135.103 24.7893 136.159 24.6968L137.323 24.5952L137.321 16.3194C137.32 11.7675 137.239 8.04358 137.143 8.04358H135.817H134.668V11.0157V13.9878L133.73 13.3214C128.718 9.76004 122.383 16.1647 125.317 21.8267C126.588 24.2793 130.551 25.5483 133.052 24.3035C133.638 24.0118 134.39 23.5612 134.468 23.6388C135.109 25.4493 128.215 25.2629 126.334 23.509C121.054 18.5878 126.785 9.37328 133.12 12.5968L134.339 13.2169V10.4863V7.75548ZM96.8996 24.7591V16.2375C96.8996 11.5506 96.8624 7.73811 96.8175 7.76499C96.7725 7.79219 96.1442 7.90265 95.4217 8.01081L94.108 8.20746V16.4833V24.7594L95.5038 24.7591H96.8996ZM87.6152 11.9619C89.8245 11.857 91.7332 11.6699 91.8574 11.546C92.1602 11.2438 92.9589 11.2589 92.9566 11.567C92.9487 12.662 92.1937 14.2228 91.5969 14.3784C91.0747 14.5148 90.9654 14.7065 91.1562 15.1526C91.9615 17.0385 91.5562 19.0214 90.1378 20.1348L89.3765 20.7326L90.3388 21.6526C95.0864 26.1921 88.0651 32.3083 81.7877 29.1019C79.323 27.843 79.0783 27.3166 80.3621 26.0351L81.3881 25.0111L82.0639 25.6857C83.8413 27.4595 87.492 27.2563 88.1653 25.3458C88.9003 23.2596 85.9659 21.5602 83.3793 22.5743C81.8055 23.1911 81.5923 23.1226 82.1063 22.1636C82.4255 21.5684 82.3037 21.3173 81.1776 20.2482C77.0592 16.3384 80.1854 12.3146 87.6152 11.9619ZM91.037 14.0297C91.9092 13.9642 92.1585 13.6993 92.4298 12.5502C92.6548 11.5971 92.5349 11.5247 91.4807 11.9766C91.1194 12.1317 89.4937 12.2697 87.8681 12.2831C80.7421 12.3431 76.7988 17.6229 81.7884 20.4239C82.5989 20.8788 82.7595 21.143 82.6065 21.7687C82.4469 22.4209 82.5122 22.5091 83.0072 22.3101C86.9446 20.728 90.7266 24.6401 87.2845 26.7345C85.8825 27.5876 84.8621 27.5483 82.9182 26.5663L81.3056 25.7515L80.4816 26.5844C78.5663 28.5208 84.8486 30.601 88.2845 29.1681C91.77 27.7148 92.6183 23.7965 89.9095 21.6631L88.8533 20.8313L89.7256 20.0912C91.325 18.734 91.8091 16.6852 90.8343 15.3987C90.1565 14.5046 90.2176 14.0913 91.037 14.0297ZM62.0873 12.346L63.1547 12.2136C64.0428 12.1037 64.5781 11.9484 64.8999 12.1442C65.4633 12.4871 65.3715 13.9067 65.3715 18.5318V25.0869H63.7294H62.0873V18.7163V12.346ZM67.6704 12.346L68.7377 12.2136C70.884 11.9478 70.9546 11.9612 70.9546 12.6272C70.9546 13.2762 70.9575 13.2762 72.0219 12.6285C74.5758 11.0746 76.3522 11.5074 77.3194 13.888L76.6145 13.2601C74.9997 11.8213 72.7904 11.992 71.1677 13.6816C70.8337 14.0297 70.4642 14.2106 70.3467 14.0838C70.2294 13.9573 70.3027 13.7927 70.5092 13.7187C70.7158 13.6446 70.8094 13.2962 70.7171 12.9442C70.6248 12.5922 70.456 12.328 70.3414 12.3568C70.2271 12.3857 69.6531 12.4689 69.0662 12.5414L67.9988 12.6738V18.7163V24.7591H69.2796H70.5601L70.6754 20.4698C70.7887 16.2378 70.8025 16.1696 71.7119 15.3896C74.1261 13.3175 75.0598 14.7055 75.0598 20.3675V24.7575L76.4782 24.7584L77.8967 24.7591L77.7919 19.4875L77.7049 15.1112C78.0206 16.4146 78.1798 18.0914 78.1798 20.1381V25.0869H76.3735H74.5672V20.3459C74.5672 15.0061 74.2959 14.3893 72.3579 15.3214C71.2015 15.8773 71.0265 16.6324 70.9874 21.2357L70.9546 25.0869H69.3125H67.6704V18.7163V12.346ZM77.7049 15.1112C77.5953 14.6583 77.4667 14.2506 77.3194 13.888L77.4642 14.2766L77.7049 15.1112ZM103.121 24.8197C97.4431 22.63 97.5626 14.4709 103.304 12.3523C105.875 11.4034 109.42 12.4814 111.144 14.7367L111.993 15.8478L107.859 18.419C105.585 19.8329 103.73 21.1374 103.736 21.3177C103.765 22.1623 106.079 22.2642 107.922 21.5022C108.922 21.0882 109.789 20.8038 109.847 20.87C110.114 21.1735 111.022 23.1203 111.022 23.3914C111.022 24.5562 105.177 25.6126 103.121 24.8197ZM113.882 13.8822C114.215 12.7459 114.52 12.31 115.058 12.2061C121.363 10.9872 122.845 12.4679 122.845 19.9903V25.0869H121.367C120.262 25.0869 119.889 24.9607 119.889 24.5877C119.889 24.1485 119.792 24.1521 119.081 24.6172C117.104 25.9092 113.785 24.9744 112.619 22.7978C110.606 19.0417 114.568 15.1274 118.821 16.6691C119.433 16.891 119.56 16.8228 119.56 16.2712C119.56 15.0044 117.448 14.56 114.85 15.2798C114.116 15.4832 113.737 15.6005 113.6 15.4679C113.448 15.3209 113.593 14.8667 113.882 13.8822ZM65.0431 24.7591V18.5318C65.0431 15.1067 64.9321 12.328 64.7967 12.3568C64.6614 12.3857 64.07 12.4689 63.4831 12.5414L62.4157 12.6738V18.7163V24.7591H63.7294H65.0431ZM111.35 15.6318C111.35 15.1087 109.502 13.4909 108.264 12.9294C102.976 10.5329 97.4799 15.7593 99.7036 21.0705C101.114 24.4386 105.504 25.8305 109.297 24.1124C109.321 24.1017 109.344 24.0912 109.367 24.0808C110.154 23.7246 110.526 23.5563 110.608 23.2965C110.681 23.0638 110.522 22.7577 110.221 22.1775C110.212 22.1588 110.202 22.1399 110.192 22.1207C109.908 21.5728 109.794 21.298 109.606 21.2326C109.406 21.1625 109.121 21.3326 108.455 21.6644C106.785 22.4956 105.323 22.5966 104.004 21.9719C102.891 21.4445 102.414 20.826 103.122 20.826C103.552 20.826 111.35 15.9035 111.35 15.6318ZM122.516 19.8264C122.516 14.2614 122.238 13.27 120.507 12.6676C118.396 11.9334 114.312 12.3886 114.301 13.3591C114.299 13.5902 114.207 14.1143 114.097 14.524C113.911 15.2152 113.96 15.2447 114.78 14.9337C117.21 14.0113 119.889 14.8563 119.889 16.5456V17.4718L118.516 16.9998C113.77 15.3683 110.179 20.5478 113.835 23.7509C115.153 24.9059 117.891 25.1806 119.087 24.278C119.907 23.6585 120.217 23.6559 120.217 24.2675C120.217 24.611 120.564 24.7591 121.367 24.7591H122.516V19.8264ZM85.51 19.8428C82.3934 19.8428 81.7858 15.5833 84.7481 14.5023C85.4798 14.2355 85.5465 14.2401 86.6795 14.6341C89.675 15.6763 88.7397 19.8428 85.51 19.8428ZM101.994 19.1873C101.016 19.1873 102.45 15.7986 103.718 15.1116C105.134 14.345 108.662 14.8406 107.737 15.6763C107.4 15.9808 102.155 19.1873 101.994 19.1873ZM85.5327 19.515C87.7551 19.515 88.961 17.1496 87.5387 15.581C86.7495 14.7108 84.4187 14.6777 83.6496 15.5259C82.284 17.0316 83.4564 19.515 85.5327 19.515ZM104.782 17.1811C107.009 15.7698 107.388 15.4148 106.88 15.2155C104.925 14.4496 102.675 15.7196 102.272 17.8163L102.063 18.9034L104.782 17.1811ZM132.555 22.0289C128.816 23.8083 125.602 18.9919 128.559 16.0408C129.464 15.1372 129.929 14.9264 131.017 14.9264C134.841 14.9264 136.021 20.379 132.555 22.0289ZM132.667 21.6608C134.563 20.6825 134.857 17.4439 133.182 15.9916C131.082 14.1703 127.771 15.7226 127.771 18.5281C127.771 21.4144 130.17 22.9496 132.667 21.6608ZM115.926 22.1256C114.622 21.4288 115.193 19.1542 116.769 18.7697C117.13 18.6819 117.622 18.6658 117.863 18.7346C118.104 18.8031 118.426 18.8595 118.578 18.8595C119.716 18.8595 120.278 21.0463 119.373 21.9499C118.786 22.535 116.875 22.6323 115.926 22.1256ZM117.59 22.1371C119.354 22.1371 120.259 20.6707 119.166 19.5806C118.128 18.5449 115.619 19.3102 115.619 20.6622C115.619 21.6654 116.249 22.1371 117.59 22.1371Z" fill="#D42A06"/>
<path d="M56.5857 8.06062C57.2628 8.24843 58.2235 8.75219 58.7204 9.18056L59.6242 9.95964L58.6852 10.9416L57.746 11.9235L56.7147 11.2959C54.8503 10.1612 52.5632 10.8842 52.5632 12.6082C52.5632 13.246 54.6601 14.602 54.6601 14.602C54.6601 14.602 58.5223 16.2994 59.1243 17.2846C62.3914 22.6326 54.9452 27.7522 50.1648 23.4451L49.1148 22.4992L50.1569 21.4484L51.1989 20.3977L52.2348 21.2672C53.6332 22.4415 55.2293 22.4442 56.1518 21.2734C57.3627 19.7376 56.7811 18.9575 53.155 17.2538C46.6241 14.1854 49.6291 6.13277 56.5857 8.06062Z" fill="#D42A06"/>
<path d="M65.0431 18.5318V24.7591H63.7294H62.4157V18.7163V12.6738L63.4831 12.5414C64.07 12.4689 64.6614 12.3857 64.7967 12.3568C64.9321 12.328 65.0431 15.1067 65.0431 18.5318Z" fill="#D42A06"/>
<path d="M70.5092 13.7187C70.7158 13.6446 70.8094 13.2962 70.7171 12.9442C70.6248 12.5922 70.456 12.328 70.3414 12.3568C70.2271 12.3857 69.6531 12.4689 69.0662 12.5414L67.9988 12.6738V18.7163V24.7591H69.2796H70.5601L70.6754 20.4698C70.7887 16.2378 70.8025 16.1696 71.7119 15.3896C74.1261 13.3175 75.0598 14.7055 75.0598 20.3675V24.7575L76.4782 24.7584L77.8967 24.7591L77.7919 19.4875L77.7049 15.1112C77.5953 14.6583 77.4667 14.2506 77.3194 13.888L76.6145 13.2601C74.9997 11.8213 72.7904 11.992 71.1677 13.6816C70.8337 14.0297 70.4642 14.2106 70.3467 14.0838C70.2294 13.9573 70.3027 13.7927 70.5092 13.7187Z" fill="#D42A06"/>
<path fill-rule="evenodd" clip-rule="evenodd" d="M92.4298 12.5502C92.1585 13.6993 91.9092 13.9642 91.037 14.0297C90.2176 14.0913 90.1565 14.5046 90.8343 15.3987C91.8091 16.6852 91.325 18.734 89.7256 20.0912L88.8533 20.8313L89.9095 21.6631C92.6183 23.7965 91.77 27.7148 88.2845 29.1681C84.8486 30.601 78.5663 28.5208 80.4816 26.5844L81.3056 25.7515L82.9182 26.5663C84.8621 27.5483 85.8825 27.5876 87.2845 26.7345C90.7266 24.6401 86.9446 20.728 83.0072 22.3101C82.5122 22.5091 82.4469 22.4209 82.6065 21.7687C82.7595 21.143 82.5989 20.8788 81.7884 20.4239C76.7988 17.6229 80.7421 12.3431 87.8681 12.2831C89.4937 12.2697 91.1194 12.1317 91.4807 11.9766C92.5349 11.5247 92.6548 11.5971 92.4298 12.5502ZM85.51 19.8428C82.3934 19.8428 81.7858 15.5833 84.7481 14.5023C85.4798 14.2355 85.5465 14.2401 86.6795 14.6341C89.675 15.6763 88.7397 19.8428 85.51 19.8428Z" fill="#D42A06"/>
<path d="M96.8996 16.2375V24.7591H95.5038L94.108 24.7594V16.4833V8.20746L95.4217 8.01081C96.1442 7.90265 96.7725 7.79219 96.8175 7.76499C96.8624 7.73811 96.8996 11.5506 96.8996 16.2375Z" fill="#D42A06"/>
<path fill-rule="evenodd" clip-rule="evenodd" d="M108.264 12.9294C109.502 13.4909 111.35 15.1087 111.35 15.6318C111.35 15.9035 103.552 20.826 103.122 20.826C102.414 20.826 102.891 21.4445 104.004 21.9719C105.323 22.5966 106.785 22.4956 108.455 21.6644C109.121 21.3326 109.406 21.1625 109.606 21.2326C109.794 21.298 109.908 21.5728 110.192 22.1207L110.221 22.1775C110.522 22.7577 110.681 23.0638 110.608 23.2965C110.526 23.5563 110.154 23.7246 109.367 24.0808L109.297 24.1124C105.504 25.8305 101.114 24.4386 99.7036 21.0705C97.4799 15.7593 102.976 10.5329 108.264 12.9294ZM101.994 19.1873C101.016 19.1873 102.45 15.7986 103.718 15.1116C105.134 14.345 108.662 14.8406 107.737 15.6763C107.4 15.9808 102.155 19.1873 101.994 19.1873Z" fill="#D42A06"/>
<path fill-rule="evenodd" clip-rule="evenodd" d="M120.507 12.6676C122.238 13.27 122.516 14.2614 122.516 19.8264V24.7591H121.367C120.564 24.7591 120.217 24.611 120.217 24.2675C120.217 23.6559 119.907 23.6585 119.087 24.278C117.891 25.1806 115.153 24.9059 113.835 23.7509C110.179 20.5478 113.77 15.3683 118.516 16.9998L119.889 17.4718V16.5456C119.889 14.8563 117.21 14.0113 114.78 14.9337C113.96 15.2447 113.911 15.2152 114.097 14.524C114.207 14.1143 114.299 13.5902 114.301 13.3591C114.312 12.3886 118.396 11.9334 120.507 12.6676ZM115.926 22.1256C114.622 21.4288 115.193 19.1542 116.769 18.7697C117.13 18.6819 117.622 18.6658 117.863 18.7346C118.104 18.8031 118.426 18.8595 118.578 18.8595C119.716 18.8595 120.278 21.0463 119.373 21.9499C118.786 22.535 116.875 22.6323 115.926 22.1256Z" fill="#D42A06"/>
<path fill-rule="evenodd" clip-rule="evenodd" d="M133.052 24.3035C133.638 24.0118 134.39 23.5612 134.468 23.6388C134.359 23.3537 134.432 23.1203 134.632 23.1203C134.832 23.1203 134.996 23.4979 134.996 23.9594C134.996 24.7211 135.103 24.7893 136.159 24.6968L137.323 24.5952L137.321 16.3194C137.32 11.7675 137.239 8.04358 137.143 8.04358H135.817H134.668V11.0157V13.9878L133.73 13.3214C128.718 9.76004 122.383 16.1647 125.317 21.8267C126.588 24.2793 130.551 25.5483 133.052 24.3035ZM132.555 22.0289C128.816 23.8083 125.602 18.9919 128.559 16.0408C129.464 15.1372 129.929 14.9264 131.017 14.9264C134.841 14.9264 136.021 20.379 132.555 22.0289Z" fill="#D42A06"/>
<path d="M64.7343 8.22647L65.6112 9.06487L64.6302 10.0439C64.091 10.5824 63.6305 10.9793 63.6072 10.9262C63.5842 10.8731 63.2069 10.4241 62.7691 9.92817L61.9727 9.02685L62.7441 8.20746L62.7854 8.16357C63.2209 7.70078 63.4437 7.4639 63.6753 7.45505C63.9182 7.44577 64.1706 7.68722 64.6877 8.18185L64.7343 8.22647Z" fill="#D42A06"/>
</svg>
