<svg width="159" height="48" viewBox="0 0 159 48" fill="none" xmlns="http://www.w3.org/2000/svg">
<path d="M22.3358 15.7327L17.8116 8.88525H8.02948L16.3443 20.8276L22.3358 15.7327Z" fill="white"/>
<path d="M24.6591 30.6911L29.1833 37.4571H38.9654L30.9359 25.9224L24.6591 30.6911Z" fill="white"/>
<path d="M72.999 37.4572H97.5765V30.9358H81.2323V25.6779H95.4978V20.0939H81.2323V15.4067H97.1689V8.88525H72.999V37.4572Z" fill="white"/>
<path d="M121.828 8.88525L114.614 28.2049L107.359 8.88525H98.3509L110.252 37.4572H118.486L130.428 8.88525H121.828Z" fill="white"/>
<path d="M152.805 20.4202L141.229 19.4013C139.884 19.279 139.15 18.9122 139.15 17.2818V16.752C139.15 15.2031 139.721 14.6325 141.27 14.6325H148.403C149.911 14.6325 150.522 15.2439 150.522 16.752V17.2818H158.47V15.2031C158.47 10.8419 156.554 8.92627 152.275 8.92627H137.113C132.833 8.92627 130.917 10.8827 130.917 15.2031V19.116C130.917 23.3141 132.548 24.9445 137.113 25.3928L148.688 26.4525C150.278 26.5748 150.767 27.0639 150.767 28.572V29.6317C150.767 31.1806 150.196 31.7512 148.647 31.7512H140.536C139.028 31.7512 138.417 31.1398 138.417 29.6317V28.735H130.469V31.2213C130.469 35.5825 132.385 37.4982 136.664 37.4982H152.805C157.084 37.4982 159 35.5418 159 31.2213V26.6971C159 22.4989 157.329 20.7871 152.805 20.4202Z" fill="white"/>
<path d="M60.2007 8.88525H40.9218V37.4572H60.2007C66.8036 37.4572 70.3089 33.9519 70.3089 27.349V18.9934C70.3089 12.3905 66.8036 8.88525 60.2007 8.88525ZM61.9126 26.7784C61.9126 29.1424 60.6491 30.4059 58.2851 30.4059H49.3181V15.8958H58.2851C60.6491 15.8958 61.9126 17.1593 61.9126 19.5233V26.7784Z" fill="white"/>
<path d="M43.3266 0L21.8467 22.7026L25.1482 24.2922L0 47.6878L32.1179 23.1102L28.4904 21.3168L43.3266 0Z" fill="url(#paint0_linear)"/>
<path d="M25.1482 24.2922L21.8467 22.7026L43.3266 0L15.4476 23.6809L19.0344 25.4335L0 47.6878L25.1482 24.2922Z" fill="url(#paint1_linear)"/>
<path d="M37.8244 5.54319L32.4035 11.1679C30.5693 13.0428 28.776 14.9177 26.9826 16.7926L21.6024 22.4581L21.2763 22.8249L21.7247 23.0287C22.6621 23.4771 23.5996 23.9254 24.537 24.3738L18.627 29.8762C16.5483 31.8326 14.4696 33.789 12.3909 35.7862L6.19559 41.6962C4.15765 43.6934 2.07895 45.6498 0.0410156 47.6878C2.20123 45.8129 4.32069 43.8564 6.44014 41.9815L12.7985 36.1938C14.918 34.2781 17.0374 32.3217 19.1161 30.3653L25.4337 24.5368L25.8413 24.17L25.3522 23.9254C24.4148 23.4771 23.4366 23.0287 22.4991 22.5804L27.5124 17.241C29.3058 15.3253 31.0584 13.4504 32.8518 11.5347L38.1505 5.78775C39.9031 3.87208 41.6557 1.95642 43.4084 0C41.4927 1.83415 39.6586 3.70905 37.8244 5.54319Z" fill="white"/>
<defs>
<linearGradient id="paint0_linear" x1="0.00558395" y1="23.8371" x2="43.3208" y2="23.8371" gradientUnits="userSpaceOnUse">
<stop stop-color="#ED4125"/>
<stop offset="0.5907" stop-color="#F79716"/>
<stop offset="1" stop-color="#FECE0C"/>
</linearGradient>
<linearGradient id="paint1_linear" x1="0.00558395" y1="23.8371" x2="43.3208" y2="23.8371" gradientUnits="userSpaceOnUse">
<stop stop-color="#FECE0C"/>
<stop offset="0.4093" stop-color="#F79716"/>
<stop offset="1" stop-color="#ED4125"/>
</linearGradient>
</defs>
</svg>
