<svg width="55" height="48" viewBox="0 0 55 48" fill="none" xmlns="http://www.w3.org/2000/svg">
<path d="M46.3141 3.05884C46.7652 3.05884 47.1311 3.42325 47.1311 3.87345C47.1311 4.32326 46.7652 4.68777 46.3141 4.68777H27.6585H7.03567C5.56113 4.68777 4.36103 5.88404 4.36103 7.35442V28.2827C4.36103 29.7531 5.56113 30.9498 7.03567 30.9498H47.9643C49.4388 30.9498 50.6389 29.7535 50.6389 28.2827V7.35442C50.6389 5.88404 49.4388 4.68777 47.9643 4.68777H44.5897C44.1382 4.68777 43.7727 4.32326 43.7727 3.87345C43.7727 3.42325 44.1382 3.05884 44.5897 3.05884H47.9643C50.3397 3.05884 52.2725 4.98569 52.2725 7.35442V28.2827C52.2725 30.6514 50.3397 32.5787 47.9643 32.5787H7.03567C4.66022 32.5787 2.72746 30.6514 2.72746 28.2827V7.35442C2.72746 4.98608 4.66022 3.05884 7.03567 3.05884H27.6585H46.3141Z" fill="url(#paint0_linear)"/>
<path d="M45.7787 22.133C45.3676 22.1334 44.964 22.2418 44.6081 22.4475C44.252 22.6532 43.9563 22.9491 43.7503 23.3053L35.5635 18.5202C35.4525 17.9863 35.1598 17.5077 34.7353 17.1663C34.3108 16.8249 33.7811 16.6419 33.2368 16.6489C32.6925 16.6558 32.1675 16.8522 31.7519 17.2043C31.3361 17.5564 31.0556 18.0424 30.9583 18.579L22.7197 24.7695C22.4956 24.4237 22.1846 24.1431 21.8179 23.9559C21.4512 23.7688 21.0417 23.6816 20.6308 23.7033C20.2199 23.7249 19.8218 23.8546 19.4767 24.0792C19.1316 24.3038 18.8517 24.6155 18.665 24.983L10.5221 21.5836C10.3937 21.0469 10.0809 20.5726 9.63843 20.2437C9.19607 19.9148 8.65227 19.7523 8.10237 19.7846C7.55239 19.8169 7.03132 20.0421 6.63036 20.4205C6.22939 20.799 5.97409 21.3067 5.90915 21.8549C5.8442 22.4029 5.97376 22.9564 6.27513 23.4184C6.5765 23.8804 7.03049 24.2214 7.55759 24.3819C8.0847 24.5424 8.65129 24.5119 9.15826 24.296C9.66524 24.0799 10.0802 23.6922 10.3305 23.2006L18.4734 26.5998C18.5991 27.124 18.9009 27.589 19.3281 27.9167C19.7554 28.2444 20.2821 28.415 20.82 28.3999C21.3578 28.3847 21.8742 28.1847 22.2824 27.8334C22.6905 27.4821 22.9657 27.001 23.0619 26.4706L31.3005 20.2801C31.5187 20.617 31.8195 20.8921 32.1743 21.0792C32.5289 21.2663 32.9256 21.3591 33.3263 21.3488C33.727 21.3385 34.1184 21.2253 34.463 21.0203C34.8076 20.8152 35.094 20.5249 35.2946 20.1772L43.4815 24.9624C43.5718 25.3974 43.7835 25.7979 44.0918 26.1172C44.4001 26.4367 44.7923 26.662 45.2233 26.7672C45.6542 26.8723 46.106 26.8529 46.5264 26.7112C46.9468 26.5695 47.3184 26.3113 47.5983 25.9667C47.8782 25.622 48.0548 25.2049 48.1077 24.7637C48.1605 24.3225 48.0875 23.8753 47.897 23.4741C47.7066 23.0728 47.4064 22.7338 47.0315 22.4965C46.6566 22.2591 46.2222 22.1331 45.7787 22.133ZM9.02361 22.137C9.02312 22.3451 8.94013 22.5445 8.79291 22.6914C8.64579 22.8383 8.44641 22.9207 8.23869 22.9205C8.03087 22.9202 7.83174 22.8373 7.68492 22.69C7.53811 22.5427 7.45565 22.3431 7.45565 22.1349C7.45565 21.9268 7.53811 21.7272 7.68492 21.5799C7.83174 21.4327 8.03087 21.3498 8.23869 21.3495C8.44641 21.3493 8.64579 21.4317 8.79291 21.5786C8.94013 21.7255 9.02312 21.9249 9.02361 22.133V22.137ZM20.754 26.8339C20.5467 26.8336 20.3479 26.751 20.2012 26.6042C20.0547 26.4573 19.9722 26.2582 19.9719 26.0504V26.0465C19.9727 25.8917 20.0192 25.7407 20.1056 25.6123C20.192 25.484 20.3144 25.3842 20.4574 25.3254C20.6004 25.2668 20.7574 25.2518 20.9089 25.2824C21.0603 25.3132 21.1993 25.3881 21.3083 25.4978C21.4172 25.6076 21.4914 25.7471 21.5212 25.899C21.5511 26.0509 21.5354 26.2082 21.476 26.3512C21.4167 26.4941 21.3165 26.6162 21.188 26.7021C21.0595 26.7881 20.9085 26.8339 20.754 26.8339ZM33.2663 19.7826C33.1116 19.7826 32.9604 19.7366 32.8318 19.6506C32.7033 19.5645 32.603 19.442 32.5438 19.299C32.4846 19.1558 32.4691 18.9982 32.4993 18.8462C32.5294 18.6943 32.604 18.5547 32.7133 18.4451C32.8227 18.3355 32.9621 18.261 33.1137 18.2307C33.2654 18.2004 33.4227 18.216 33.5656 18.2753C33.7085 18.3346 33.8306 18.435 33.9165 18.5639C34.0024 18.6927 34.0483 18.8442 34.0483 18.9991C34.048 19.2068 33.9655 19.4059 33.819 19.5528C33.6723 19.6997 33.4737 19.7823 33.2663 19.7826ZM45.7787 25.267C45.624 25.267 45.4728 25.221 45.3442 25.135C45.2156 25.0489 45.1153 24.9264 45.0561 24.7833C44.997 24.6401 44.9815 24.4826 45.0116 24.3306C45.0419 24.1786 45.1163 24.0391 45.2256 23.9295C45.335 23.8199 45.4744 23.7453 45.626 23.715C45.7778 23.6848 45.935 23.7003 46.0779 23.7597C46.2208 23.8189 46.343 23.9194 46.4288 24.0482C46.5148 24.1771 46.5606 24.3285 46.5606 24.4835C46.5603 24.6912 46.4779 24.8903 46.3313 25.0371C46.1847 25.184 45.986 25.2667 45.7787 25.267Z" fill="url(#paint1_linear)"/>
<path fill-rule="evenodd" clip-rule="evenodd" d="M28.025 1.62894H49.8992C51.8109 1.62894 53.3664 3.18002 53.3664 5.0864V34.2463C53.3664 36.1527 51.8109 37.7034 49.8992 37.7034H6.7294C6.27831 37.7034 5.91286 38.0683 5.91286 38.5181C5.91286 38.9679 6.27831 39.3324 6.7294 39.3324H19.4099L17.2942 43.3371H16.2068C14.9174 43.3371 13.8688 44.3831 13.8688 45.6686C13.8688 46.954 14.9174 48 16.2068 48H38.7936C40.0826 48 41.1312 46.954 41.1312 45.6686C41.1312 44.3831 40.0826 43.3371 38.7936 43.3371H37.706L35.5903 39.3324H49.8992C52.7118 39.3324 55 37.0507 55 34.2463V5.0864C55 2.28167 52.7118 0 49.8992 0H28.025V1.62894ZM39.4977 45.6686C39.4977 46.056 39.1817 46.3711 38.7932 46.3711H16.2068C15.8183 46.3711 15.5024 46.056 15.5024 45.6686C15.5024 45.2815 15.8183 44.9664 16.2068 44.9664H38.7936C39.1817 44.9664 39.4977 45.2815 39.4977 45.6686ZM35.8592 43.3375H19.1405L21.2566 39.3324H33.7435L35.8592 43.3375Z" fill="url(#paint2_linear)"/>
<path d="M28.025 0H5.10086C2.28817 0 0 2.28167 0 5.0864V34.2463C0 37.0507 2.28817 39.3323 5.10086 39.3323H7.74109C8.19215 39.3323 8.55809 38.9679 8.55809 38.5181C8.55809 38.0683 8.19215 37.7034 7.74109 37.7034H5.10086C3.18908 37.7034 1.63357 36.1527 1.63357 34.2463V5.0864C1.63357 3.18002 3.18908 1.62894 5.10086 1.62894H28.025V0Z" fill="url(#paint3_linear)"/>
<path fill-rule="evenodd" clip-rule="evenodd" d="M19.2989 8.7641V14.479H20.9685V8.7641H19.2989ZM17.6783 8.12753V14.479H16.6962V10.5913C16.6962 10.0504 16.2565 9.61192 15.7141 9.61192H12.7677C12.2253 9.61192 11.7856 10.0504 11.7856 10.5913V14.479H10.8034V12.0885C10.8034 11.5476 10.3637 11.1091 9.8213 11.1091H6.87491C6.3325 11.1091 5.89278 11.5476 5.89278 12.0885V15.1155C5.89278 15.1459 5.89415 15.1758 5.89685 15.2054C5.89416 15.2323 5.89278 15.2594 5.89278 15.287C5.89278 15.7332 6.25555 16.095 6.70303 16.095H18.6552H18.6605H21.6069H21.6121H24.5533H27.4996H27.6148C27.9722 16.095 28.2757 15.864 28.3833 15.5435C28.4464 15.4142 28.4818 15.2691 28.4818 15.1156V12.0885C28.4818 11.5476 28.0421 11.1091 27.4996 11.1091H24.5533C24.0108 11.1091 23.5711 11.5476 23.5711 12.0885V14.479H22.589V8.12753C22.589 7.58664 22.1493 7.14819 21.6069 7.14819H18.6605C18.118 7.14819 17.6783 7.58664 17.6783 8.12753ZM13.4061 14.4789V11.2278H15.0757V14.4789H13.4061ZM7.51329 12.725V14.4789H9.18291V12.725H7.51329ZM25.1916 14.479V12.725H26.8613V14.479H25.1916Z" fill="url(#paint4_linear)"/>
<defs>
<linearGradient id="paint0_linear" x1="2.72746" y1="32.5787" x2="54.1093" y2="28.9307" gradientUnits="userSpaceOnUse">
<stop stop-color="#0085FF"/>
<stop offset="1" stop-color="#11A9FF"/>
</linearGradient>
<linearGradient id="paint1_linear" x1="5.89278" y1="28.4008" x2="48.9167" y2="21.8606" gradientUnits="userSpaceOnUse">
<stop stop-color="#0085FF"/>
<stop offset="1" stop-color="#11A9FF"/>
</linearGradient>
<linearGradient id="paint2_linear" x1="5.91286" y1="48" x2="56.9809" y2="45.7908" gradientUnits="userSpaceOnUse">
<stop stop-color="#0085FF"/>
<stop offset="1" stop-color="#11A9FF"/>
</linearGradient>
<linearGradient id="paint3_linear" x1="1.04401e-07" y1="39.3324" x2="29.184" y2="38.4527" gradientUnits="userSpaceOnUse">
<stop stop-color="#0085FF"/>
<stop offset="1" stop-color="#11A9FF"/>
</linearGradient>
<linearGradient id="paint4_linear" x1="5.89278" y1="16.095" x2="29.1718" y2="13.6087" gradientUnits="userSpaceOnUse">
<stop stop-color="#0085FF"/>
<stop offset="1" stop-color="#11A9FF"/>
</linearGradient>
</defs>
</svg>
