<svg width="48" height="48" viewBox="0 0 48 48" fill="none" xmlns="http://www.w3.org/2000/svg">
<path d="M48 24.7742C48 19.5956 44.3474 15.2594 39.4839 14.1925V3.87097C39.4839 1.73647 37.7474 0 35.6129 0H15.4839C13.3495 0 11.6129 1.73647 11.6129 3.87097V12.3871H7.13729L6.67045 14.2575L5.01833 13.2658L0.877935 17.4039L1.86968 19.0575L0 19.5244V25.3788L1.87045 25.8456L0.877935 27.4994L5.01755 31.6382L6.66968 30.6465L7.13729 32.5161H11.6129V44.129C11.6129 46.2635 13.3495 48 15.4839 48H35.6129C37.7474 48 39.4839 46.2635 39.4839 44.129V35.3559C44.3474 34.289 48 29.9528 48 24.7742ZM46.4516 24.7742C46.4516 26.2831 46.0824 27.7045 45.4413 28.9657C45.0116 27.7835 44.023 26.8536 42.7455 26.5339L39.4839 25.7179V25.5329C40.4485 24.8059 41.0323 23.6625 41.0323 22.4524V20.904C41.0323 19.8225 40.5747 18.7819 39.7765 18.0495C38.9791 17.3195 37.8984 16.9525 36.8175 17.0477C34.8395 17.2188 33.2904 18.984 33.2904 21.0635V22.4516C33.2904 23.6616 33.8741 24.8052 34.8387 25.5321V25.7172L31.577 26.5332C30.2996 26.8529 29.311 27.7827 28.8813 28.9649C28.2403 27.7045 27.871 26.2831 27.871 24.7742C27.871 19.6514 32.0385 15.4839 37.1613 15.4839C42.2841 15.4839 46.4516 19.6514 46.4516 24.7742ZM34.8387 14.1925C34.3061 14.3095 33.7905 14.4705 33.2904 14.6625V12.3871H17.8065V23.2258H26.4465C26.3729 23.7329 26.3225 24.247 26.3225 24.7742C26.3225 29.9528 29.9753 34.289 34.8387 35.3559V37.1613H16.2581V10.8387H34.8387V14.1925ZM26.7794 21.6775H19.3548V13.9355H31.7419V15.4018C29.3775 16.7745 27.5768 19.0088 26.7794 21.6775ZM15.4839 1.54842H35.6129C36.8935 1.54842 37.9355 2.59049 37.9355 3.87097V6.19351H13.1613V3.87097C13.1613 2.59049 14.2034 1.54842 15.4839 1.54842ZM11.6129 25.9912C11.1244 26.2065 10.5972 26.3225 10.0645 26.3225C7.93006 26.3225 6.19355 24.5861 6.19355 22.4516C6.19355 20.3172 7.93006 18.5806 10.0645 18.5806C10.5972 18.5806 11.1244 18.6968 11.6129 18.912V25.9912ZM8.34658 30.9677L7.96954 29.4588L7.81239 29.0446L6.92825 28.6855L5.25755 29.6888L2.82813 27.2585L3.83148 25.5871L3.44439 24.6425L1.54839 24.1695V20.7336L3.44206 20.2606L3.83148 19.3161L2.82813 17.6446L5.25755 15.2145L6.92825 16.2178L7.87277 15.8338L8.34658 13.9355H11.6129V17.2684C11.1105 17.1175 10.5902 17.0323 10.0645 17.0323C7.07613 17.0323 4.64516 19.464 4.64516 22.4516C4.64516 25.4393 7.07613 27.871 10.0645 27.871C10.5902 27.871 11.1105 27.7858 11.6129 27.6348V30.9677H8.34658ZM35.6129 46.4516H15.4839C14.2034 46.4516 13.1613 45.4095 13.1613 44.129V41.8065H37.9355V44.129C37.9355 45.4095 36.8935 46.4516 35.6129 46.4516ZM37.9355 40.2581H13.1613V7.74193H37.9355V13.975C37.6785 13.9564 37.423 13.9355 37.1613 13.9355C36.8996 13.9355 36.6441 13.9564 36.3871 13.975V9.29035H14.7096V38.7097H36.3871V35.5735C36.6441 35.592 36.8996 35.6129 37.1613 35.6129C37.423 35.6129 37.6785 35.592 37.9355 35.5735V40.2581ZM37.1613 34.0645C34.3858 34.0645 31.8975 32.8344 30.1935 30.8988V30.2888C30.1935 29.2212 30.9175 28.2945 31.9525 28.0351L36.3871 26.9272V24.6735L36.0024 24.4498C35.2738 24.0255 34.8387 23.2785 34.8387 22.4516V21.0635C34.8387 19.7791 35.767 18.6929 36.9515 18.5899C37.6157 18.5365 38.2452 18.7455 38.7305 19.1907C39.209 19.6296 39.4839 20.2537 39.4839 20.9032V22.4516C39.4839 23.2785 39.0488 24.0255 38.3203 24.4498L37.9355 24.6735V26.9272L42.3701 28.0351C43.4052 28.2945 44.129 29.2212 44.129 30.2888V30.8988C42.425 32.8344 39.9368 34.0645 37.1613 34.0645Z" fill="url(#paint0_linear)"/>
<path d="M28.6453 3.09705H30.1937V4.64547H28.6453V3.09705Z" fill="url(#paint1_linear)"/>
<path d="M20.9035 3.09705H27.097V4.64547H20.9035V3.09705Z" fill="url(#paint2_linear)"/>
<path d="M22.4522 43.3547H28.6457V44.9031H22.4522V43.3547Z" fill="url(#paint3_linear)"/>
<path d="M33.2904 43.3547H34.8388V44.9031H33.2904V43.3547Z" fill="url(#paint4_linear)"/>
<path d="M16.2583 43.3547H17.8067V44.9031H16.2583V43.3547Z" fill="url(#paint5_linear)"/>
<path d="M17.8061 24.7739H24.7739V26.3223H17.8061V24.7739Z" fill="url(#paint6_linear)"/>
<path d="M17.8061 27.8708H24.7739V29.4193H17.8061V27.8708Z" fill="url(#paint7_linear)"/>
<path d="M17.8061 30.9678H24.7739V32.5162H17.8061V30.9678Z" fill="url(#paint8_linear)"/>
<path d="M17.8061 34.0643H24.7739V35.6127H17.8061V34.0643Z" fill="url(#paint9_linear)"/>
<defs>
<linearGradient id="paint0_linear" x1="1.78814e-07" y1="48" x2="49.9411" y2="45.8874" gradientUnits="userSpaceOnUse">
<stop stop-color="#0085FF"/>
<stop offset="1" stop-color="#11A9FF"/>
</linearGradient>
<linearGradient id="paint1_linear" x1="28.6453" y1="4.64547" x2="30.2563" y2="4.57732" gradientUnits="userSpaceOnUse">
<stop stop-color="#0085FF"/>
<stop offset="1" stop-color="#11A9FF"/>
</linearGradient>
<linearGradient id="paint2_linear" x1="20.9035" y1="4.64547" x2="27.1793" y2="3.58359" gradientUnits="userSpaceOnUse">
<stop stop-color="#0085FF"/>
<stop offset="1" stop-color="#11A9FF"/>
</linearGradient>
<linearGradient id="paint3_linear" x1="22.4522" y1="44.9031" x2="28.728" y2="43.8411" gradientUnits="userSpaceOnUse">
<stop stop-color="#0085FF"/>
<stop offset="1" stop-color="#11A9FF"/>
</linearGradient>
<linearGradient id="paint4_linear" x1="33.2904" y1="44.9031" x2="34.9014" y2="44.8349" gradientUnits="userSpaceOnUse">
<stop stop-color="#0085FF"/>
<stop offset="1" stop-color="#11A9FF"/>
</linearGradient>
<linearGradient id="paint5_linear" x1="16.2583" y1="44.9031" x2="17.8693" y2="44.8349" gradientUnits="userSpaceOnUse">
<stop stop-color="#0085FF"/>
<stop offset="1" stop-color="#11A9FF"/>
</linearGradient>
<linearGradient id="paint6_linear" x1="17.8061" y1="26.3223" x2="24.8147" y2="24.9881" gradientUnits="userSpaceOnUse">
<stop stop-color="#0085FF"/>
<stop offset="1" stop-color="#11A9FF"/>
</linearGradient>
<linearGradient id="paint7_linear" x1="17.8061" y1="29.4193" x2="24.8147" y2="28.0851" gradientUnits="userSpaceOnUse">
<stop stop-color="#0085FF"/>
<stop offset="1" stop-color="#11A9FF"/>
</linearGradient>
<linearGradient id="paint8_linear" x1="17.8061" y1="32.5162" x2="24.8147" y2="31.1821" gradientUnits="userSpaceOnUse">
<stop stop-color="#0085FF"/>
<stop offset="1" stop-color="#11A9FF"/>
</linearGradient>
<linearGradient id="paint9_linear" x1="17.8061" y1="35.6127" x2="24.8147" y2="34.2785" gradientUnits="userSpaceOnUse">
<stop stop-color="#0085FF"/>
<stop offset="1" stop-color="#11A9FF"/>
</linearGradient>
</defs>
</svg>
