<svg width="55" height="48" viewBox="0 0 55 48" fill="none" xmlns="http://www.w3.org/2000/svg">
<path d="M49.8992 0H5.10086C2.28817 0 0 2.28167 0 5.0864V34.2463C0 37.0507 2.28817 39.3324 5.10086 39.3324H26.0744C26.5255 39.3324 26.8914 38.9678 26.8914 38.5181C26.8914 38.0683 26.5255 37.7034 26.0744 37.7034H5.10086C3.18909 37.7034 1.63357 36.1527 1.63357 34.2463V5.0864C1.63357 3.18002 3.18909 1.62894 5.10086 1.62894H49.8992C51.8109 1.62894 53.3664 3.18002 53.3664 5.0864V34.2463C53.3664 36.1527 51.8109 37.7034 49.8992 37.7034H11.0082C10.5571 37.7034 10.1917 38.0683 10.1917 38.5181C10.1917 38.9678 10.5571 39.3324 11.0082 39.3324H19.4098L17.2941 43.3371H16.2068C14.9174 43.3371 13.8688 44.3831 13.8688 45.6686C13.8688 46.954 14.9174 48 16.2068 48H38.7936C40.0826 48 41.1312 46.954 41.1312 45.6686C41.1312 44.3831 40.0826 43.3371 38.7936 43.3371H37.706L35.5903 39.3324H49.8992C52.7118 39.3324 55 37.0507 55 34.2463V5.0864C55 2.28167 52.7118 0 49.8992 0ZM39.4977 45.6686C39.4977 46.056 39.1817 46.3711 38.7932 46.3711H16.2068C15.8183 46.3711 15.5023 46.056 15.5023 45.6686C15.5023 45.2814 15.8183 44.9664 16.2068 44.9664H38.7936C39.1817 44.9664 39.4977 45.2814 39.4977 45.6686ZM35.8592 43.3375H19.1404L21.2565 39.3324H33.7435L35.8592 43.3375Z" fill="url(#paint0_linear)"/>
<path d="M41.3224 3.05847H7.03594C4.66048 3.05847 2.72772 4.98581 2.72772 7.35405V28.2825C2.72772 30.6511 4.66048 32.5783 7.03594 32.5783H47.9645C50.34 32.5783 52.2727 30.6511 52.2727 28.2825V7.35405C52.2727 4.98532 50.34 3.05847 47.9645 3.05847H26.2567C25.8051 3.05847 25.4396 3.42298 25.4396 3.87319C25.4396 4.323 25.8051 4.68741 26.2567 4.68741H47.9645C49.4391 4.68741 50.6392 5.88367 50.6392 7.35405V28.2825C50.6392 29.7531 49.4391 30.9495 47.9645 30.9495H28.3172V4.68741H41.3224C41.7735 4.68741 42.1394 4.323 42.1394 3.87319C42.1394 3.42298 41.7735 3.05847 41.3224 3.05847ZM7.03594 30.9495C5.5614 30.9495 4.36129 29.7527 4.36129 28.2825V12.2693H26.6832V30.9495H7.03594ZM26.6832 10.6403H4.36129V7.35405C4.36129 5.88367 5.5614 4.68741 7.03594 4.68741H26.6832V10.6403Z" fill="url(#paint1_linear)"/>
<path d="M5.49469 7.726C5.49469 8.93186 6.47869 9.91316 7.68802 9.91316C8.89735 9.91316 9.88135 8.93186 9.88135 7.726C9.88135 6.51965 8.89735 5.53894 7.68802 5.53894C6.47869 5.53894 5.49469 6.51965 5.49469 7.726ZM7.68802 7.16788C7.99644 7.16788 8.24777 7.418 8.24777 7.72561C8.24777 8.03351 7.99644 8.28374 7.68802 8.28374C7.3796 8.28374 7.12826 8.03351 7.12826 7.72561C7.12826 7.418 7.3796 7.16788 7.68802 7.16788Z" fill="url(#paint2_linear)"/>
<path d="M12.9277 9.91267C14.1371 9.91267 15.1211 8.93186 15.1211 7.72551C15.1211 6.51965 14.1371 5.53845 12.9277 5.53845C11.718 5.53845 10.7344 6.51965 10.7344 7.72551C10.7344 8.93186 11.7184 9.91267 12.9277 9.91267ZM12.9277 7.16778C13.2362 7.16778 13.4871 7.418 13.4871 7.72551C13.4871 8.03352 13.2362 8.28374 12.9277 8.28374C12.6189 8.28374 12.368 8.03352 12.368 7.72551C12.368 7.418 12.6189 7.16778 12.9277 7.16778Z" fill="url(#paint3_linear)"/>
<path d="M18.1683 9.91267C19.3776 9.91267 20.3612 8.93186 20.3612 7.72551C20.3612 6.51965 19.3776 5.53845 18.1683 5.53845C16.9589 5.53845 15.9749 6.51965 15.9749 7.72551C15.9749 8.93186 16.9589 9.91267 18.1683 9.91267ZM18.1683 7.16778C18.4767 7.16778 18.7276 7.418 18.7276 7.72551C18.7276 8.03352 18.4767 8.28374 18.1683 8.28374C17.8594 8.28374 17.6085 8.03352 17.6085 7.72551C17.6085 7.418 17.8594 7.16778 18.1683 7.16778Z" fill="url(#paint4_linear)"/>
<path d="M6.81143 17.1272H24.3724C24.8235 17.1272 25.189 16.7623 25.189 16.3125C25.189 15.8627 24.8235 15.4983 24.3724 15.4983H6.81143C6.35993 15.4983 5.99445 15.8627 5.99445 16.3125C5.99445 16.7623 6.35993 17.1272 6.81143 17.1272Z" fill="url(#paint5_linear)"/>
<path d="M24.3724 19.0551H6.81143C6.35993 19.0551 5.99445 19.4196 5.99445 19.8694C5.99445 20.3196 6.35993 20.684 6.81143 20.684H24.3724C24.8235 20.684 25.189 20.3196 25.189 19.8694C25.189 19.4196 24.8235 19.0551 24.3724 19.0551Z" fill="url(#paint6_linear)"/>
<path d="M20.3579 22.6119H6.81143C6.35993 22.6119 5.99445 22.9767 5.99445 23.4266C5.99445 23.8764 6.35993 24.2409 6.81143 24.2409H20.3579C20.809 24.2409 21.1745 23.8764 21.1745 23.4266C21.1745 22.9767 20.809 22.6119 20.3579 22.6119Z" fill="url(#paint7_linear)"/>
<path d="M35.0327 13.5251C34.7137 13.2071 34.1968 13.2071 33.8774 13.5251L29.9851 17.4068C29.8319 17.5596 29.7459 17.7667 29.7459 17.9826C29.7459 18.1989 29.8319 18.406 29.9851 18.5588L33.8774 22.4405C34.0373 22.5991 34.2463 22.679 34.4553 22.679C34.6642 22.679 34.8732 22.5995 35.0331 22.4405C35.352 22.1221 35.352 21.6066 35.0331 21.2886L31.7177 17.9831L35.0331 14.6771C35.352 14.359 35.352 13.8431 35.0327 13.5251Z" fill="url(#paint8_linear)"/>
<path d="M42.3057 22.4405C42.4656 22.5995 42.6746 22.679 42.8835 22.679C43.0925 22.679 43.3015 22.5995 43.4614 22.4405L47.3538 18.5588C47.5069 18.406 47.5929 18.1989 47.5929 17.9826C47.5929 17.7667 47.5069 17.5596 47.3538 17.4068L43.4614 13.5251C43.142 13.2071 42.6246 13.2071 42.3061 13.5251C41.9868 13.8431 41.9868 14.359 42.3061 14.6771L45.6211 17.9826L42.3061 21.2881C41.9868 21.6066 41.9868 22.1221 42.3057 22.4405Z" fill="url(#paint9_linear)"/>
<path d="M39.3706 11.648L36.3284 23.9267C36.2201 24.3635 36.4875 24.8049 36.9255 24.9128C36.9914 24.9292 37.0573 24.9371 37.1223 24.9371C37.489 24.9371 37.8227 24.6886 37.9145 24.3175L40.9568 12.0388C41.065 11.602 40.7977 11.1606 40.3596 11.0525C39.9216 10.9446 39.4788 11.2112 39.3706 11.648Z" fill="url(#paint10_linear)"/>
<defs>
<linearGradient id="paint0_linear" x1="2.04891e-07" y1="48" x2="57.1922" y2="45.2279" gradientUnits="userSpaceOnUse">
<stop stop-color="#0085FF"/>
<stop offset="1" stop-color="#11A9FF"/>
</linearGradient>
<linearGradient id="paint1_linear" x1="2.72772" y1="32.5783" x2="54.1096" y2="28.9303" gradientUnits="userSpaceOnUse">
<stop stop-color="#0085FF"/>
<stop offset="1" stop-color="#11A9FF"/>
</linearGradient>
<linearGradient id="paint2_linear" x1="5.49469" y1="9.91316" x2="10.0587" y2="9.71955" gradientUnits="userSpaceOnUse">
<stop stop-color="#0085FF"/>
<stop offset="1" stop-color="#11A9FF"/>
</linearGradient>
<linearGradient id="paint3_linear" x1="10.7344" y1="9.91267" x2="15.2984" y2="9.71906" gradientUnits="userSpaceOnUse">
<stop stop-color="#0085FF"/>
<stop offset="1" stop-color="#11A9FF"/>
</linearGradient>
<linearGradient id="paint4_linear" x1="15.9749" y1="9.91267" x2="20.5385" y2="9.71909" gradientUnits="userSpaceOnUse">
<stop stop-color="#0085FF"/>
<stop offset="1" stop-color="#11A9FF"/>
</linearGradient>
<linearGradient id="paint5_linear" x1="5.99445" y1="17.1272" x2="22.0193" y2="9.13943" gradientUnits="userSpaceOnUse">
<stop stop-color="#0085FF"/>
<stop offset="1" stop-color="#11A9FF"/>
</linearGradient>
<linearGradient id="paint6_linear" x1="5.99445" y1="20.684" x2="22.0193" y2="12.6962" gradientUnits="userSpaceOnUse">
<stop stop-color="#0085FF"/>
<stop offset="1" stop-color="#11A9FF"/>
</linearGradient>
<linearGradient id="paint7_linear" x1="5.99445" y1="24.2409" x2="19.6886" y2="18.8425" gradientUnits="userSpaceOnUse">
<stop stop-color="#0085FF"/>
<stop offset="1" stop-color="#11A9FF"/>
</linearGradient>
<linearGradient id="paint8_linear" x1="29.7459" y1="22.679" x2="35.5025" y2="22.5357" gradientUnits="userSpaceOnUse">
<stop stop-color="#0085FF"/>
<stop offset="1" stop-color="#11A9FF"/>
</linearGradient>
<linearGradient id="paint9_linear" x1="42.0666" y1="22.679" x2="47.8231" y2="22.5357" gradientUnits="userSpaceOnUse">
<stop stop-color="#0085FF"/>
<stop offset="1" stop-color="#11A9FF"/>
</linearGradient>
<linearGradient id="paint10_linear" x1="36.3043" y1="24.9371" x2="41.1776" y2="24.8678" gradientUnits="userSpaceOnUse">
<stop stop-color="#0085FF"/>
<stop offset="1" stop-color="#11A9FF"/>
</linearGradient>
</defs>
</svg>
