<svg width="53" height="48" viewBox="0 0 53 48" fill="none" xmlns="http://www.w3.org/2000/svg">
<path d="M10.6011 10.6665H3.53438V12.4443H10.6011V10.6665Z" fill="url(#paint0_linear)"/>
<path d="M17.6677 14.2212H3.53438V15.999H17.6677V14.2212Z" fill="url(#paint1_linear)"/>
<path d="M4.41771 23.9992H14.1344C14.3687 23.9992 14.5933 23.9055 14.759 23.7389C14.9247 23.5722 15.0177 23.3461 15.0177 23.1103V19.5548C15.0177 19.319 14.9247 19.0929 14.759 18.9263C14.5933 18.7595 14.3687 18.6659 14.1344 18.6659H4.41771C4.18344 18.6659 3.95876 18.7595 3.79311 18.9263C3.62745 19.0929 3.53438 19.319 3.53438 19.5548V23.1103C3.53438 23.3461 3.62745 23.5722 3.79311 23.7389C3.95876 23.9055 4.18344 23.9992 4.41771 23.9992ZM5.30104 20.4437H13.2511V22.2214H5.30104V20.4437Z" fill="url(#paint2_linear)"/>
<path d="M52.1167 0H0.883333C0.649059 0 0.42438 0.0936494 0.258722 0.260376C0.0930651 0.427005 0 0.653094 0 0.888882V41.7777C0 42.0135 0.0930651 42.2396 0.258722 42.4063C0.42438 42.5731 0.649059 42.6667 0.883333 42.6667H32.7717V47.1111C32.7717 47.3469 32.8647 47.573 33.0304 47.7396C33.1961 47.9063 33.4207 48 33.655 48H42.6562C42.7731 47.9995 42.8887 47.9757 42.9963 47.93C43.1039 47.8841 43.2015 47.8173 43.2833 47.7334C43.4466 47.5678 43.5385 47.3443 43.5395 47.1111V42.6667H52.1167C52.3509 42.6667 52.5756 42.5731 52.7413 42.4063C52.907 42.2396 53 42.0135 53 41.7777V0.888882C53 0.653094 52.907 0.427005 52.7413 0.260376C52.5756 0.0936494 52.3509 0 52.1167 0ZM44.3963 30.2223H47.7V37.3333H43.5218V36.7466C43.5372 36.1173 43.7284 35.5049 44.0737 34.9798C44.419 34.4547 44.9044 34.0382 45.474 33.7778C45.5827 33.7252 45.6795 33.6506 45.7585 33.559C45.8375 33.4673 45.897 33.3602 45.9333 33.2444C45.968 33.1287 45.9772 33.0068 45.9604 32.8871C45.9436 32.7673 45.9012 32.6527 45.8362 32.5512L44.3963 30.2223ZM41.7463 36.7556V38.5333H34.5118V36.7556C34.5001 35.9526 34.2915 35.165 33.9047 34.4626C33.518 33.7602 32.9649 33.1647 32.2947 32.7289L34.0613 29.7777L36.1902 26.2222L37.0735 24.7911V29.7956L36.8792 29.8667C36.7632 29.9365 36.6538 30.0168 36.5523 30.1067C36.4782 30.1519 36.4074 30.2024 36.3403 30.2577C36.2608 30.3378 36.199 30.4444 36.1195 30.5333C36.0529 30.6094 35.9909 30.6895 35.934 30.7733C35.8779 30.8819 35.8307 30.9949 35.7927 31.1112C35.7425 31.1986 35.7011 31.2909 35.669 31.3867C35.6131 31.6075 35.5833 31.8343 35.5807 32.0622C35.5824 32.5047 35.7023 32.9386 35.9275 33.3185C36.1529 33.6984 36.4754 34.0105 36.8615 34.2222C37.2298 34.4346 37.6473 34.545 38.0717 34.5423C38.724 34.5306 39.3458 34.2629 39.8047 33.7962C40.2635 33.3295 40.5228 32.7009 40.5273 32.0444C40.5193 31.5344 40.3556 31.0392 40.0586 30.6258C39.7616 30.2124 39.3454 29.9009 38.8667 29.7334V24.5688L43.8487 32.7289C43.2087 33.1862 42.6854 33.7895 42.3215 34.4893C41.9576 35.1892 41.7636 35.9657 41.7552 36.7556H41.7463ZM30.3337 32.5955C30.2692 32.7007 30.2273 32.8184 30.2106 32.9408C30.1938 33.0633 30.2026 33.1879 30.2365 33.3067C30.2707 33.4256 30.3292 33.5361 30.4083 33.6311C30.4874 33.726 30.5853 33.8032 30.6958 33.8577C31.277 34.1018 31.7781 34.5055 32.142 35.0227C32.5061 35.5399 32.7181 36.1496 32.754 36.7822V37.3333H21.7565V30.2223H31.8L30.3337 32.5955ZM37.7537 31.4489C37.8512 31.3954 37.9607 31.3679 38.0717 31.3689C38.2591 31.3689 38.4388 31.4438 38.5713 31.5771C38.7038 31.7106 38.7783 31.8914 38.7783 32.08C38.7783 32.2686 38.7038 32.4495 38.5713 32.5828C38.4388 32.7162 38.2591 32.7912 38.0717 32.7912C37.946 32.791 37.8233 32.7538 37.7183 32.6845C37.6085 32.6271 37.5164 32.5403 37.4525 32.4336C37.3887 32.3269 37.3553 32.2046 37.3562 32.08C37.3577 31.948 37.3957 31.8191 37.4659 31.7077C37.5361 31.5962 37.6358 31.5066 37.7537 31.4489ZM38.9462 21.3334C38.9686 21.0179 39.0593 20.7113 39.2119 20.435C39.3645 20.1586 39.5753 19.9191 39.8295 19.7333C40.651 19.2177 42.0997 19.4577 44.0342 20.4266C46.1365 21.4756 47.806 21.68 48.9897 21.0489C49.3527 20.8439 49.664 20.5577 49.8999 20.2125C50.1357 19.8673 50.2897 19.4722 50.35 19.0578L48.5833 18.8088C48.5551 18.9476 48.4969 19.0783 48.4129 19.192C48.329 19.3057 48.2214 19.3994 48.0975 19.4666C47.7265 19.6534 46.799 19.8133 44.7762 18.8C42.2322 17.5289 40.2358 17.3245 38.8578 18.1955C38.363 18.5414 37.9535 18.997 37.661 19.5271C37.3685 20.0572 37.2008 20.6477 37.1707 21.2533L34.98 24.8889H27.7808L51.2333 9.93776V24.8889H41.1368L38.9462 21.3334ZM23.85 24.8889H1.76667V8.88892H23.85V24.8889ZM25.6167 8.88892H49.5815L25.6167 24.16V8.88892ZM51.2333 1.77776V7.11115H1.76667V1.77776H51.2333ZM1.76667 40.8888V26.6666H33.9112L32.8335 28.4444H20.8732C20.6389 28.4444 20.4142 28.5381 20.2486 28.7048C20.0829 28.8715 19.9898 29.0976 19.9898 29.3333V38.2222C19.9898 38.458 20.0829 38.6841 20.2486 38.8508C20.4142 39.0174 20.6389 39.1111 20.8732 39.1111H32.7628V40.8888H1.76667ZM34.556 46.2222V41.7777V40.3289H41.7905V46.2222H34.556ZM43.5395 40.8888V39.1111H48.5833C48.8176 39.1111 49.0423 39.0174 49.2079 38.8508C49.3736 38.6841 49.4667 38.458 49.4667 38.2222V29.3333C49.4667 29.0976 49.3736 28.8715 49.2079 28.7048C49.0423 28.5381 48.8176 28.4444 48.5833 28.4444H43.2833L42.2233 26.6666H51.2333V40.8888H43.5395Z" fill="url(#paint3_linear)"/>
<path d="M5.30105 3.55579H3.53438V5.33355H5.30105V3.55579Z" fill="url(#paint4_linear)"/>
<path d="M8.83352 3.55579H7.06685V5.33355H8.83352V3.55579Z" fill="url(#paint5_linear)"/>
<path d="M12.3675 3.55579H10.6008V5.33355H12.3675V3.55579Z" fill="url(#paint6_linear)"/>
<path d="M17.4116 28.4435H4.41771C4.18344 28.4435 3.95876 28.5371 3.79311 28.7039C3.62745 28.8706 3.53438 29.0967 3.53438 29.3324V38.2213C3.53438 38.4571 3.62745 38.6832 3.79311 38.8498C3.95876 39.0165 4.18344 39.1102 4.41771 39.1102H17.4116C17.6459 39.1102 17.8705 39.0165 18.0362 38.8498C18.2019 38.6832 18.2949 38.4571 18.2949 38.2213V29.3324C18.2949 29.0967 18.2019 28.8706 18.0362 28.7039C17.8705 28.5371 17.6459 28.4435 17.4116 28.4435ZM16.5282 37.3324H5.30104V30.2212H16.5282V37.3324Z" fill="url(#paint7_linear)"/>
<defs>
<linearGradient id="paint0_linear" x1="3.53438" y1="12.4443" x2="10.6975" y2="11.2398" gradientUnits="userSpaceOnUse">
<stop stop-color="#0085FF"/>
<stop offset="1" stop-color="#11A9FF"/>
</linearGradient>
<linearGradient id="paint1_linear" x1="3.53438" y1="15.999" x2="16.7688" y2="11.5482" gradientUnits="userSpaceOnUse">
<stop stop-color="#0085FF"/>
<stop offset="1" stop-color="#11A9FF"/>
</linearGradient>
<linearGradient id="paint2_linear" x1="3.53438" y1="23.9992" x2="15.405" y2="22.918" gradientUnits="userSpaceOnUse">
<stop stop-color="#0085FF"/>
<stop offset="1" stop-color="#11A9FF"/>
</linearGradient>
<linearGradient id="paint3_linear" x1="1.9744e-07" y1="48" x2="55.1217" y2="45.4254" gradientUnits="userSpaceOnUse">
<stop stop-color="#0085FF"/>
<stop offset="1" stop-color="#11A9FF"/>
</linearGradient>
<linearGradient id="paint4_linear" x1="3.53438" y1="5.33355" x2="5.37253" y2="5.25628" gradientUnits="userSpaceOnUse">
<stop stop-color="#0085FF"/>
<stop offset="1" stop-color="#11A9FF"/>
</linearGradient>
<linearGradient id="paint5_linear" x1="7.06685" y1="5.33355" x2="8.905" y2="5.25628" gradientUnits="userSpaceOnUse">
<stop stop-color="#0085FF"/>
<stop offset="1" stop-color="#11A9FF"/>
</linearGradient>
<linearGradient id="paint6_linear" x1="10.6008" y1="5.33355" x2="12.4389" y2="5.25628" gradientUnits="userSpaceOnUse">
<stop stop-color="#0085FF"/>
<stop offset="1" stop-color="#11A9FF"/>
</linearGradient>
<linearGradient id="paint7_linear" x1="3.53438" y1="39.1102" x2="18.8668" y2="38.2126" gradientUnits="userSpaceOnUse">
<stop stop-color="#0085FF"/>
<stop offset="1" stop-color="#11A9FF"/>
</linearGradient>
</defs>
</svg>
