<svg width="48" height="48" viewBox="0 0 48 48" fill="none" xmlns="http://www.w3.org/2000/svg">
<path d="M32.7511 19.4921L32.2084 18.0273C31.723 18.2111 31.2305 18.3793 30.7444 18.5278L31.1919 20.0247C31.7098 19.8667 32.2347 19.6876 32.7511 19.4921Z" fill="url(#paint0_linear)"/>
<path d="M27.871 22.898V20.7959C28.4454 20.7028 29.0222 20.5887 29.5943 20.4557L29.2452 18.9315C28.4988 19.1067 27.7425 19.2443 26.9969 19.3437L26.3226 19.4336V22.8987C26.3226 23.1083 26.3272 23.3171 26.3381 23.5252L27.8849 23.4454C27.8756 23.2632 27.871 23.0817 27.871 22.898Z" fill="url(#paint1_linear)"/>
<path d="M13.9354 9.3844C11.3736 9.3844 9.29028 11.4888 9.29028 14.0766C9.29028 16.6643 11.3736 18.7687 13.9354 18.7687C16.4973 18.7687 18.5806 16.6643 18.5806 14.0766C18.5806 11.4888 16.4973 9.3844 13.9354 9.3844ZM13.9354 17.2047C12.2276 17.2047 10.8387 15.8017 10.8387 14.0766C10.8387 12.3514 12.2276 10.9485 13.9354 10.9485C15.6433 10.9485 17.0322 12.3514 17.0322 14.0766C17.0322 15.8017 15.6433 17.2047 13.9354 17.2047Z" fill="url(#paint2_linear)"/>
<path d="M34.4346 13.9108L34.0653 13.7083L33.696 13.9108C30.7324 15.5327 27.3778 16.4015 23.9954 16.4219L23.2258 16.4265V22.8979C23.2258 29.6834 27.4753 35.7974 33.8005 38.1107L34.0645 38.2068L34.3285 38.1107C40.6537 35.7974 44.9032 29.6834 44.9032 22.8979V16.4265L44.1337 16.4219C40.7536 16.4015 37.3998 15.5327 34.4346 13.9108ZM43.3549 22.8979C43.3549 28.9327 39.6333 34.3795 34.0645 36.5403C28.4958 34.3788 24.7742 28.932 24.7742 22.8979V17.9671C28.0088 17.8334 31.1977 16.981 34.0653 15.4827C36.9337 16.981 40.1218 17.8334 43.3549 17.9671V22.8979Z" fill="url(#paint3_linear)"/>
<path d="M30.9681 23.9193L27.5508 27.3712L32.5165 32.3871L42.1274 22.679L38.71 19.2272L32.5165 25.4834L30.9681 23.9193ZM39.9379 22.679L32.5165 30.1755L29.7403 27.3712L30.9681 26.1309L32.5165 27.6949L38.71 21.4388L39.9379 22.679Z" fill="url(#paint4_linear)"/>
<path d="M48 13.2945H44.2614C40.7822 13.2945 37.4137 12.2645 34.4896 10.2946L34.0351 10.028L33.6085 10.3149C31.8457 11.5028 29.9048 12.3443 27.871 12.8245V11.111L25.831 10.6261C25.5739 9.71982 25.2155 8.84704 24.7618 8.02046L25.8658 6.21943L21.7138 2.02543L19.9308 3.14062C19.1125 2.68233 18.2485 2.3203 17.3513 2.06063L16.8712 0H10.9997L10.5198 2.06063C9.62246 2.3203 8.75842 2.68233 7.94013 3.14062L6.15716 2.02543L2.00516 6.21943L3.10916 8.02046C2.65548 8.84704 2.29703 9.71982 2.04 10.6261L0 11.111V17.0419L2.04 17.5267C2.29703 18.4331 2.65548 19.3059 3.10916 20.1325L2.00516 21.9335L6.15716 26.1275L7.94013 25.0123C8.75842 25.4706 9.62246 25.8327 10.5198 26.0923L10.9997 28.153H16.8712L17.3513 26.0923C18.2485 25.8327 19.1125 25.4706 19.9308 25.0123L20.2878 25.2352C20.7027 28.6159 21.9894 31.7871 23.9613 34.4475L21.3569 44.0938L25.1798 43.128L28.073 47.9992L30.6689 40.1329C31.6784 40.6482 32.7368 41.0845 33.8462 41.4145L34.0645 41.4803L34.2829 41.4154C35.3922 41.0853 36.4506 40.6489 37.4601 40.1336L40.056 48L42.9492 43.1287L46.7721 44.0945L44.1678 34.4483C46.5886 31.181 48 27.1504 48 22.8977V13.2945ZM19.9478 23.1839L19.543 23.4326C18.6023 24.0082 17.5866 24.4344 16.5213 24.6972L16.0599 24.8114L15.6449 26.5889H12.2261L11.8118 24.8114L11.3505 24.6972C10.2852 24.4344 9.26943 24.0082 8.32875 23.4326L7.92386 23.1839L6.38632 24.1451L3.96851 21.7028L4.92 20.1497L4.67381 19.7407C4.104 18.7905 3.68206 17.7645 3.42194 16.6884L3.30891 16.2224L1.54839 15.8032V12.3498L3.30813 11.9313L3.42116 11.4653C3.68129 10.3892 4.10323 9.36321 4.67303 8.41302L4.91923 8.00403L3.96774 6.45016L6.38555 4.0079L7.92312 4.96902L8.32801 4.72027C9.26869 4.1447 10.2843 3.71853 11.3496 3.45577L11.8111 3.34157L12.2261 1.56405H15.6449L16.0591 3.34157L16.5205 3.45577C17.5858 3.71853 18.6015 4.1447 19.5422 4.72027L19.9471 4.96902L21.4847 4.0079L23.9025 6.45016L22.951 8.00328L23.1972 8.41227C23.767 9.36238 24.1889 10.3884 24.4491 11.4645L24.562 11.9306L26.3226 12.3498V13.1177C25.5135 13.2319 24.6944 13.2945 23.8676 13.2945H23.1863C22.7907 8.48501 18.7974 4.69216 13.9355 4.69216C8.81268 4.69216 4.64516 8.90184 4.64516 14.0765C4.64516 19.2511 8.81268 23.4608 13.9355 23.4608C16.2426 23.4608 18.4412 22.5857 20.129 21.0615V22.8985C20.129 23.0361 20.143 23.1714 20.146 23.3083L19.9478 23.1839ZM20.129 13.2945V18.7522C18.6681 20.7213 16.375 21.8967 13.9355 21.8967C9.66656 21.8967 6.19355 18.3886 6.19355 14.0765C6.19355 9.76436 9.66656 6.25621 13.9355 6.25621C17.9427 6.25621 21.2485 9.34837 21.6379 13.2945H20.129ZM27.6689 44.2791L25.9169 41.3301L23.5463 41.9284L25.1713 35.9083C26.3729 37.2386 27.7572 38.4022 29.2932 39.3562L27.6689 44.2791ZM44.5827 41.9284L42.2121 41.3301L40.4601 44.2791L38.8359 39.3562C40.3719 38.4022 41.7562 37.2386 42.9577 35.9083L44.5827 41.9284ZM46.4516 22.8977C46.4516 30.6351 41.3698 37.5725 34.0645 39.8489C26.7593 37.5725 21.6774 30.6351 21.6774 22.8977V14.8585H23.8676C27.4854 14.8585 30.9925 13.8348 34.0638 11.8805C37.1202 13.8309 40.6359 14.8585 44.2614 14.8585H46.4516V22.8977Z" fill="url(#paint5_linear)"/>
<defs>
<linearGradient id="paint0_linear" x1="30.7444" y1="20.0247" x2="32.8322" y2="19.9359" gradientUnits="userSpaceOnUse">
<stop stop-color="#0085FF"/>
<stop offset="1" stop-color="#11A9FF"/>
</linearGradient>
<linearGradient id="paint1_linear" x1="26.3226" y1="23.5252" x2="29.7296" y2="23.4225" gradientUnits="userSpaceOnUse">
<stop stop-color="#0085FF"/>
<stop offset="1" stop-color="#11A9FF"/>
</linearGradient>
<linearGradient id="paint2_linear" x1="9.29028" y1="18.7687" x2="18.9566" y2="18.3639" gradientUnits="userSpaceOnUse">
<stop stop-color="#0085FF"/>
<stop offset="1" stop-color="#11A9FF"/>
</linearGradient>
<linearGradient id="paint3_linear" x1="23.2258" y1="38.2068" x2="45.7886" y2="37.3623" gradientUnits="userSpaceOnUse">
<stop stop-color="#0085FF"/>
<stop offset="1" stop-color="#11A9FF"/>
</linearGradient>
<linearGradient id="paint4_linear" x1="27.5508" y1="32.3871" x2="42.7107" y2="31.6768" gradientUnits="userSpaceOnUse">
<stop stop-color="#0085FF"/>
<stop offset="1" stop-color="#11A9FF"/>
</linearGradient>
<linearGradient id="paint5_linear" x1="1.78814e-07" y1="48" x2="49.9411" y2="45.8874" gradientUnits="userSpaceOnUse">
<stop stop-color="#0085FF"/>
<stop offset="1" stop-color="#11A9FF"/>
</linearGradient>
</defs>
</svg>
