<svg width="48" height="48" viewBox="0 0 48 48" fill="none" xmlns="http://www.w3.org/2000/svg">
<path d="M47.3166 12.6017L47.3148 12.6001L44.2165 12.1579C43.7811 12.0959 43.4783 11.6925 43.5404 11.2569C43.5701 11.0476 43.682 10.8587 43.851 10.7319L46.3551 8.85328C46.707 8.5893 46.7783 8.08996 46.5144 7.73795L43.6471 3.91388C43.3832 3.56188 42.884 3.49057 42.532 3.75455L40.0287 5.63311C39.6783 5.89914 39.1788 5.83059 38.9128 5.48009C38.7836 5.30982 38.7284 5.09483 38.7592 4.88339L39.202 1.78432C39.2644 1.34874 38.962 0.945161 38.5268 0.882566L38.5258 0.882477L33.798 0.206915C33.3627 0.144409 32.9589 0.446714 32.8964 0.8823L32.4536 3.98163C32.3916 4.41722 31.9883 4.72006 31.5528 4.658C31.3435 4.62821 31.1548 4.51636 31.0279 4.34725L29.1507 1.84247C28.8867 1.49047 28.3876 1.41916 28.0356 1.68314L25.6422 3.47972C24.5594 3.36458 23.4675 3.36458 22.3846 3.47972C15.2935 4.29043 9.73271 9.94709 9.04151 17.0528C9.02 17.2782 9.012 17.5021 9.00089 17.7259H8.76191C8.38399 17.7266 8.05853 17.9929 7.98297 18.3633L7.43261 20.9812L5.228 19.4604C4.9116 19.242 4.4843 19.2809 4.21251 19.5527L1.82311 21.9428C1.55172 22.2146 1.51289 22.6414 1.73072 22.9578L3.24401 25.159L0.626023 25.7095C0.259849 25.7898 -0.000794644 26.1145 1.82035e-06 26.4895V29.6762C-0.000197296 30.053 0.263732 30.3784 0.632396 30.4562L3.25037 31.0067L1.73709 33.2079C1.51926 33.5243 1.55809 33.9511 1.82948 34.2229L4.21888 36.613C4.49068 36.8848 4.91797 36.9237 5.23437 36.7053L7.435 35.1877L7.98536 37.8063C8.06092 38.1768 8.38638 38.4431 8.7643 38.4437H11.9501C12.3269 38.4439 12.6523 38.1799 12.7299 37.8111L13.2803 35.1925L15.4809 36.7061C15.7972 36.9241 16.2239 36.8852 16.4956 36.6138L17.7325 35.3725V37.643C17.7361 38.7764 18.3431 39.822 19.3254 40.3868V44.8132C19.3254 46.5732 20.7518 47.9999 22.5113 47.9999H25.6972C27.4566 47.9999 28.883 46.5732 28.883 44.8132V40.3868C29.8653 39.822 30.4724 38.7764 30.4759 37.643V34.4898C30.4975 33.163 31.1915 31.9381 32.3181 31.2377C32.9791 30.8088 33.606 30.3293 34.1931 29.8037L33.1306 28.6166C32.6054 29.0874 32.0443 29.5166 31.4524 29.9001C29.8709 30.893 28.9028 32.6222 28.883 34.4898V37.643C28.883 38.5231 28.1699 39.2364 27.29 39.2364H20.9184C20.0386 39.2364 19.3254 38.5231 19.3254 37.643V34.4236C19.307 32.5914 18.3541 30.8956 16.799 29.9271C10.4864 25.9595 8.5844 17.6243 12.551 11.3099C15.0121 7.39208 19.3072 5.00752 23.933 4.99098C23.9212 5.01934 23.9107 5.04833 23.902 5.07785C23.8724 5.28697 23.9271 5.49938 24.054 5.66814L25.9313 8.17211C26.1292 8.42836 26.1483 8.78028 25.9791 9.05645C25.8163 9.3343 25.5013 9.4859 25.1827 9.43966L22.0844 8.99669C21.6489 8.93428 21.2454 9.23667 21.1828 9.67217L21.1828 9.67306L20.5066 14.4046C20.4442 14.8401 20.7465 15.2438 21.1819 15.3063L21.1828 15.3064L24.2811 15.7494C24.7165 15.8114 25.0193 16.2148 24.9572 16.6504C24.9275 16.8597 24.8156 17.0486 24.6466 17.1755L22.1433 19.0532C21.7914 19.3172 21.7201 19.8165 21.984 20.1686L24.8513 23.9927C25.1152 24.3447 25.6144 24.416 25.9664 24.152L28.4705 22.2742C28.8227 22.0107 29.3219 22.0828 29.5853 22.4351C29.7114 22.6038 29.7656 22.8155 29.736 23.0239L29.294 26.123C29.2315 26.5585 29.5337 26.9623 29.9692 27.0248L34.7004 27.7013C34.7376 27.706 34.7752 27.7084 34.8127 27.7084C35.2092 27.7089 35.5457 27.4176 35.602 27.0248L36.044 23.9258C36.106 23.4902 36.5093 23.1873 36.9448 23.2494C37.1541 23.2792 37.3428 23.3909 37.4697 23.5601L39.3477 26.064C39.6117 26.4161 40.1108 26.4874 40.4628 26.2234L44.2859 23.3553C44.6378 23.0913 44.7091 22.592 44.4452 22.24L42.5679 19.736C42.3708 19.4794 42.3518 19.128 42.5201 18.8517C42.6795 18.5702 42.9972 18.4176 43.3165 18.4692L46.4148 18.9114C46.8501 18.974 47.2539 18.6715 47.3164 18.236L47.9918 13.5035C48.0543 13.0679 47.7521 12.6643 47.3166 12.6017ZM20.9184 40.8298H27.29V42.4232H20.9184V40.8298ZM20.9184 44.0165H27.29V44.8132C27.29 45.6932 26.577 46.4066 25.6972 46.4066H22.5113C21.6315 46.4066 20.9184 45.6932 20.9184 44.8132V44.0165ZM14.5777 30.2777C15.0125 30.6335 15.4669 30.9647 15.9388 31.2695C16.6914 31.7453 17.2579 32.465 17.5437 33.3083L15.8353 35.014L14.1811 33.8732C13.4567 33.3738 12.4648 33.5565 11.9655 34.281C11.8459 34.4549 11.7618 34.6506 11.7184 34.857L11.3011 36.8464H9.40782L8.99049 34.8602C8.80931 33.9991 7.96455 33.4479 7.10367 33.6291C6.89729 33.6726 6.70156 33.7566 6.52783 33.8763L4.87277 35.014L3.42162 33.5656L4.56136 31.9117C5.06104 31.1874 4.87905 30.1951 4.15496 29.6953C3.98113 29.5753 3.7852 29.4911 3.57852 29.4475L1.59293 29.0293V27.1364L3.57852 26.7182C4.4391 26.5356 4.98886 25.6898 4.80637 24.8289C4.76307 24.6246 4.68013 24.431 4.56215 24.2587L3.42162 22.6001L4.87277 21.1517L6.52862 22.2926C7.25331 22.7914 8.24521 22.6081 8.74389 21.8832C8.86337 21.7097 8.9472 21.5141 8.99049 21.3079L9.12987 20.645C9.25751 21.563 9.46889 22.4672 9.76151 23.3466C7.14081 23.6591 5.26962 26.0375 5.58203 28.659C5.89444 31.2803 8.27228 33.152 10.893 32.8396C12.4706 32.6513 13.8516 31.6913 14.5777 30.2777ZM13.3408 29.1552C12.746 30.8088 10.9238 31.667 9.27067 31.0722C7.61749 30.4772 6.7595 28.6546 7.35416 27.001C7.80915 25.7359 9.00996 24.8933 10.354 24.8962C10.3643 24.8962 10.3739 24.8962 10.3842 24.8962C11.1166 26.4759 12.1169 27.9167 13.3408 29.1552ZM45.8477 17.2193L43.538 16.8894C42.2316 16.7028 41.0213 17.611 40.8348 18.9176C40.7452 19.5451 40.9084 20.1825 41.2888 20.6897L42.6882 22.5562L40.1395 24.4683L38.7393 22.6025C37.9476 21.5463 36.45 21.3322 35.3942 22.124C34.8873 22.5043 34.5521 23.0704 34.4622 23.6979L34.1396 26.0115L30.9865 25.5605L31.3162 23.2502C31.5033 21.9435 30.5959 20.7325 29.2896 20.5455C28.6619 20.4556 28.0244 20.6189 27.5171 20.9995L25.6509 22.3993L23.7395 19.8499L25.6048 18.4493C26.6606 17.6575 26.8748 16.1594 26.083 15.1033C25.7029 14.5963 25.137 14.261 24.5096 14.1712L22.1999 13.8413L22.6507 10.6873L24.9604 11.0171C26.2668 11.2042 27.4773 10.2966 27.6644 8.98994C27.7542 8.36203 27.5909 7.72435 27.2104 7.21692L25.8063 5.34868L28.3549 3.43669L29.7551 5.30333C30.5468 6.35935 32.0444 6.57363 33.1002 5.78168C33.6071 5.40149 33.9424 4.83538 34.0322 4.20783L34.3619 1.89751L37.5151 2.34759L37.1853 4.658C36.9988 5.96475 37.9066 7.17531 39.213 7.36194C39.8403 7.45156 40.4776 7.28823 40.9845 6.90777L42.8507 5.50801L44.7621 8.05742L42.896 9.45798C41.8402 10.2499 41.626 11.7479 42.4178 12.804C42.7979 13.311 43.3638 13.6463 43.9912 13.7362L46.3009 14.066L45.8477 17.2193Z" fill="url(#paint0_linear)"/>
<path d="M34.2484 7.57935C30.7295 7.57935 27.8767 10.4328 27.8767 13.9527C27.8767 17.4727 30.7295 20.3262 34.2484 20.3262C37.7675 20.3262 40.6202 17.4727 40.6202 13.9527C40.6162 10.4344 37.7659 7.58317 34.2484 7.57935ZM34.2484 18.7329C31.6092 18.7329 29.4697 16.5927 29.4697 13.9527C29.4697 11.3128 31.6092 9.17267 34.2484 9.17267C36.8877 9.17267 39.0273 11.3128 39.0273 13.9527C39.0242 16.5915 36.8865 18.7298 34.2484 18.7329Z" fill="url(#paint1_linear)"/>
<path d="M24.8994 35.2527H23.3064V37.6428H24.8994V35.2527Z" fill="url(#paint2_linear)"/>
<path d="M20.6205 27.4286C15.7039 25.5074 13.2751 19.963 15.1959 15.0451C15.9402 13.1394 17.276 11.5229 19.0069 10.433L18.1554 9.08496C12.945 12.3684 11.382 19.2552 14.6646 24.4671C15.9358 26.4856 17.8207 28.0432 20.0423 28.9113C22.0088 29.6649 23.3074 31.5531 23.3078 33.6595H24.9008C24.9033 30.8958 23.2006 28.4172 20.6205 27.4286Z" fill="url(#paint3_linear)"/>
<path d="M44.8122 29.6755H39.2369V31.2689H44.8122V29.6755Z" fill="url(#paint4_linear)"/>
<path d="M38.9493 33.8435L37.9297 35.0678L42.7088 39.0505L43.7284 37.8263L38.9493 33.8435Z" fill="url(#paint5_linear)"/>
<path d="M36.0522 36.049H34.4592V41.6258H36.0522V36.049Z" fill="url(#paint6_linear)"/>
<path d="M7.18378 12.1727L0.8125 13.7659L1.1986 15.3108L7.56988 13.7177L7.18378 12.1727Z" fill="url(#paint7_linear)"/>
<path d="M3.06164 4.33105L2.13629 5.62696L7.71111 9.60992L8.63645 8.3141L3.06164 4.33105Z" fill="url(#paint8_linear)"/>
<path d="M10.5041 0L8.96094 0.394686L10.5899 6.76763L12.1331 6.37294L10.5041 0Z" fill="url(#paint9_linear)"/>
<defs>
<linearGradient id="paint0_linear" x1="1.78814e-07" y1="47.9999" x2="49.9404" y2="45.8785" gradientUnits="userSpaceOnUse">
<stop stop-color="#0085FF"/>
<stop offset="1" stop-color="#11A9FF"/>
</linearGradient>
<linearGradient id="paint1_linear" x1="27.8767" y1="20.3262" x2="41.1355" y2="19.7655" gradientUnits="userSpaceOnUse">
<stop stop-color="#0085FF"/>
<stop offset="1" stop-color="#11A9FF"/>
</linearGradient>
<linearGradient id="paint2_linear" x1="23.3064" y1="37.6428" x2="24.9654" y2="37.596" gradientUnits="userSpaceOnUse">
<stop stop-color="#0085FF"/>
<stop offset="1" stop-color="#11A9FF"/>
</linearGradient>
<linearGradient id="paint3_linear" x1="12.947" y1="33.6595" x2="25.4012" y2="33.4032" gradientUnits="userSpaceOnUse">
<stop stop-color="#0085FF"/>
<stop offset="1" stop-color="#11A9FF"/>
</linearGradient>
<linearGradient id="paint4_linear" x1="39.2369" y1="31.2689" x2="44.9235" y2="30.4273" gradientUnits="userSpaceOnUse">
<stop stop-color="#0085FF"/>
<stop offset="1" stop-color="#11A9FF"/>
</linearGradient>
<linearGradient id="paint5_linear" x1="37.9297" y1="39.0505" x2="43.9604" y2="38.7664" gradientUnits="userSpaceOnUse">
<stop stop-color="#0085FF"/>
<stop offset="1" stop-color="#11A9FF"/>
</linearGradient>
<linearGradient id="paint6_linear" x1="34.4592" y1="41.6258" x2="36.1193" y2="41.6057" gradientUnits="userSpaceOnUse">
<stop stop-color="#0085FF"/>
<stop offset="1" stop-color="#11A9FF"/>
</linearGradient>
<linearGradient id="paint7_linear" x1="0.8125" y1="15.3108" x2="7.79777" y2="14.6745" gradientUnits="userSpaceOnUse">
<stop stop-color="#0085FF"/>
<stop offset="1" stop-color="#11A9FF"/>
</linearGradient>
<linearGradient id="paint8_linear" x1="2.13629" y1="9.60992" x2="8.89309" y2="9.25797" gradientUnits="userSpaceOnUse">
<stop stop-color="#0085FF"/>
<stop offset="1" stop-color="#11A9FF"/>
</linearGradient>
<linearGradient id="paint9_linear" x1="8.96094" y1="6.76763" x2="12.266" y2="6.7021" gradientUnits="userSpaceOnUse">
<stop stop-color="#0085FF"/>
<stop offset="1" stop-color="#11A9FF"/>
</linearGradient>
</defs>
</svg>
