<svg width="43" height="48" viewBox="0 0 43 48" fill="none" xmlns="http://www.w3.org/2000/svg">
<path d="M22.1257 15.8359L17.644 8.9436H7.95394L16.1905 20.9641L22.1257 15.8359Z" fill="white"/>
<path d="M24.4271 30.8923L28.9087 37.7025H38.5988L30.6449 26.0923L24.4271 30.8923Z" fill="white"/>
<path d="M42.919 0L21.6412 22.8513L24.9116 24.4513L0 48L31.8158 23.2615L28.2224 21.4564L42.919 0Z" fill="url(#paint0_linear)"/>
<path d="M24.9116 24.4513L21.6412 22.8513L42.919 0L15.3023 23.8359L18.8553 25.6L0 48L24.9116 24.4513Z" fill="url(#paint1_linear)"/>
<path d="M37.469 5.57949L32.099 11.241C30.2821 13.1282 28.5056 15.0154 26.7291 16.9026L21.3996 22.6051L21.0766 22.9744L21.5207 23.1795C22.4493 23.6308 23.378 24.0821 24.3066 24.5333L18.4522 30.0718C16.393 32.041 14.3339 34.0103 12.2747 36.0205L6.13769 41.9692C4.11893 43.9795 2.05978 45.9487 0.0410156 48C2.18091 46.1128 4.28043 44.1436 6.37994 42.2564L12.6785 36.4308C14.778 34.5026 16.8775 32.5333 18.9367 30.5641L25.1949 24.6974L25.5986 24.3282L25.1141 24.0821C24.1855 23.6308 23.2165 23.1795 22.2878 22.7282L27.254 17.3538C29.0305 15.4256 30.7667 13.5385 32.5432 11.6103L37.792 5.82564C39.5281 3.89744 41.2642 1.96923 43.0004 0C41.1027 1.84615 39.2859 3.73333 37.469 5.57949Z" fill="white"/>
<defs>
<linearGradient id="paint0_linear" x1="0.00553142" y1="23.9932" x2="42.9132" y2="23.9932" gradientUnits="userSpaceOnUse">
<stop stop-color="#ED4125"/>
<stop offset="0.5907" stop-color="#F79716"/>
<stop offset="1" stop-color="#FECE0C"/>
</linearGradient>
<linearGradient id="paint1_linear" x1="0.00553142" y1="23.9932" x2="42.9132" y2="23.9932" gradientUnits="userSpaceOnUse">
<stop stop-color="#FECE0C"/>
<stop offset="0.4093" stop-color="#F79716"/>
<stop offset="1" stop-color="#ED4125"/>
</linearGradient>
</defs>
</svg>
