<svg width="45" height="45" viewBox="0 0 45 45" fill="none" xmlns="http://www.w3.org/2000/svg">
<circle cx="22.5" cy="22.5" r="22.5" fill="url(#paint0_linear)"/>
<path d="M35.9937 32.9834V32.9824H36V24.0369C36 19.6606 35.0344 16.2896 29.7906 16.2896C27.2698 16.2896 25.5781 17.6392 24.8875 18.9187H24.8146V16.6981H19.8427V32.9824H25.0198V24.919C25.0198 22.7959 25.4323 20.743 28.1271 20.743C30.7823 20.743 30.8219 23.1659 30.8219 25.0552V32.9834H35.9937Z" fill="white"/>
<path d="M11.4125 16.6992H16.5959V32.9839H11.4125V16.6992Z" fill="white"/>
<path d="M14.0021 8.5918C12.3448 8.5918 11 9.90392 11 11.5209C11 13.138 12.3448 14.4775 14.0021 14.4775C15.6594 14.4775 17.0042 13.138 17.0042 11.5209C17.0031 9.90392 15.6583 8.5918 14.0021 8.5918V8.5918Z" fill="white"/>
<defs>
<linearGradient id="paint0_linear" x1="0" y1="0" x2="45" y2="0" gradientUnits="userSpaceOnUse">
<stop stop-color="#F1325E"/>
<stop offset="1" stop-color="#FC199A"/>
</linearGradient>
</defs>
</svg>
