<svg width="24" height="24" viewBox="0 0 24 24" fill="none" xmlns="http://www.w3.org/2000/svg">
<path fill-rule="evenodd" clip-rule="evenodd" d="M12 24C5.37258 24 0 18.6274 0 12C0 5.37258 5.37258 0 12 0C18.6274 0 24 5.37258 24 12C24 18.6274 18.6274 24 12 24ZM12.1672 11.3266C13.1498 11.3266 17.9272 8.64009 17.9272 8.64009L17.9349 8.16009C17.9349 7.63017 17.5048 7.20009 16.9735 7.20009H7.36097C6.83009 7.20009 6.40001 7.63017 6.40001 8.16009V8.58777C6.40001 8.58777 11.2298 11.3266 12.1672 11.3266ZM6.40769 10.0799C6.40721 10.0799 11.2298 12.6464 12.1672 12.6464C13.1949 12.6464 17.9272 10.0799 17.9272 10.0799L17.9349 15.8399C17.9349 16.3698 17.5048 16.7999 16.9735 16.7999H7.36097C6.83057 16.7999 6.40001 16.3698 6.40001 15.8399L6.40769 10.0799Z" fill="url(#paint0_linear)"/>
<defs>
<linearGradient id="paint0_linear" x1="8.9407e-08" y1="24" x2="24.9706" y2="22.9437" gradientUnits="userSpaceOnUse">
<stop stop-color="#F52C68"/>
<stop offset="1" stop-color="#FF4874"/>
</linearGradient>
</defs>
</svg>
