<svg width="45" height="45" viewBox="0 0 45 45" fill="none" xmlns="http://www.w3.org/2000/svg">
<circle cx="22.5" cy="22.5" r="22.5" fill="url(#paint0_linear)"/>
<path d="M32.6562 11.519H12.3438C10.5 11.519 9 12.9825 9 14.8119V28.715C9 30.5443 10.5 32.0078 12.3438 32.0078H32.6562C34.5 32.0078 36 30.5443 36 28.715V14.8119C36 12.9825 34.5 11.519 32.6562 11.519ZM32.6562 14.0395C32.7624 14.0395 32.8634 14.0613 32.9557 14.0993L22.5 23.0585L12.0443 14.0993C12.1366 14.0613 12.2376 14.0395 12.3437 14.0395H32.6562ZM32.6562 29.4873H12.3438C11.9127 29.4873 11.5625 29.1411 11.5625 28.7149V16.707L21.9881 25.6401C22.1353 25.766 22.3177 25.8286 22.5 25.8286C22.6823 25.8286 22.8647 25.7661 23.0119 25.6401L33.4375 16.707V28.715C33.4375 29.1411 33.0873 29.4873 32.6562 29.4873Z" fill="white"/>
<defs>
<linearGradient id="paint0_linear" x1="0" y1="0" x2="45" y2="0" gradientUnits="userSpaceOnUse">
<stop stop-color="#F1325E"/>
<stop offset="1" stop-color="#FC199A"/>
</linearGradient>
</defs>
</svg>
