<svg width="396" height="381" viewBox="0 0 396 381" fill="none" xmlns="http://www.w3.org/2000/svg">
<rect x="0.5" y="0.5" width="395" height="379" stroke="#76777E"/>
<path d="M165.956 235.309C166.824 233.923 167.172 231.844 166.477 228.38C166.477 228.38 177.071 248.82 186.103 257.654C195.134 266.488 201.387 270.125 217.539 273.59C233.691 277.054 247.759 275.668 253.665 273.59C259.57 271.511 261.828 270.125 263.564 265.275C265.301 260.425 266.691 255.921 269.47 251.937C272.422 247.78 274.333 239.985 276.243 233.576C278.154 227.167 283.538 216.255 282.148 207.074C280.759 197.894 278.154 187.5 277.98 183.69C277.806 179.879 278.154 176.588 278.675 171.738C279.196 166.888 279.369 165.155 274.854 153.377C270.338 141.598 266.17 131.032 262.522 126.355C262.522 126.355 255.401 97.4273 196.35 112.67" stroke="#76777E"/>
<path d="M279.891 195.122C279.891 195.122 283.19 193.39 282.322 188.367C281.627 183.343 279.891 178.666 281.106 164.462C282.322 150.259 281.801 144.542 279.717 133.803C277.806 122.89 272.596 109.726 250.886 100.892" stroke="#76777E"/>
<path d="M239.944 109.899C239.944 109.899 259.917 102.278 251.059 83.0507C242.202 63.8236 211.981 72.4844 202.082 76.122C192.182 79.9328 163.003 93.7902 156.056 100.719C149.109 107.821 128.094 150.779 124.099 155.629C120.104 160.479 119.236 158.92 119.062 164.463C119.062 164.463 116.283 168.447 115.241 174.683C114.199 180.745 111.768 182.304 115.241 194.949C118.715 207.594 116.283 210.712 118.367 213.137C120.452 215.735 122.362 220.412 122.362 220.412C122.362 220.412 123.404 235.655 129.657 243.45C129.657 243.45 131.22 258.174 133.999 265.276C136.778 272.378 143.377 283.464 138.862 291.432C134.346 299.4 132.262 296.801 132.262 296.801L134.346 299.4C134.346 299.4 125.662 305.462 115.067 302.517C115.067 302.517 117.325 307.368 133.651 305.635C133.651 305.635 143.377 302.517 145.288 298.36C145.288 298.36 151.193 303.903 149.283 310.312L151.54 307.021C151.54 307.021 150.846 317.587 145.635 322.784C145.635 322.784 152.061 319.666 153.972 315.682C153.972 315.682 151.367 326.075 141.814 329.886C141.814 329.886 149.456 329.713 151.019 328.154L148.24 331.964C148.24 331.964 161.267 331.445 165.609 318.8C169.951 306.155 165.088 286.408 165.088 286.408C165.088 286.408 168.387 300.612 177.593 307.368C186.798 314.296 190.792 321.052 190.271 327.461C190.271 327.461 187.492 284.676 169.256 260.252C169.256 260.252 176.55 260.772 177.419 260.772C177.419 260.772 166.824 243.623 165.609 236.348C165.609 236.348 163.872 237.561 159.009 237.561C159.009 237.561 147.546 225.609 155.882 206.208C164.219 186.808 174.119 163.077 174.64 151.818C174.64 151.818 196.003 125.316 196.524 113.537C196.524 113.537 217.713 83.3971 236.991 92.9241" stroke="#76777E"/>
<path d="M280.064 222.665C280.064 222.665 278.327 245.01 270.338 259.213C262.349 273.417 259.222 273.937 259.222 273.937C259.222 273.937 267.906 298.014 263.043 303.038L261.48 300.439C261.48 300.439 258.875 318.627 249.844 319.666C249.844 319.666 249.844 316.202 249.844 314.123C249.844 314.123 246.544 314.643 245.502 314.297C244.46 314.123 248.107 305.982 243.417 298.88" stroke="#76777E"/>
<path d="M245.328 275.842C245.328 275.842 242.549 293.683 243.591 311.698" stroke="#76777E"/>
<path d="M137.993 303.903C137.993 303.903 116.11 315.682 113.331 318.453C110.552 321.225 100.131 331.098 100.652 343.57C100.652 343.57 114.199 359.16 138.862 369.899C149.63 374.576 162.309 378.387 176.898 379.599C189.75 380.639 204.166 379.772 219.797 375.615C293.785 356.042 288.748 311.525 284.927 306.328C284.927 306.328 276.59 296.628 264.606 297.667" stroke="#76777E"/>
<path d="M131.741 307.194C131.741 307.194 85.3681 326.941 68 347.034" stroke="#76777E"/>
<path d="M264.433 294.896C264.433 294.896 291.527 294.377 307.506 304.25C323.484 314.123 328 326.942 328 326.942" stroke="#76777E"/>
<path d="M294.827 177.281L294.653 176.068C294.653 175.895 294.48 175.549 294.132 175.549C292.743 168.447 288.575 166.022 281.801 165.848C274.506 165.675 260.612 167.234 258.007 179.706C258.007 179.706 258.007 180.052 256.617 178.493C255.228 176.934 254.359 176.588 250.886 176.934C247.586 177.281 243.765 178.147 241.681 181.438C241.681 181.438 240.291 167.927 219.276 170.006C198.261 171.738 197.218 182.651 197.218 182.651C197.218 182.651 188.187 183.863 186.798 184.036C185.234 184.21 181.587 185.422 181.587 185.422L163.177 187.501L162.656 188.713C162.656 188.713 180.892 186.288 181.587 186.288C181.587 186.288 184.192 187.154 187.666 186.808C191.14 186.461 196.524 185.768 196.524 185.768C196.524 185.768 195.134 208.287 214.239 213.31C233.344 218.333 244.286 194.083 242.028 183.17C242.028 183.17 242.896 179.533 247.933 177.974C252.97 176.415 254.88 177.627 255.749 178.667C256.444 179.879 257.833 180.745 257.833 180.745C257.833 180.745 256.617 206.555 273.291 207.421C288.922 208.287 295.001 186.635 294.48 177.627C294.653 177.8 294.827 177.454 294.827 177.281ZM232.128 207.247C223.444 217.294 209.723 211.578 205.902 208.114C199.65 202.224 197.392 192.351 197.566 185.942C198.608 185.768 198.434 184.902 198.434 184.902C198.434 184.902 198.434 184.383 198.434 183.69C198.434 182.997 198.087 182.824 198.087 182.824C198.261 182.304 198.434 181.784 198.608 181.265C202.255 174.336 212.85 170.525 220.665 170.525C228.481 170.525 238.381 171.911 240.639 180.572C242.896 189.06 240.639 197.201 232.128 207.247ZM289.096 196.335C283.364 207.94 274.333 208.46 268.254 205.515C262.175 202.571 256.791 187.501 259.57 177.281C262.349 167.061 280.585 164.463 288.227 167.754C291.18 168.966 292.917 171.911 293.438 175.549C291.701 175.895 288.401 176.761 287.185 177.281C285.622 177.974 285.101 178.493 285.101 178.493L278.848 179.706V180.399L285.101 179.186H286.317L293.785 178.32C293.785 183.69 292.222 190.272 289.096 196.335Z" fill="url(#paint0_linear)"/>
<defs>
<linearGradient id="paint0_linear" x1="198.985" y1="193.624" x2="293.929" y2="185.968" gradientUnits="userSpaceOnUse">
<stop offset="0.2246" stop-color="#EF3F7C"/>
<stop offset="0.9822" stop-color="#FF009B"/>
</linearGradient>
</defs>
</svg>
