<svg width="45" height="45" viewBox="0 0 45 45" fill="none" xmlns="http://www.w3.org/2000/svg">
<circle cx="22.5" cy="22.5" r="22.5" fill="url(#paint0_linear)"/>
<path d="M34.2802 24.3514C36.0906 16.4139 28.9635 9.20297 20.5937 10.5872C16.05 7.836 10 10.945 10 16.2197C10 17.4464 10.3469 18.5949 10.95 19.5848C9.26771 27.5407 16.4531 34.6479 24.8156 33.1691C30.7271 36.2191 37.2594 30.1364 34.2802 24.3514ZM26.3239 29.1383C24.1281 30.0195 20.5146 30.0246 18.3281 28.9076C15.2104 27.2856 14.6562 23.6339 17.3458 23.6339C19.3729 23.6339 18.7312 25.9399 20.7781 26.8801C21.7177 27.3039 23.7375 27.3476 24.9114 26.5752C26.0708 25.818 25.9646 24.6268 25.3344 24.0577C23.6646 22.5535 18.8865 23.1511 16.7021 20.5178C15.7531 19.3754 15.574 17.3601 16.7406 15.8986C18.774 13.3455 24.7406 13.19 27.3062 15.118C29.675 16.9068 29.0354 19.2809 27.1239 19.2809C24.825 19.2809 26.0333 16.3458 22.3219 16.3458C19.6312 16.3458 18.5729 18.2128 20.4677 19.1214C23.0364 20.3664 29.5823 19.9507 29.5823 24.8159C29.5771 26.8404 28.3052 28.3497 26.3239 29.1383Z" fill="white"/>
<defs>
<linearGradient id="paint0_linear" x1="0" y1="0" x2="45" y2="0" gradientUnits="userSpaceOnUse">
<stop stop-color="#F1325E"/>
<stop offset="1" stop-color="#FC199A"/>
</linearGradient>
</defs>
</svg>
