<svg width="187" height="118" viewBox="0 0 187 118" fill="none" xmlns="http://www.w3.org/2000/svg">
<mask id="path-1-inside-1" fill="white">
<path fill-rule="evenodd" clip-rule="evenodd" d="M0 80.6268C0 101.207 16.6839 117.891 37.2645 117.891H149.736C170.316 117.891 187 101.207 187 80.6268C187 63.3552 175.25 48.8281 159.307 44.6031C155.495 19.3541 133.702 0 107.389 0C87.8268 0 70.7627 10.6979 61.7283 26.5627C58.0286 24.7386 53.8641 23.7138 49.4601 23.7138C35.7981 23.7138 24.4396 33.5763 22.116 46.5701C9.08464 52.3752 0 65.4401 0 80.6268Z"/>
</mask>
<path fill-rule="evenodd" clip-rule="evenodd" d="M0 80.6268C0 101.207 16.6839 117.891 37.2645 117.891H149.736C170.316 117.891 187 101.207 187 80.6268C187 63.3552 175.25 48.8281 159.307 44.6031C155.495 19.3541 133.702 0 107.389 0C87.8268 0 70.7627 10.6979 61.7283 26.5627C58.0286 24.7386 53.8641 23.7138 49.4601 23.7138C35.7981 23.7138 24.4396 33.5763 22.116 46.5701C9.08464 52.3752 0 65.4401 0 80.6268Z" fill="white"/>
<path d="M159.307 44.6031L157.33 44.9017L157.526 46.2L158.795 46.5364L159.307 44.6031ZM61.7283 26.5627L60.8439 28.3565L62.5339 29.1897L63.4663 27.5524L61.7283 26.5627ZM22.116 46.5701L22.9298 48.3971L23.8981 47.9657L24.0847 46.9222L22.116 46.5701ZM37.2645 115.891C17.7885 115.891 2 100.103 2 80.6268H-2C-2 102.312 15.5793 119.891 37.2645 119.891V115.891ZM149.736 115.891H37.2645V119.891H149.736V115.891ZM185 80.6268C185 100.103 169.212 115.891 149.736 115.891V119.891C171.421 119.891 189 102.312 189 80.6268H185ZM158.795 46.5364C173.882 50.5348 185 64.285 185 80.6268H189C189 62.4255 176.617 47.1214 159.82 42.6698L158.795 46.5364ZM107.389 2C132.698 2 153.662 20.6162 157.33 44.9017L161.285 44.3045C157.327 18.092 134.706 -2 107.389 -2V2ZM63.4663 27.5524C72.1595 12.2867 88.5745 2 107.389 2V-2C87.0791 -2 69.3659 9.10915 59.9904 25.573L63.4663 27.5524ZM49.4601 25.7138C53.5506 25.7138 57.4132 26.665 60.8439 28.3565L62.6128 24.7689C58.644 22.8121 54.1775 21.7138 49.4601 21.7138V25.7138ZM24.0847 46.9222C26.2408 34.8652 36.7838 25.7138 49.4601 25.7138V21.7138C34.8124 21.7138 22.6384 32.2874 20.1472 46.2181L24.0847 46.9222ZM2 80.6268C2 66.2583 10.5936 53.8925 22.9298 48.3971L21.3021 44.7432C7.5757 50.8579 -2 64.6219 -2 80.6268H2Z" fill="#C4C4C4" mask="url(#path-1-inside-1)"/>
<path d="M82.9598 66.9309C82.9598 67.5429 83.0211 68.0392 83.1282 68.4031C83.2506 68.767 83.4037 69.164 83.6179 69.5941C83.6945 69.7264 83.7251 69.8587 83.7251 69.9745C83.7251 70.1399 83.6332 70.3053 83.4343 70.4707L82.4701 71.1655C82.3323 71.2647 82.1946 71.3144 82.0722 71.3144C81.9191 71.3144 81.7661 71.2316 81.613 71.0828C81.3988 70.8347 81.2151 70.57 81.062 70.3053C80.909 70.0241 80.756 69.7098 80.5876 69.3294C79.3938 70.8512 77.894 71.6121 76.088 71.6121C74.8024 71.6121 73.777 71.2151 73.0271 70.4211C72.2772 69.6271 71.8945 68.5685 71.8945 67.2452C71.8945 65.8392 72.3537 64.6978 73.2873 63.8377C74.2209 62.9775 75.4605 62.5474 77.0369 62.5474C77.5573 62.5474 78.0929 62.5971 78.6592 62.6798C79.2255 62.7625 79.8071 62.8948 80.4193 63.0437V61.8362C80.4193 60.579 80.1744 59.7023 79.6999 59.1895C79.2102 58.6768 78.3837 58.4286 77.2053 58.4286C76.6696 58.4286 76.1186 58.4948 75.5524 58.6437C74.9861 58.7926 74.4351 58.9745 73.8995 59.2061C73.6546 59.3219 73.4709 59.388 73.3638 59.4211C73.2567 59.4542 73.1801 59.4707 73.1189 59.4707C72.9046 59.4707 72.7975 59.3053 72.7975 58.958V58.1474C72.7975 57.8828 72.8281 57.6843 72.9046 57.5685C72.9812 57.4527 73.1189 57.3369 73.3332 57.2211C73.8688 56.9234 74.5116 56.6753 75.2616 56.4768C76.0115 56.2617 76.8073 56.1625 77.6491 56.1625C79.4704 56.1625 80.8019 56.6091 81.6589 57.5023C82.5007 58.3956 82.9292 59.752 82.9292 61.5715V66.9309H82.9598ZM76.7461 69.4452C77.2512 69.4452 77.7715 69.3459 78.3225 69.1474C78.8735 68.9489 79.3632 68.585 79.7765 68.0888C80.0213 67.7745 80.205 67.4271 80.2968 67.0301C80.3886 66.6332 80.4499 66.1535 80.4499 65.591V64.8963C80.006 64.7805 79.5316 64.6813 79.0418 64.6151C78.5521 64.5489 78.0776 64.5159 77.6032 64.5159C76.5778 64.5159 75.8278 64.7309 75.3228 65.1775C74.8177 65.6241 74.5729 66.2527 74.5729 67.0798C74.5729 67.8572 74.7565 68.4362 75.1391 68.8332C75.5064 69.2467 76.0421 69.4452 76.7461 69.4452ZM89.0358 71.2316C88.7603 71.2316 88.5767 71.182 88.4542 71.0662C88.3318 70.967 88.2246 70.7354 88.1328 70.4211L84.5362 57.6347C84.4444 57.3038 84.3985 57.0888 84.3985 56.973C84.3985 56.7083 84.5209 56.5595 84.7658 56.5595H86.2656C86.5564 56.5595 86.7554 56.6091 86.8625 56.7249C86.985 56.8241 87.0768 57.0557 87.1686 57.37L89.7398 68.3204L92.1273 57.37C92.2039 57.0392 92.2957 56.8241 92.4181 56.7249C92.5406 56.6256 92.7548 56.5595 93.0303 56.5595H94.2547C94.5455 56.5595 94.7445 56.6091 94.8669 56.7249C94.9893 56.8241 95.0965 57.0557 95.1577 57.37L97.5758 68.4527L100.224 57.37C100.315 57.0392 100.423 56.8241 100.53 56.7249C100.652 56.6256 100.851 56.5595 101.127 56.5595H102.55C102.795 56.5595 102.933 56.6918 102.933 56.973C102.933 57.0557 102.917 57.1384 102.902 57.2377C102.887 57.3369 102.856 57.4692 102.795 57.6512L99.1063 70.4377C99.0145 70.7685 98.9073 70.9835 98.7849 71.0828C98.6625 71.182 98.4635 71.2482 98.2033 71.2482H96.8871C96.5963 71.2482 96.3974 71.1986 96.2749 71.0828C96.1525 70.967 96.0454 70.7519 95.9841 70.4211L93.6119 59.7519L91.255 70.4046C91.1785 70.7354 91.0866 70.9504 90.9642 71.0662C90.8418 71.182 90.6275 71.2316 90.352 71.2316H89.0358ZM108.702 71.6783C107.907 71.6783 107.111 71.579 106.345 71.3805C105.58 71.182 104.983 70.967 104.585 70.7189C104.34 70.57 104.172 70.4046 104.111 70.2557C104.05 70.1068 104.019 69.9414 104.019 69.7925V68.9489C104.019 68.6016 104.142 68.4362 104.371 68.4362C104.463 68.4362 104.555 68.4527 104.647 68.4858C104.738 68.5189 104.876 68.585 105.029 68.6512C105.55 68.8993 106.116 69.0978 106.713 69.2301C107.325 69.3625 107.922 69.4286 108.534 69.4286C109.498 69.4286 110.248 69.2467 110.769 68.8828C111.289 68.5189 111.564 67.9895 111.564 67.3113C111.564 66.8482 111.427 66.4677 111.151 66.1535C110.876 65.8392 110.355 65.558 109.605 65.2933L107.386 64.5489C106.269 64.1685 105.442 63.6061 104.937 62.8617C104.432 62.1339 104.172 61.3234 104.172 60.4632C104.172 59.7685 104.31 59.1565 104.585 58.6271C104.861 58.0978 105.228 57.6347 105.687 57.2707C106.147 56.8903 106.667 56.6091 107.279 56.4106C107.891 56.2121 108.534 56.1294 109.207 56.1294C109.544 56.1294 109.896 56.1459 110.233 56.1956C110.585 56.2452 110.906 56.3113 111.228 56.3775C111.534 56.4602 111.824 56.5429 112.1 56.6422C112.375 56.7414 112.59 56.8407 112.743 56.9399C112.957 57.0723 113.11 57.2046 113.202 57.3535C113.294 57.4858 113.34 57.6677 113.34 57.8993V58.6768C113.34 59.0241 113.217 59.2061 112.988 59.2061C112.865 59.2061 112.666 59.1399 112.406 59.0076C111.534 58.5775 110.554 58.3625 109.468 58.3625C108.595 58.3625 107.906 58.5113 107.432 58.8256C106.958 59.1399 106.713 59.6196 106.713 60.2978C106.713 60.761 106.866 61.158 107.172 61.4723C107.478 61.7865 108.044 62.1008 108.855 62.382L111.029 63.1264C112.131 63.5068 112.926 64.0362 113.401 64.7144C113.875 65.3925 114.105 66.17 114.105 67.0301C114.105 67.7414 113.967 68.3865 113.707 68.9489C113.432 69.5113 113.064 70.0076 112.59 70.4046C112.115 70.8181 111.549 71.1159 110.891 71.3309C110.202 71.5625 109.483 71.6783 108.702 71.6783Z" fill="#252F3E"/>
<path fill-rule="evenodd" clip-rule="evenodd" d="M111.594 79.7173C106.559 83.7369 99.2434 85.8707 92.9532 85.8707C84.1377 85.8707 76.1945 82.3474 70.1951 76.4918C69.7206 76.0286 70.1492 75.4 70.7154 75.764C77.2046 79.8331 85.209 82.2978 93.4888 82.2978C99.0751 82.2978 105.212 81.0407 110.86 78.4602C111.701 78.0467 112.421 79.0557 111.594 79.7173Z" fill="#FF9900"/>
<path fill-rule="evenodd" clip-rule="evenodd" d="M113.691 77.1368C113.049 76.2436 109.437 76.7068 107.799 76.9218C107.309 76.988 107.233 76.5248 107.677 76.1774C110.554 73.994 115.283 74.6226 115.834 75.3504C116.385 76.0947 115.681 81.206 112.987 83.6541C112.574 84.0346 112.176 83.8361 112.36 83.3398C112.972 81.7022 114.334 78.0135 113.691 77.1368Z" fill="#FF9900"/>
</svg>
