<svg width="145" height="286" viewBox="0 0 145 286" fill="none" xmlns="http://www.w3.org/2000/svg">
<rect x="1" y="1" width="142.919" height="284" rx="24" fill="white" stroke="#C4C4C4" stroke-width="2"/>
<rect x="8.67773" y="10.5974" width="127.564" height="264.805" rx="14" fill="white" stroke="#C4C4C4" stroke-width="2"/>
<path d="M65.2356 101.012L60.9473 96.8375L74.8716 83.2834H83.4473L65.2356 101.012ZM83.4473 95.7911H74.8716L71.6592 98.9182L75.9476 103.093" fill="#42A5F5" fill-opacity="0.8"/>
<path d="M71.6592 107.266L74.8715 110.394H83.4472L75.9476 103.093" fill="#0D47A1"/>
<path d="M67.3813 103.095L71.663 98.9258L75.9447 103.094L71.663 107.263L67.3813 103.095Z" fill="#42A5F5"/>
<path d="M71.6626 107.263L75.9443 103.095L76.5419 103.677L72.2603 107.845L71.6626 107.263Z" fill="url(#paint0_linear)"/>
<path d="M71.6592 107.266L78.0219 105.127L75.9476 103.092" fill="url(#paint1_linear)"/>
<path d="M87 164.2C87 162.233 84.5112 160.369 80.6955 159.212C81.5761 155.362 81.1847 152.299 79.4602 151.319C79.0628 151.089 78.598 150.98 78.0905 150.98V152.33C78.3718 152.33 78.598 152.384 78.7876 152.487C79.6193 152.959 79.98 154.757 79.6988 157.069C79.6315 157.638 79.5214 158.238 79.3869 158.849C78.1884 158.559 76.8797 158.335 75.5039 158.189C74.6784 157.069 73.8223 156.052 72.9601 155.163C74.9535 153.328 76.8247 152.324 78.0966 152.324V150.974C76.415 150.974 74.2136 152.16 71.9878 154.218C69.7619 152.172 67.5605 150.998 65.8789 150.998V152.348C67.1447 152.348 69.022 153.347 71.0155 155.169C70.1594 156.059 69.3033 157.069 68.49 158.189C67.108 158.335 65.7994 158.559 64.6009 158.855C64.4602 158.25 64.3563 157.663 64.2829 157.1C63.9955 154.787 64.3502 152.989 65.1757 152.511C65.3592 152.402 65.5977 152.354 65.8789 152.354V151.004C65.3653 151.004 64.9006 151.113 64.4969 151.343C62.7786 152.324 62.3934 155.381 63.28 159.218C59.4766 160.381 57 162.239 57 164.2C57 166.168 59.4888 168.032 63.3045 169.188C62.424 173.038 62.8153 176.101 64.5398 177.082C64.9372 177.312 65.402 177.421 65.9156 177.421C67.5972 177.421 69.7986 176.235 72.0245 174.176C74.2503 176.222 76.4517 177.397 78.1333 177.397C78.647 177.397 79.1117 177.288 79.5153 177.058C81.2336 176.077 81.6188 173.02 80.7321 169.182C84.5234 168.026 87 166.162 87 164.2ZM79.0383 160.163C78.8121 160.944 78.5308 161.749 78.2128 162.554C77.9621 162.07 77.6991 161.585 77.4118 161.101C77.1305 160.617 76.8308 160.145 76.5312 159.684C77.3995 159.812 78.2372 159.969 79.0383 160.163ZM76.2377 166.61C75.7607 167.427 75.2715 168.202 74.764 168.922C73.8528 169.001 72.9295 169.043 72 169.043C71.0766 169.043 70.1533 169.001 69.2483 168.928C68.7407 168.208 68.2454 167.439 67.7684 166.628C67.3037 165.835 66.8818 165.03 66.4966 164.219C66.8757 163.407 67.3037 162.596 67.7623 161.803C68.2393 160.986 68.7285 160.211 69.236 159.491C70.1472 159.412 71.0705 159.37 72 159.37C72.9234 159.37 73.8467 159.412 74.7517 159.485C75.2593 160.205 75.7546 160.974 76.2316 161.785C76.6963 162.578 77.1182 163.383 77.5034 164.194C77.1182 165.005 76.6963 165.817 76.2377 166.61ZM78.2128 165.823C78.543 166.634 78.8243 167.445 79.0567 168.232C78.2556 168.426 77.4118 168.589 76.5373 168.716C76.8369 168.25 77.1366 167.772 77.4179 167.282C77.6991 166.797 77.9621 166.307 78.2128 165.823ZM72.0122 172.282C71.4436 171.701 70.8748 171.053 70.3123 170.345C70.8626 170.369 71.4252 170.387 71.9939 170.387C72.5687 170.387 73.1374 170.375 73.6938 170.345C73.1435 171.053 72.5748 171.701 72.0122 172.282ZM67.4627 168.716C66.5943 168.589 65.7566 168.432 64.9555 168.238C65.1818 167.457 65.4631 166.652 65.7811 165.847C66.0318 166.331 66.2948 166.815 66.5822 167.3C66.8695 167.784 67.1631 168.256 67.4627 168.716ZM71.9817 156.119C72.5503 156.7 73.1191 157.348 73.6816 158.056C73.1313 158.032 72.5687 158.014 72 158.014C71.4252 158.014 70.8565 158.026 70.3 158.056C70.8504 157.348 71.4191 156.7 71.9817 156.119ZM67.4566 159.684C67.157 160.151 66.8573 160.629 66.5761 161.119C66.2947 161.603 66.0318 162.088 65.7811 162.572C65.4509 161.761 65.1696 160.95 64.9372 160.163C65.7383 159.975 66.5822 159.812 67.4566 159.684ZM61.9225 167.263C59.7578 166.349 58.3575 165.151 58.3575 164.2C58.3575 163.25 59.7578 162.045 61.9225 161.137C62.4484 160.913 63.0232 160.714 63.6164 160.526C63.965 161.712 64.4236 162.947 64.9922 164.212C64.4297 165.472 63.9772 166.7 63.6347 167.881C63.0294 167.693 62.4545 167.487 61.9225 167.263ZM65.2124 175.914C64.3808 175.442 64.02 173.644 64.3013 171.331C64.3685 170.762 64.4786 170.163 64.6131 169.552C65.8116 169.842 67.1203 170.066 68.4961 170.211C69.3216 171.331 70.1777 172.348 71.0399 173.238C69.0465 175.072 67.1753 176.077 65.9034 176.077C65.6282 176.071 65.3958 176.017 65.2124 175.914ZM79.7171 171.301C80.0045 173.613 79.6498 175.411 78.8243 175.889C78.6408 175.998 78.4023 176.047 78.1211 176.047C76.8553 176.047 74.978 175.048 72.9845 173.226C73.8406 172.336 74.6967 171.325 75.51 170.205C76.892 170.06 78.2006 169.836 79.3991 169.539C79.5397 170.151 79.6498 170.738 79.7171 171.301ZM82.0713 167.263C81.5455 167.487 80.9706 167.687 80.3775 167.875C80.0289 166.688 79.5703 165.453 79.0017 164.188C79.5642 162.929 80.0167 161.7 80.3592 160.52C80.9645 160.708 81.5394 160.913 82.0775 161.137C84.2421 162.051 85.6425 163.25 85.6425 164.2C85.6364 165.151 84.236 166.355 82.0713 167.263Z" fill="#61DAFB"/>
<path d="M71.9938 166.967C73.5372 166.967 74.7883 165.728 74.7883 164.201C74.7883 162.673 73.5372 161.434 71.9938 161.434C70.4504 161.434 69.1992 162.673 69.1992 164.201C69.1992 165.728 70.4504 166.967 71.9938 166.967Z" fill="#61DAFB"/>
<path d="M57.7471 128.782H53.7412V133H52.0117V123.047H58.335V124.441H53.7412V127.401H57.7471V128.782ZM61.3154 133H59.6543V122.5H61.3154V133ZM67.6113 132.275C67.1237 132.85 66.431 133.137 65.5332 133.137C64.7311 133.137 64.1227 132.902 63.708 132.433C63.2979 131.963 63.0928 131.284 63.0928 130.396V125.604H64.7539V130.375C64.7539 131.314 65.1436 131.783 65.9229 131.783C66.7295 131.783 67.2741 131.494 67.5566 130.915V125.604H69.2178V133H67.6523L67.6113 132.275ZM72.9912 123.806V125.604H74.2969V126.834H72.9912V130.963C72.9912 131.245 73.0459 131.451 73.1553 131.578C73.2692 131.701 73.4697 131.763 73.7568 131.763C73.9482 131.763 74.1419 131.74 74.3379 131.694V132.979C73.9596 133.084 73.5951 133.137 73.2441 133.137C71.9681 133.137 71.3301 132.433 71.3301 131.024V126.834H70.1133V125.604H71.3301V123.806H72.9912ZM77.6533 123.806V125.604H78.959V126.834H77.6533V130.963C77.6533 131.245 77.708 131.451 77.8174 131.578C77.9313 131.701 78.1318 131.763 78.4189 131.763C78.6104 131.763 78.804 131.74 79 131.694V132.979C78.6217 133.084 78.2572 133.137 77.9062 133.137C76.6302 133.137 75.9922 132.433 75.9922 131.024V126.834H74.7754V125.604H75.9922V123.806H77.6533ZM83.4912 133.137C82.4385 133.137 81.584 132.806 80.9277 132.146C80.276 131.48 79.9502 130.596 79.9502 129.493V129.288C79.9502 128.55 80.0915 127.891 80.374 127.312C80.6611 126.729 81.0622 126.276 81.5771 125.952C82.0921 125.629 82.6663 125.467 83.2998 125.467C84.307 125.467 85.084 125.788 85.6309 126.431C86.1823 127.073 86.458 127.982 86.458 129.158V129.828H81.625C81.6751 130.439 81.8779 130.922 82.2334 131.277C82.5934 131.633 83.0446 131.811 83.5869 131.811C84.348 131.811 84.9678 131.503 85.4463 130.888L86.3418 131.742C86.0456 132.184 85.6491 132.528 85.1523 132.774C84.6602 133.016 84.1064 133.137 83.4912 133.137ZM83.293 126.8C82.8372 126.8 82.4681 126.959 82.1855 127.278C81.9076 127.597 81.7298 128.042 81.6523 128.611H84.8174V128.488C84.7809 127.932 84.6328 127.513 84.373 127.23C84.1133 126.943 83.7533 126.8 83.293 126.8ZM91.626 127.121C91.4072 127.085 91.1816 127.066 90.9492 127.066C90.1882 127.066 89.6755 127.358 89.4111 127.941V133H87.75V125.604H89.3359L89.377 126.431C89.778 125.788 90.334 125.467 91.0449 125.467C91.2819 125.467 91.4779 125.499 91.6328 125.562L91.626 127.121Z" fill="black"/>
<path d="M36.6689 196.165H34.7412V200H33.0117V190.047H36.5117C37.6602 190.047 38.5465 190.304 39.1709 190.819C39.7952 191.334 40.1074 192.079 40.1074 193.055C40.1074 193.72 39.9456 194.278 39.6221 194.729C39.3031 195.176 38.8564 195.52 38.2822 195.762L40.5176 199.911V200H38.665L36.6689 196.165ZM34.7412 194.777H36.5186C37.1019 194.777 37.5576 194.632 37.8857 194.34C38.2139 194.044 38.3779 193.64 38.3779 193.13C38.3779 192.597 38.2253 192.184 37.9199 191.893C37.6191 191.601 37.168 191.451 36.5664 191.441H34.7412V194.777ZM44.8447 200.137C43.792 200.137 42.9375 199.806 42.2812 199.146C41.6296 198.48 41.3037 197.596 41.3037 196.493V196.288C41.3037 195.55 41.445 194.891 41.7275 194.312C42.0146 193.729 42.4157 193.276 42.9307 192.952C43.4456 192.629 44.0199 192.467 44.6533 192.467C45.6605 192.467 46.4375 192.788 46.9844 193.431C47.5358 194.073 47.8115 194.982 47.8115 196.158V196.828H42.9785C43.0286 197.439 43.2314 197.922 43.5869 198.277C43.9469 198.633 44.3981 198.811 44.9404 198.811C45.7015 198.811 46.3213 198.503 46.7998 197.888L47.6953 198.742C47.3991 199.184 47.0026 199.528 46.5059 199.774C46.0137 200.016 45.46 200.137 44.8447 200.137ZM44.6465 193.8C44.1908 193.8 43.8216 193.959 43.5391 194.278C43.2611 194.597 43.0833 195.042 43.0059 195.611H46.1709V195.488C46.1344 194.932 45.9863 194.513 45.7266 194.23C45.4668 193.943 45.1068 193.8 44.6465 193.8ZM53.5264 200C53.4535 199.859 53.3896 199.629 53.335 199.31C52.8063 199.861 52.1592 200.137 51.3936 200.137C50.6507 200.137 50.0446 199.925 49.5752 199.501C49.1058 199.077 48.8711 198.553 48.8711 197.929C48.8711 197.14 49.1628 196.536 49.7461 196.117C50.334 195.693 51.1725 195.481 52.2617 195.481H53.2803V194.996C53.2803 194.613 53.1732 194.308 52.959 194.08C52.7448 193.848 52.4189 193.731 51.9814 193.731C51.6032 193.731 51.2933 193.827 51.0518 194.019C50.8102 194.205 50.6895 194.445 50.6895 194.736H49.0283C49.0283 194.331 49.1628 193.952 49.4316 193.602C49.7005 193.246 50.0651 192.968 50.5254 192.768C50.9902 192.567 51.5075 192.467 52.0771 192.467C52.943 192.467 53.6335 192.686 54.1484 193.123C54.6634 193.556 54.9277 194.167 54.9414 194.955V198.291C54.9414 198.956 55.0348 199.487 55.2217 199.884V200H53.5264ZM51.7012 198.804C52.0293 198.804 52.3369 198.724 52.624 198.564C52.9157 198.405 53.1344 198.191 53.2803 197.922V196.527H52.3848C51.7695 196.527 51.307 196.634 50.9971 196.849C50.6872 197.063 50.5322 197.366 50.5322 197.758C50.5322 198.077 50.637 198.332 50.8467 198.523C51.0609 198.71 51.3457 198.804 51.7012 198.804ZM59.7197 198.811C60.1344 198.811 60.4785 198.69 60.752 198.448C61.0254 198.207 61.1712 197.908 61.1895 197.553H62.7549C62.7367 198.013 62.5931 198.444 62.3242 198.845C62.0553 199.241 61.6908 199.556 61.2305 199.788C60.7702 200.021 60.2734 200.137 59.7402 200.137C58.7057 200.137 57.8854 199.802 57.2793 199.132C56.6732 198.462 56.3701 197.537 56.3701 196.356V196.186C56.3701 195.06 56.6709 194.16 57.2725 193.485C57.874 192.806 58.6943 192.467 59.7334 192.467C60.613 192.467 61.3285 192.724 61.8799 193.239C62.4359 193.75 62.7275 194.422 62.7549 195.256H61.1895C61.1712 194.832 61.0254 194.483 60.752 194.21C60.4831 193.937 60.139 193.8 59.7197 193.8C59.182 193.8 58.7673 193.996 58.4756 194.388C58.1839 194.775 58.0358 195.365 58.0312 196.158V196.425C58.0312 197.227 58.1748 197.826 58.4619 198.223C58.7536 198.615 59.1729 198.811 59.7197 198.811ZM66.0908 190.806V192.604H67.3965V193.834H66.0908V197.963C66.0908 198.245 66.1455 198.451 66.2549 198.578C66.3688 198.701 66.5693 198.763 66.8564 198.763C67.0479 198.763 67.2415 198.74 67.4375 198.694V199.979C67.0592 200.084 66.6947 200.137 66.3438 200.137C65.0677 200.137 64.4297 199.433 64.4297 198.024V193.834H63.2129V192.604H64.4297V190.806H66.0908ZM80.2139 200H78.4844L74.0479 192.938V200H72.3184V190.047H74.0479L78.498 197.136V190.047H80.2139V200ZM86.5166 200C86.4437 199.859 86.3799 199.629 86.3252 199.31C85.7965 199.861 85.1494 200.137 84.3838 200.137C83.641 200.137 83.0348 199.925 82.5654 199.501C82.096 199.077 81.8613 198.553 81.8613 197.929C81.8613 197.14 82.153 196.536 82.7363 196.117C83.3242 195.693 84.1628 195.481 85.252 195.481H86.2705V194.996C86.2705 194.613 86.1634 194.308 85.9492 194.08C85.735 193.848 85.4092 193.731 84.9717 193.731C84.5934 193.731 84.2835 193.827 84.042 194.019C83.8005 194.205 83.6797 194.445 83.6797 194.736H82.0186C82.0186 194.331 82.153 193.952 82.4219 193.602C82.6908 193.246 83.0553 192.968 83.5156 192.768C83.9805 192.567 84.4977 192.467 85.0674 192.467C85.9333 192.467 86.6237 192.686 87.1387 193.123C87.6536 193.556 87.918 194.167 87.9316 194.955V198.291C87.9316 198.956 88.0251 199.487 88.2119 199.884V200H86.5166ZM84.6914 198.804C85.0195 198.804 85.3271 198.724 85.6143 198.564C85.9059 198.405 86.1247 198.191 86.2705 197.922V196.527H85.375C84.7598 196.527 84.2972 196.634 83.9873 196.849C83.6774 197.063 83.5225 197.366 83.5225 197.758C83.5225 198.077 83.6273 198.332 83.8369 198.523C84.0511 198.71 84.3359 198.804 84.6914 198.804ZM91.7529 190.806V192.604H93.0586V193.834H91.7529V197.963C91.7529 198.245 91.8076 198.451 91.917 198.578C92.0309 198.701 92.2314 198.763 92.5186 198.763C92.71 198.763 92.9036 198.74 93.0996 198.694V199.979C92.7214 200.084 92.3568 200.137 92.0059 200.137C90.7298 200.137 90.0918 199.433 90.0918 198.024V193.834H88.875V192.604H90.0918V190.806H91.7529ZM96.1006 200H94.4395V192.604H96.1006V200ZM94.3369 190.683C94.3369 190.427 94.4167 190.215 94.5762 190.047C94.7402 189.878 94.9727 189.794 95.2734 189.794C95.5742 189.794 95.8066 189.878 95.9707 190.047C96.1348 190.215 96.2168 190.427 96.2168 190.683C96.2168 190.933 96.1348 191.143 95.9707 191.312C95.8066 191.476 95.5742 191.558 95.2734 191.558C94.9727 191.558 94.7402 191.476 94.5762 191.312C94.4167 191.143 94.3369 190.933 94.3369 190.683ZM100.523 197.895L102.089 192.604H103.805L101.241 200H99.7988L97.2148 192.604H98.9375L100.523 197.895ZM108.009 200.137C106.956 200.137 106.102 199.806 105.445 199.146C104.794 198.48 104.468 197.596 104.468 196.493V196.288C104.468 195.55 104.609 194.891 104.892 194.312C105.179 193.729 105.58 193.276 106.095 192.952C106.61 192.629 107.184 192.467 107.817 192.467C108.825 192.467 109.602 192.788 110.148 193.431C110.7 194.073 110.976 194.982 110.976 196.158V196.828H106.143C106.193 197.439 106.396 197.922 106.751 198.277C107.111 198.633 107.562 198.811 108.104 198.811C108.866 198.811 109.485 198.503 109.964 197.888L110.859 198.742C110.563 199.184 110.167 199.528 109.67 199.774C109.178 200.016 108.624 200.137 108.009 200.137ZM107.811 193.8C107.355 193.8 106.986 193.959 106.703 194.278C106.425 194.597 106.247 195.042 106.17 195.611H109.335V195.488C109.299 194.932 109.15 194.513 108.891 194.23C108.631 193.943 108.271 193.8 107.811 193.8Z" fill="black"/>
<defs>
<linearGradient id="paint0_linear" x1="73.8043" y1="105.178" x2="74.3859" y2="105.776" gradientUnits="userSpaceOnUse">
<stop offset="0.2" stop-opacity="0.15"/>
<stop offset="0.85" stop-color="#616161" stop-opacity="0.01"/>
</linearGradient>
<linearGradient id="paint1_linear" x1="71.6607" y1="105.179" x2="78.0234" y2="105.179" gradientUnits="userSpaceOnUse">
<stop offset="0.2" stop-opacity="0.55"/>
<stop offset="0.85" stop-color="#616161" stop-opacity="0.01"/>
</linearGradient>
</defs>
</svg>
