<svg width="44" height="44" viewBox="0 0 44 44" fill="none" xmlns="http://www.w3.org/2000/svg">
<g clip-path="url(#clip0)">
<path d="M21.8467 0.789551C11.0776 0.789552 11.7501 5.48413 11.7501 5.48413L11.7621 10.3477H22.0388V11.8079H7.68021C7.68021 11.8079 0.789063 11.0223 0.789063 21.9453C0.789062 32.8683 6.80381 32.481 6.80381 32.481H10.3934V27.4123C10.3934 27.4123 10.2 21.366 16.3121 21.366C22.4243 21.366 26.5048 21.366 26.5048 21.366C26.5048 21.366 32.2314 21.4591 32.2314 15.8025C32.2314 10.146 32.2314 6.44959 32.2314 6.44959C32.2314 6.44959 33.1009 0.789551 21.8467 0.789551ZM16.1801 4.06007C17.2025 4.06007 18.0289 4.89078 18.0289 5.91859C18.0289 6.9464 17.2025 7.77711 16.1801 7.77711C15.1576 7.77711 14.3312 6.9464 14.3312 5.91859C14.3312 4.89078 15.1576 4.06007 16.1801 4.06007Z" fill="url(#paint0_linear)"/>
<path d="M22.1523 43.2107C32.9214 43.2107 32.2489 38.5161 32.2489 38.5161L32.2369 33.6526H21.9602V32.1923H36.3187C36.3187 32.1923 43.2099 32.9779 43.2099 22.0549C43.2099 11.1319 37.1951 11.5193 37.1951 11.5193H33.6055V16.588C33.6055 16.588 33.799 22.6342 27.6868 22.6342C21.5746 22.6342 17.4941 22.6342 17.4941 22.6342C17.4941 22.6342 11.7675 22.5411 11.7675 28.1977C11.7675 33.8542 11.7675 37.5506 11.7675 37.5506C11.7675 37.5506 10.8981 43.2107 22.1523 43.2107ZM27.8188 39.9402C26.7964 39.9402 25.97 39.1095 25.97 38.0816C25.97 37.0538 26.7964 36.2231 27.8188 36.2231C28.8413 36.2231 29.6677 37.0538 29.6677 38.0816C29.6677 39.1095 28.8413 39.9402 27.8188 39.9402Z" fill="url(#paint1_linear)"/>
</g>
<defs>
<linearGradient id="paint0_linear" x1="4.86581" y1="4.49753" x2="25.9517" y2="25.5437" gradientUnits="userSpaceOnUse">
<stop stop-color="#387EB8"/>
<stop offset="1" stop-color="#366994"/>
</linearGradient>
<linearGradient id="paint1_linear" x1="17.7691" y1="17.9563" x2="40.4099" y2="39.5344" gradientUnits="userSpaceOnUse">
<stop stop-color="#FFE052"/>
<stop offset="1" stop-color="#FFC331"/>
</linearGradient>
<clipPath id="clip0">
<rect x="0.789062" y="0.789551" width="42.4211" height="42.4211" fill="white"/>
</clipPath>
</defs>
</svg>
