<svg width="60" height="52" viewBox="0 0 60 52" fill="none" xmlns="http://www.w3.org/2000/svg">
<mask id="mask0" mask-type="alpha" maskUnits="userSpaceOnUse" x="0" y="0" width="60" height="52">
<path d="M50.5245 3.31372C51.0166 3.31372 51.4158 3.7085 51.4158 4.19622C51.4158 4.68351 51.0166 5.0784 50.5245 5.0784H30.173H7.67528C6.0667 5.0784 4.75749 6.37435 4.75749 7.96727V30.6396C4.75749 32.2325 6.0667 33.5289 7.67528 33.5289H52.3247C53.9332 33.5289 55.2425 32.2329 55.2425 30.6396V7.96727C55.2425 6.37435 53.9332 5.0784 52.3247 5.0784H48.6433C48.1508 5.0784 47.752 4.68351 47.752 4.19622C47.752 3.7085 48.1508 3.31372 48.6433 3.31372H52.3247C54.916 3.31372 57.0246 5.40114 57.0246 7.96727V30.6396C57.0246 33.2057 54.916 35.2936 52.3247 35.2936H7.67528C5.08388 35.2936 2.97542 33.2057 2.97542 30.6396V7.96727C2.97542 5.40157 5.08388 3.31372 7.67528 3.31372H30.173H50.5245Z" fill="black"/>
<path d="M49.9404 23.9775C49.492 23.9779 49.0516 24.0953 48.6634 24.3182C48.275 24.541 47.9524 24.8615 47.7276 25.2475L38.7966 20.0636C38.6755 19.4852 38.3561 18.9667 37.8931 18.5968C37.43 18.227 36.8521 18.0288 36.2583 18.0363C35.6645 18.0439 35.0919 18.2566 34.6384 18.638C34.1849 19.0195 33.8789 19.546 33.7727 20.1273L24.7852 26.8336C24.5407 26.459 24.2013 26.1551 23.8014 25.9523C23.4013 25.7496 22.9546 25.6551 22.5064 25.6786C22.0581 25.702 21.6238 25.8425 21.2473 26.0859C20.8709 26.3292 20.5655 26.6669 20.3618 27.0649L11.4787 23.3823C11.3386 22.8009 10.9973 22.287 10.5147 21.9308C10.0321 21.5744 9.43885 21.3984 8.83897 21.4334C8.23898 21.4684 7.67055 21.7123 7.23313 22.1223C6.79571 22.5323 6.5172 23.0823 6.44636 23.6761C6.37551 24.2699 6.51685 24.8695 6.84561 25.37C7.17437 25.8705 7.66963 26.2399 8.24465 26.4138C8.81968 26.5876 9.43778 26.5546 9.99084 26.3207C10.5439 26.0866 10.9966 25.6666 11.2697 25.134L20.1528 28.8166C20.2899 29.3844 20.6192 29.8881 21.0852 30.2431C21.5513 30.5981 22.1259 30.7829 22.7127 30.7666C23.2994 30.7501 23.8628 30.5335 24.3081 30.1529C24.7533 29.7724 25.0535 29.2511 25.1584 28.6765L34.146 21.9701C34.3841 22.3351 34.7122 22.6331 35.0992 22.8359C35.4861 23.0385 35.9189 23.1391 36.356 23.128C36.7932 23.1168 37.2201 22.9942 37.5961 22.772C37.9719 22.5498 38.2843 22.2354 38.5032 21.8587L47.4343 27.0427C47.5329 27.5139 47.7638 27.9478 48.1001 28.2937C48.4364 28.6398 48.8644 28.8839 49.3345 28.9979C49.8046 29.1117 50.2975 29.0907 50.756 28.9372C51.2147 28.7837 51.6201 28.504 51.9254 28.1307C52.2307 27.7572 52.4234 27.3053 52.4811 26.8274C52.5388 26.3494 52.4591 25.865 52.2513 25.4303C52.0436 24.9955 51.7161 24.6284 51.3071 24.3713C50.8981 24.1141 50.4242 23.9776 49.9404 23.9775ZM9.84395 23.9818C9.84342 24.2073 9.75288 24.4233 9.59228 24.5824C9.43178 24.7416 9.21428 24.8308 8.98768 24.8306C8.76097 24.8302 8.54373 24.7405 8.38356 24.5809C8.22341 24.4214 8.13345 24.2051 8.13345 23.9796C8.13345 23.7541 8.22341 23.5379 8.38356 23.3783C8.54373 23.2188 8.76097 23.129 8.98768 23.1287C9.21428 23.1285 9.43178 23.2177 9.59228 23.3769C9.75288 23.536 9.84342 23.752 9.84395 23.9775V23.9818ZM22.6407 29.0701C22.4145 29.0698 22.1977 28.9803 22.0377 28.8212C21.8779 28.6621 21.7879 28.4464 21.7876 28.2214V28.2171C21.7884 28.0494 21.8392 27.8858 21.9334 27.7467C22.0277 27.6077 22.1612 27.4996 22.3172 27.4359C22.4732 27.3724 22.6445 27.3562 22.8097 27.3894C22.9749 27.4227 23.1265 27.5039 23.2454 27.6227C23.3642 27.7416 23.4451 27.8928 23.4777 28.0573C23.5103 28.2219 23.4931 28.3923 23.4284 28.5472C23.3637 28.702 23.2544 28.8343 23.1142 28.9273C22.974 29.0205 22.8093 29.0701 22.6407 29.0701ZM36.2906 21.4312C36.1218 21.4312 35.9568 21.3814 35.8166 21.2882C35.6763 21.1949 35.5669 21.0623 35.5023 20.9073C35.4378 20.7522 35.4209 20.5815 35.4538 20.4168C35.4867 20.2522 35.568 20.101 35.6872 19.9822C35.8066 19.8635 35.9586 19.7828 36.1241 19.75C36.2896 19.7172 36.4611 19.7341 36.617 19.7983C36.7729 19.8626 36.9061 19.9713 36.9998 20.1109C37.0936 20.2504 37.1436 20.4146 37.1436 20.5824C37.1433 20.8074 37.0533 21.0231 36.8934 21.1823C36.7335 21.3414 36.5167 21.4309 36.2906 21.4312ZM49.9404 27.3726C49.7716 27.3726 49.6067 27.3228 49.4664 27.2296C49.3261 27.1363 49.2167 27.0037 49.1521 26.8486C49.0876 26.6935 49.0707 26.5229 49.1036 26.3582C49.1366 26.1936 49.2178 26.0424 49.3371 25.9237C49.4564 25.8049 49.6085 25.7241 49.7739 25.6913C49.9394 25.6586 50.111 25.6754 50.2668 25.7397C50.4227 25.8039 50.556 25.9127 50.6497 26.0523C50.7434 26.1919 50.7934 26.3559 50.7934 26.5238C50.7931 26.7489 50.7032 26.9646 50.5433 27.1236C50.3833 27.2827 50.1666 27.3723 49.9404 27.3726Z" fill="black"/>
<path fill-rule="evenodd" clip-rule="evenodd" d="M30.5727 1.76468H54.4355C56.521 1.76468 58.2179 3.44502 58.2179 5.51027V37.1002C58.2179 39.1655 56.521 40.8454 54.4355 40.8454H7.34117C6.84907 40.8454 6.45039 41.2407 6.45039 41.728C6.45039 42.2153 6.84907 42.61 7.34117 42.61H21.1744L18.8664 46.9485H17.6802C16.2735 46.9485 15.1296 48.0817 15.1296 49.4743C15.1296 50.8668 16.2735 52 17.6802 52H42.3203C43.7265 52 44.8705 50.8668 44.8705 49.4743C44.8705 48.0817 43.7265 46.9485 42.3203 46.9485H41.1338L38.8257 42.61H54.4355C57.5038 42.61 60 40.1382 60 37.1002V5.51027C60 2.47181 57.5038 0 54.4355 0H30.5727V1.76468ZM43.0884 49.4743C43.0884 49.894 42.7437 50.2353 42.3198 50.2353H17.6802C17.2563 50.2353 16.9117 49.894 16.9117 49.4743C16.9117 49.055 17.2563 48.7136 17.6802 48.7136H42.3203C42.7437 48.7136 43.0884 49.055 43.0884 49.4743ZM39.1191 46.9489H20.8805L23.189 42.61H36.8111L39.1191 46.9489Z" fill="black"/>
<path d="M30.5727 0H5.56458C2.49618 0 0 2.47181 0 5.51026V37.1002C0 40.1382 2.49618 42.61 5.56458 42.61H8.44483C8.93689 42.61 9.3361 42.2153 9.3361 41.728C9.3361 41.2407 8.93689 40.8454 8.44483 40.8454H5.56458C3.479 40.8454 1.78207 39.1654 1.78207 37.1002V5.51026C1.78207 3.44502 3.479 1.76468 5.56458 1.76468H30.5727V0Z" fill="black"/>
<path fill-rule="evenodd" clip-rule="evenodd" d="M21.0533 9.49447V15.6856H22.8747V9.49447H21.0533ZM19.2855 8.80485V15.6856H18.2141V11.4739C18.2141 10.8879 17.7344 10.4129 17.1426 10.4129H13.9284C13.3367 10.4129 12.857 10.8879 12.857 11.4739V15.6856H11.7856V13.0959C11.7856 12.5099 11.3059 12.0349 10.7142 12.0349H7.49991C6.90819 12.0349 6.4285 12.5099 6.4285 13.0959V16.3752C6.4285 16.4081 6.43 16.4405 6.43294 16.4726C6.43001 16.5016 6.4285 16.531 6.4285 16.5609C6.4285 17.0443 6.82425 17.4362 7.31241 17.4362H20.3511H20.3569H23.5711H23.5768H26.7854H29.9996H30.1252C30.5152 17.4362 30.8463 17.186 30.9636 16.8388C31.0325 16.6988 31.071 16.5415 31.071 16.3753V13.0959C31.071 12.5099 30.5914 12.0349 29.9996 12.0349H26.7854C26.1936 12.0349 25.714 12.5099 25.714 13.0959V15.6856H24.6426V8.80485C24.6426 8.21888 24.1629 7.7439 23.5711 7.7439H20.3569C19.7652 7.7439 19.2855 8.21888 19.2855 8.80485ZM14.6248 15.6855V12.1635H16.4462V15.6855H14.6248ZM8.19633 13.7855V15.6855H10.0177V13.7855H8.19633ZM27.4818 15.6856V13.7855H29.3032V15.6856H27.4818Z" fill="black"/>
</mask>
<g mask="url(#mask0)">
<rect width="60" height="52" fill="url(#paint0_linear)"/>
</g>
<defs>
<linearGradient id="paint0_linear" x1="0" y1="0" x2="60" y2="0" gradientUnits="userSpaceOnUse">
<stop stop-color="#F1325E"/>
<stop offset="1" stop-color="#FC199A"/>
</linearGradient>
</defs>
</svg>
