<svg width="60" height="52" viewBox="0 0 60 52" fill="none" xmlns="http://www.w3.org/2000/svg">
<mask id="mask0" mask-type="alpha" maskUnits="userSpaceOnUse" x="0" y="0" width="60" height="52">
<path d="M54.4355 0H5.56458C2.49618 0 0 2.47181 0 5.51027V37.1002C0 40.1382 2.49618 42.61 5.56458 42.61H28.4448C28.9369 42.61 29.3361 42.2152 29.3361 41.728C29.3361 41.2407 28.9369 40.8454 28.4448 40.8454H5.56458C3.479 40.8454 1.78207 39.1655 1.78207 37.1002V5.51027C1.78207 3.44502 3.479 1.76468 5.56458 1.76468H54.4355C56.521 1.76468 58.2179 3.44502 58.2179 5.51027V37.1002C58.2179 39.1655 56.521 40.8454 54.4355 40.8454H12.009C11.5169 40.8454 11.1182 41.2407 11.1182 41.728C11.1182 42.2152 11.5169 42.61 12.009 42.61H21.1744L18.8663 46.9485H17.6802C16.2735 46.9485 15.1296 48.0817 15.1296 49.4743C15.1296 50.8668 16.2735 52 17.6802 52H42.3203C43.7265 52 44.8704 50.8668 44.8704 49.4743C44.8704 48.0817 43.7265 46.9485 42.3203 46.9485H41.1338L38.8257 42.61H54.4355C57.5038 42.61 60 40.1382 60 37.1002V5.51027C60 2.47181 57.5038 0 54.4355 0ZM43.0884 49.4743C43.0884 49.894 42.7437 50.2353 42.3198 50.2353H17.6802C17.2563 50.2353 16.9116 49.894 16.9116 49.4743C16.9116 49.0549 17.2563 48.7136 17.6802 48.7136H42.3203C42.7437 48.7136 43.0884 49.0549 43.0884 49.4743ZM39.1191 46.9489H20.8805L23.189 42.61H36.811L39.1191 46.9489Z" fill="#5AC8FF"/>
<path d="M45.079 3.31335H7.67558C5.08417 3.31335 2.97571 5.40131 2.97571 7.9669V30.6393C2.97571 33.2054 5.08417 35.2932 7.67558 35.2932H52.3249C54.9164 35.2932 57.0248 33.2054 57.0248 30.6393V7.9669C57.0248 5.40078 54.9164 3.31335 52.3249 3.31335H28.6437C28.151 3.31335 27.7524 3.70824 27.7524 4.19596C27.7524 4.68326 28.151 5.07804 28.6437 5.07804H52.3249C53.9336 5.07804 55.2427 6.37399 55.2427 7.9669V30.6393C55.2427 32.2326 53.9336 33.5286 52.3249 33.5286H30.8915V5.07804H45.079C45.5711 5.07804 45.9703 4.68326 45.9703 4.19596C45.9703 3.70824 45.5711 3.31335 45.079 3.31335ZM7.67558 33.5286C6.06699 33.5286 4.75778 32.2321 4.75778 30.6393V13.2917H29.109V33.5286H7.67558ZM29.109 11.527H4.75778V7.9669C4.75778 6.37399 6.06699 5.07804 7.67558 5.07804H29.109V11.527Z" fill="#5AC8FF"/>
<path d="M5.99426 8.36981C5.99426 9.67616 7.06771 10.7392 8.38699 10.7392C9.70626 10.7392 10.7797 9.67616 10.7797 8.36981C10.7797 7.06293 9.70626 6.00049 8.38699 6.00049C7.06771 6.00049 5.99426 7.06293 5.99426 8.36981ZM8.38699 7.76517C8.72345 7.76517 8.99762 8.03614 8.99762 8.36938C8.99762 8.70294 8.72345 8.97402 8.38699 8.97402C8.05053 8.97402 7.77634 8.70294 7.77634 8.36938C7.77634 8.03614 8.05053 7.76517 8.38699 7.76517Z" fill="#5AC8FF"/>
<path d="M14.103 10.7387C15.4223 10.7387 16.4957 9.6762 16.4957 8.36932C16.4957 7.06297 15.4223 6 14.103 6C12.7833 6 11.7103 7.06297 11.7103 8.36932C11.7103 9.6762 12.7837 10.7387 14.103 10.7387ZM14.103 7.76511C14.4395 7.76511 14.7132 8.03618 14.7132 8.36932C14.7132 8.70299 14.4395 8.97406 14.103 8.97406C13.7661 8.97406 13.4924 8.70299 13.4924 8.36932C13.4924 8.03618 13.7661 7.76511 14.103 7.76511Z" fill="#5AC8FF"/>
<path d="M19.82 10.7387C21.1392 10.7387 22.2122 9.6762 22.2122 8.36932C22.2122 7.06297 21.1392 6 19.82 6C18.5006 6 17.4272 7.06297 17.4272 8.36932C17.4272 9.6762 18.5006 10.7387 19.82 10.7387ZM19.82 7.76511C20.1564 7.76511 20.4301 8.03618 20.4301 8.36932C20.4301 8.70299 20.1564 8.97406 19.82 8.97406C19.483 8.97406 19.2093 8.70299 19.2093 8.36932C19.2093 8.03618 19.483 7.76511 19.82 7.76511Z" fill="#5AC8FF"/>
<path d="M7.43069 18.5545H26.5882C27.0803 18.5545 27.4789 18.1592 27.4789 17.6719C27.4789 17.1846 27.0803 16.7898 26.5882 16.7898H7.43069C6.93813 16.7898 6.53943 17.1846 6.53943 17.6719C6.53943 18.1592 6.93813 18.5545 7.43069 18.5545Z" fill="#5AC8FF"/>
<path d="M26.5882 20.6429H7.43069C6.93813 20.6429 6.53943 21.0378 6.53943 21.5251C6.53943 22.0128 6.93813 22.4076 7.43069 22.4076H26.5882C27.0803 22.4076 27.4789 22.0128 27.4789 21.5251C27.4789 21.0378 27.0803 20.6429 26.5882 20.6429Z" fill="#5AC8FF"/>
<path d="M22.2086 24.4962H7.43069C6.93813 24.4962 6.53943 24.8914 6.53943 25.3787C6.53943 25.866 6.93813 26.2609 7.43069 26.2609H22.2086C22.7007 26.2609 23.0995 25.866 23.0995 25.3787C23.0995 24.8914 22.7007 24.4962 22.2086 24.4962Z" fill="#5AC8FF"/>
<path d="M38.2175 14.6522C37.8695 14.3077 37.3056 14.3077 36.9572 14.6522L32.711 18.8574C32.5439 19.0229 32.4501 19.2473 32.4501 19.4811C32.4501 19.7155 32.5439 19.9398 32.711 20.1054L36.9572 24.3105C37.1316 24.4823 37.3596 24.5689 37.5876 24.5689C37.8155 24.5689 38.0435 24.4827 38.2179 24.3105C38.5658 23.9655 38.5658 23.4071 38.2179 23.0627L34.6012 19.4816L38.2179 15.9002C38.5658 15.5556 38.5658 14.9967 38.2175 14.6522Z" fill="#5AC8FF"/>
<path d="M46.1517 24.3105C46.3262 24.4827 46.5542 24.5689 46.782 24.5689C47.01 24.5689 47.238 24.4827 47.4125 24.3105L51.6587 20.1054C51.8257 19.9398 51.9196 19.7155 51.9196 19.4811C51.9196 19.2473 51.8257 19.0229 51.6587 18.8574L47.4125 14.6522C47.064 14.3077 46.4996 14.3077 46.1522 14.6522C45.8038 14.9967 45.8038 15.5556 46.1522 15.9002L49.7685 19.4811L46.1522 23.0621C45.8038 23.4071 45.8038 23.9655 46.1517 24.3105Z" fill="#5AC8FF"/>
<path d="M42.9497 12.6187L39.6309 25.9206C39.5128 26.3938 39.8045 26.872 40.2823 26.9889C40.3542 27.0067 40.4261 27.0152 40.497 27.0152C40.8971 27.0152 41.2611 26.746 41.3612 26.344L44.6801 13.0421C44.7981 12.5688 44.5066 12.0906 44.0286 11.9736C43.5508 11.8567 43.0678 12.1455 42.9497 12.6187Z" fill="#5AC8FF"/>
</mask>
<g mask="url(#mask0)">
<rect width="60" height="52" fill="url(#paint0_linear)"/>
</g>
<defs>
<linearGradient id="paint0_linear" x1="0" y1="0" x2="60" y2="0" gradientUnits="userSpaceOnUse">
<stop stop-color="#4663FF"/>
<stop offset="1" stop-color="#17A8D3"/>
</linearGradient>
</defs>
</svg>
