<svg width="52" height="52" viewBox="0 0 52 52" fill="none" xmlns="http://www.w3.org/2000/svg">
<mask id="mask0" mask-type="alpha" maskUnits="userSpaceOnUse" x="0" y="0" width="52" height="52">
<path d="M52 26.8387C52 21.2285 48.043 16.531 42.7742 15.3752V4.19355C42.7742 1.88118 40.893 0 38.5806 0H16.7742C14.4619 0 12.5806 1.88118 12.5806 4.19355V13.4194H7.73206L7.22632 15.4456L5.43652 14.3713L0.951096 18.8542L2.02548 20.6456L0 21.1515V27.4937L2.02632 27.9995L0.951096 29.791L5.43568 34.2747L7.22548 33.2004L7.73206 35.2258H12.5806V47.8065C12.5806 50.1188 14.4619 52 16.7742 52H38.5806C40.893 52 42.7742 50.1188 42.7742 47.8065V38.3022C48.043 37.1465 52 32.4488 52 26.8387ZM50.3225 26.8387C50.3225 28.4734 49.9226 30.0132 49.2281 31.3795C48.7625 30.0988 47.6915 29.0915 46.3076 28.7451L42.7742 27.8611V27.6606C43.8192 26.8731 44.4516 25.6344 44.4516 24.3235V22.646C44.4516 21.4744 43.9559 20.3471 43.0912 19.5536C42.2274 18.7628 41.0565 18.3652 39.8856 18.4684C37.7428 18.6537 36.0645 20.566 36.0645 22.8188V24.3225C36.0645 25.6335 36.6969 26.8723 37.7419 27.6598V27.8603L34.2085 28.7443C32.8245 29.0906 31.7535 30.0979 31.2881 31.3786C30.5936 30.0132 30.1935 28.4734 30.1935 26.8387C30.1935 21.289 34.7084 16.7742 40.2581 16.7742C45.8078 16.7742 50.3225 21.289 50.3225 26.8387ZM37.7419 15.3752C37.1649 15.5019 36.6064 15.6764 36.0645 15.8844V13.4194H19.2904V25.1613H28.6504C28.5706 25.7106 28.5161 26.2675 28.5161 26.8387C28.5161 32.4488 32.4732 37.1465 37.7419 38.3022V40.2581H17.6129V11.7419H37.7419V15.3752ZM29.011 23.4839H20.9677V15.0968H34.3871V16.6853C31.8256 18.1724 29.8748 20.5928 29.011 23.4839ZM16.7742 1.67746H38.5806C39.9679 1.67746 41.0968 2.80637 41.0968 4.19355V6.70963H14.2581V4.19355C14.2581 2.80637 15.387 1.67746 16.7742 1.67746ZM12.5806 28.1572C12.0515 28.3904 11.4803 28.5161 10.9032 28.5161C8.5909 28.5161 6.70968 26.6349 6.70968 24.3225C6.70968 22.0103 8.5909 20.129 10.9032 20.129C11.4803 20.129 12.0515 20.2548 12.5806 20.488V28.1572ZM9.04213 33.5484L8.63367 31.9137L8.46342 31.465L7.50561 31.0759L5.69568 32.1628L3.06381 29.5301L4.15077 27.7194L3.73142 26.6961L1.67742 26.1836V22.4615L3.7289 21.949L4.15077 20.9258L3.06381 19.115L5.69568 16.4824L7.50561 17.5693L8.52884 17.1533L9.04213 15.0968H12.5806V18.7075C12.0364 18.5439 11.4727 18.4516 10.9032 18.4516C7.66581 18.4516 5.03225 21.086 5.03225 24.3225C5.03225 27.5592 7.66581 30.1935 10.9032 30.1935C11.4727 30.1935 12.0364 30.1013 12.5806 29.9377V33.5484H9.04213ZM38.5806 50.3225H16.7742C15.387 50.3225 14.2581 49.1936 14.2581 47.8065V45.2904H41.0968V47.8065C41.0968 49.1936 39.9679 50.3225 38.5806 50.3225ZM41.0968 43.6129H14.2581V8.38709H41.0968V15.1395C40.8184 15.1195 40.5415 15.0968 40.2581 15.0968C39.9745 15.0968 39.6978 15.1195 39.4194 15.1395V10.0645H15.9355V41.9355H39.4194V38.5379C39.6978 38.558 39.9745 38.5806 40.2581 38.5806C40.5415 38.5806 40.8184 38.558 41.0968 38.5379V43.6129ZM40.2581 36.9032C37.2513 36.9032 34.5556 35.5706 32.7096 33.4737V32.8128C32.7096 31.6563 33.4939 30.6524 34.6152 30.3714L39.4194 29.1712V26.7296L39.0025 26.4873C38.2133 26.0276 37.7419 25.2184 37.7419 24.3225V22.8188C37.7419 21.4274 38.7475 20.2506 40.0308 20.1391C40.7504 20.0812 41.4323 20.3076 41.9581 20.7899C42.4765 21.2655 42.7742 21.9415 42.7742 22.6452V24.3225C42.7742 25.2184 42.3028 26.0276 41.5136 26.4873L41.0968 26.7296V29.1712L45.9009 30.3714C47.0223 30.6524 47.8065 31.6563 47.8065 32.8128V33.4737C45.9605 35.5706 43.2648 36.9032 40.2581 36.9032Z" fill="#5AC8FF"/>
<path d="M31.0323 3.3551H32.7098V5.03256H31.0323V3.3551Z" fill="#5AC8FF"/>
<path d="M22.6454 3.3551H29.3551V5.03256H22.6454V3.3551Z" fill="#5AC8FF"/>
<path d="M24.3232 46.9677H31.0329V48.645H24.3232V46.9677Z" fill="#5AC8FF"/>
<path d="M36.0646 46.9677H37.7421V48.645H36.0646V46.9677Z" fill="#5AC8FF"/>
<path d="M17.6132 46.9677H19.2906V48.645H17.6132V46.9677Z" fill="#5AC8FF"/>
<path d="M19.2899 26.8384H26.8384V28.5157H19.2899V26.8384Z" fill="#5AC8FF"/>
<path d="M19.2899 30.1935H26.8384V31.8709H19.2899V30.1935Z" fill="#5AC8FF"/>
<path d="M19.2899 33.5485H26.8384V35.2259H19.2899V33.5485Z" fill="#5AC8FF"/>
<path d="M19.2899 36.9031H26.8384V38.5804H19.2899V36.9031Z" fill="#5AC8FF"/>
</mask>
<g mask="url(#mask0)">
<rect width="52" height="52" fill="url(#paint0_linear)"/>
</g>
<defs>
<linearGradient id="paint0_linear" x1="0" y1="0" x2="52" y2="0" gradientUnits="userSpaceOnUse">
<stop stop-color="#F1325E"/>
<stop offset="1" stop-color="#FC199A"/>
</linearGradient>
</defs>
</svg>
