<svg width="60" height="54" viewBox="0 0 60 54" fill="none" xmlns="http://www.w3.org/2000/svg">
<mask id="mask0" mask-type="alpha" maskUnits="userSpaceOnUse" x="0" y="0" width="60" height="54">
<path d="M12.0012 11.9998H4.00119V13.9997H12.0012V11.9998Z" fill="#5AC8FF"/>
<path d="M20.0012 15.9989H4.00119V17.9989H20.0012V15.9989Z" fill="#5AC8FF"/>
<path d="M5.00119 26.9991H16.0012C16.2664 26.9991 16.5208 26.8937 16.7083 26.7063C16.8959 26.5187 17.0012 26.2644 17.0012 25.9991V21.9991C17.0012 21.7339 16.8959 21.4795 16.7083 21.2921C16.5208 21.1045 16.2664 20.9991 16.0012 20.9991H5.00119C4.73598 20.9991 4.48162 21.1045 4.29409 21.2921C4.10656 21.4795 4.00119 21.7339 4.00119 21.9991V25.9991C4.00119 26.2644 4.10656 26.5187 4.29409 26.7063C4.48162 26.8937 4.73598 26.9991 5.00119 26.9991ZM6.00119 22.9991H15.0012V24.9991H6.00119V22.9991Z" fill="#5AC8FF"/>
<path d="M59 0H1C0.734783 0 0.48043 0.105356 0.292893 0.292923C0.105357 0.48038 0 0.734731 0 0.999992V46.9999C0 47.2652 0.105357 47.5196 0.292893 47.7071C0.48043 47.8947 0.734783 48 1 48H37.1V53C37.1 53.2653 37.2053 53.5196 37.3929 53.7071C37.5804 53.8946 37.8348 54 38.1 54H48.29C48.4223 53.9994 48.5532 53.9727 48.6751 53.9212C48.7969 53.8696 48.9073 53.7945 49 53.7C49.1848 53.5138 49.2889 53.2623 49.29 53V48H59C59.2652 48 59.5196 47.8947 59.7071 47.7071C59.8947 47.5196 60 47.2652 60 46.9999V0.999992C60 0.734731 59.8947 0.48038 59.7071 0.292923C59.5196 0.105356 59.2652 0 59 0ZM50.26 34H54V42H49.27V41.34C49.2874 40.6319 49.5039 39.943 49.8948 39.3522C50.2857 38.7615 50.8351 38.2929 51.48 38C51.603 37.9408 51.7127 37.857 51.8021 37.7538C51.8916 37.6507 51.9589 37.5302 52 37.4C52.0392 37.2698 52.0497 37.1326 52.0307 36.9979C52.0117 36.8633 51.9637 36.7343 51.89 36.62L50.26 34ZM47.26 41.35V43.35H39.07V41.35C39.0567 40.4467 38.8206 39.5606 38.3827 38.7705C37.9449 37.9802 37.3188 37.3103 36.56 36.82L38.56 33.4999L40.97 29.5L41.97 27.89V33.52L41.75 33.6C41.6187 33.6786 41.4949 33.769 41.38 33.87C41.2961 33.9209 41.2159 33.9777 41.14 34.0399C41.05 34.13 40.98 34.25 40.89 34.3499C40.8146 34.4356 40.7444 34.5257 40.68 34.6199C40.6164 34.7422 40.563 34.8692 40.52 35C40.4632 35.0985 40.4163 35.2023 40.38 35.31C40.3167 35.5584 40.283 35.8136 40.28 36.07C40.282 36.5678 40.4177 37.0559 40.6727 37.4833C40.9278 37.9108 41.2929 38.2619 41.73 38.5C42.1469 38.7389 42.6196 38.8631 43.1 38.8601C43.8384 38.8469 44.5424 38.5457 45.0619 38.0207C45.5813 37.4957 45.8749 36.7885 45.88 36.05C45.8709 35.4762 45.6856 34.919 45.3493 34.454C45.0131 33.9889 44.542 33.6385 44 33.45V27.64L49.64 36.82C48.9156 37.3345 48.3231 38.0131 47.9111 38.8004C47.4992 39.5878 47.2796 40.4614 47.27 41.35H47.26ZM34.34 36.67C34.267 36.7883 34.2196 36.9207 34.2007 37.0584C34.1817 37.1962 34.1917 37.3364 34.23 37.47C34.2687 37.6038 34.3349 37.7281 34.4244 37.8349C34.514 37.9417 34.6249 38.0286 34.75 38.0899C35.4079 38.3646 35.9752 38.8187 36.3872 39.4005C36.7993 39.9824 37.0393 40.6683 37.08 41.38V42H24.63V34H36L34.34 36.67ZM42.74 35.38C42.8504 35.3199 42.9743 35.2889 43.1 35.29C43.3122 35.29 43.5157 35.3743 43.6657 35.5243C43.8157 35.6744 43.9 35.8778 43.9 36.09C43.9 36.3022 43.8157 36.5057 43.6657 36.6556C43.5157 36.8057 43.3122 36.89 43.1 36.89C42.9578 36.8898 42.8188 36.8481 42.7 36.77C42.5757 36.7054 42.4714 36.6078 42.3991 36.4878C42.3268 36.3678 42.289 36.2301 42.29 36.09C42.2918 35.9415 42.3348 35.7965 42.4142 35.6712C42.4937 35.5458 42.6066 35.4449 42.74 35.38ZM44.09 24C44.1154 23.6452 44.2181 23.3002 44.3908 22.9893C44.5636 22.6785 44.8022 22.409 45.09 22.2C46.02 21.6199 47.66 21.8899 49.85 22.98C52.23 24.16 54.12 24.39 55.46 23.68C55.871 23.4493 56.2234 23.1274 56.4904 22.7391C56.7574 22.3507 56.9318 21.9063 57 21.44L55 21.16C54.968 21.316 54.9021 21.4631 54.8071 21.591C54.7121 21.7189 54.5902 21.8244 54.45 21.9C54.03 22.11 52.98 22.29 50.69 21.15C47.81 19.72 45.55 19.49 43.99 20.47C43.4298 20.8591 42.9662 21.3717 42.6351 21.968C42.304 22.5644 42.1141 23.2287 42.08 23.91L39.6 28H31.45L58 11.18V28H46.57L44.09 24ZM27 28H2V10H27V28ZM29 10H56.13L29 27.18V10ZM58 1.99998V8.00004H2V1.99998H58ZM2 46V30H38.39L37.17 32H23.63C23.3648 32 23.1104 32.1053 22.9229 32.2929C22.7353 32.4804 22.63 32.7348 22.63 33V43C22.63 43.2652 22.7353 43.5196 22.9229 43.7072C23.1104 43.8946 23.3648 44 23.63 44H37.09V46H2ZM39.12 52V46.9999V45.37H47.31V52H39.12ZM49.29 46V44H55C55.2652 44 55.5196 43.8946 55.7071 43.7072C55.8947 43.5196 56 43.2652 56 43V33C56 32.7348 55.8947 32.4804 55.7071 32.2929C55.5196 32.1053 55.2652 32 55 32H49L47.8 30H58V46H49.29Z" fill="#5AC8FF"/>
<path d="M6.00119 4.00024H4.00119V6.00023H6.00119V4.00024Z" fill="#5AC8FF"/>
<path d="M10.0002 4.00024H8.00021V6.00023H10.0002V4.00024Z" fill="#5AC8FF"/>
<path d="M14.0009 4.00024H12.0009V6.00023H14.0009V4.00024Z" fill="#5AC8FF"/>
<path d="M19.7112 31.9989H5.00119C4.73598 31.9989 4.48162 32.1043 4.29409 32.2918C4.10656 32.4794 4.00119 32.7337 4.00119 32.9989V42.9989C4.00119 43.2642 4.10656 43.5185 4.29409 43.706C4.48162 43.8936 4.73598 43.9989 5.00119 43.9989H19.7112C19.9764 43.9989 20.2308 43.8936 20.4183 43.706C20.6059 43.5185 20.7112 43.2642 20.7112 42.9989V32.9989C20.7112 32.7337 20.6059 32.4794 20.4183 32.2918C20.2308 32.1043 19.9764 31.9989 19.7112 31.9989ZM18.7112 41.9989H6.00119V33.9989H18.7112V41.9989Z" fill="#5AC8FF"/>
</mask>
<g mask="url(#mask0)">
<path d="M0 0H60V54H0V0Z" fill="url(#paint0_linear)"/>
</g>
<defs>
<linearGradient id="paint0_linear" x1="0" y1="0" x2="60" y2="0" gradientUnits="userSpaceOnUse">
<stop stop-color="#4663FF"/>
<stop offset="1" stop-color="#17A8D3"/>
</linearGradient>
</defs>
</svg>
