<svg width="68" height="68" viewBox="0 0 68 68" fill="none" xmlns="http://www.w3.org/2000/svg">
<mask id="mask0" mask-type="alpha" maskUnits="userSpaceOnUse" x="0" y="0" width="68" height="68">
<path d="M46.3973 27.6139L45.6285 25.5388C44.9408 25.7992 44.2432 26.0374 43.5545 26.2479L44.1885 28.3683C44.9222 28.1445 45.6658 27.8908 46.3973 27.6139Z" fill="#5AC8FF"/>
<path d="M39.4839 32.4388V29.4609C40.2977 29.329 41.1148 29.1673 41.9253 28.979L41.4307 26.8197C40.3734 27.0679 39.3019 27.2628 38.2457 27.4036L37.2903 27.531V32.4399C37.2903 32.7369 37.2969 33.0326 37.3123 33.3274L39.5037 33.2144C39.4904 32.9562 39.4839 32.6992 39.4839 32.4388Z" fill="#5AC8FF"/>
<path d="M19.7419 13.2946C16.1127 13.2946 13.1613 16.2758 13.1613 19.9418C13.1613 23.6077 16.1127 26.589 19.7419 26.589C23.3711 26.589 26.3225 23.6077 26.3225 19.9418C26.3225 16.2758 23.3711 13.2946 19.7419 13.2946ZM19.7419 24.3733C17.3224 24.3733 15.3548 22.3857 15.3548 19.9418C15.3548 17.4978 17.3224 15.5103 19.7419 15.5103C22.1614 15.5103 24.129 17.4978 24.129 19.9418C24.129 22.3857 22.1614 24.3733 19.7419 24.3733Z" fill="#5AC8FF"/>
<path d="M48.7823 19.707L48.2592 19.42L47.736 19.707C43.5376 22.0047 38.7852 23.2355 33.9935 23.2643L32.9033 23.2709V32.4387C32.9033 42.0516 38.9234 50.7129 47.8841 53.9901L48.2581 54.1264L48.6321 53.9901C57.5928 50.7129 63.6129 42.0516 63.6129 32.4387V23.2709L62.5227 23.2643C57.7342 23.2355 52.9831 22.0047 48.7823 19.707ZM61.4194 32.4387C61.4194 40.988 56.1472 48.7044 48.2581 51.7654C40.369 48.7033 35.0968 40.987 35.0968 32.4387V25.4535C39.6792 25.264 44.1967 24.0564 48.2592 21.9338C52.3228 24.0564 56.8393 25.264 61.4194 25.4535V32.4387Z" fill="#5AC8FF"/>
<path d="M43.8715 33.8858L39.0303 38.7759L46.065 45.8817L59.6805 32.1286L54.8392 27.2385L46.065 36.1015L43.8715 33.8858ZM56.5787 32.1286L46.065 42.7487L42.1321 38.7759L43.8715 37.0189L46.065 39.2345L54.8392 30.3716L56.5787 32.1286Z" fill="#5AC8FF"/>
<path d="M68 18.8338H62.7037C57.7748 18.8338 53.0027 17.3747 48.8602 14.584L48.2164 14.2063L47.612 14.6128C45.1147 16.2957 42.3651 17.4877 39.4839 18.168V15.7406L36.5939 15.0537C36.2297 13.7697 35.722 12.5333 35.0792 11.3623L36.6433 8.81085L30.7613 2.86936L28.2354 4.44921C27.0761 3.79997 25.852 3.2871 24.581 2.91922L23.9009 0H15.583L14.903 2.91922C13.6318 3.2871 12.4078 3.79997 11.2485 4.44921L8.72265 2.86936L2.84064 8.81085L4.40464 11.3623C3.76193 12.5333 3.25413 13.7697 2.89 15.0537L0 15.7406V24.1427L2.89 24.8295C3.25413 26.1136 3.76193 27.3501 4.40464 28.521L2.84064 31.0725L8.72265 37.014L11.2485 35.4341C12.4078 36.0834 13.6318 36.5963 14.903 36.9641L15.583 39.8834H23.9009L24.581 36.9641C25.852 36.5963 27.0761 36.0834 28.2354 35.4341L28.741 35.7499C29.3289 40.5392 31.1517 45.0317 33.9451 48.8006L30.2556 62.4662L35.6714 61.098L39.7701 67.9989L43.4476 56.8549C44.8778 57.5849 46.3771 58.2031 47.9487 58.6706L48.2581 58.7637L48.5674 58.6718C50.139 58.2042 51.6384 57.586 53.0685 56.8559L56.746 68L60.8447 61.0991L66.2605 62.4673L62.571 48.8018C66.0005 44.173 68 38.463 68 32.4385V18.8338ZM28.2595 32.8439L27.6859 33.1962C26.3532 34.0116 24.9144 34.6154 23.4052 34.9877L22.7515 35.1495L22.1636 37.6676H17.3203L16.7334 35.1495L16.0798 34.9877C14.5707 34.6154 13.1317 34.0116 11.7991 33.1962L11.2255 32.8439L9.04729 34.2055L5.62206 30.7456L6.97 28.5454L6.62123 27.966C5.814 26.6199 5.21626 25.1663 4.84774 23.6419L4.68762 22.9817L2.19355 22.3879V17.4955L4.68652 16.9027L4.84664 16.2425C5.21516 14.7181 5.8129 13.2646 6.62013 11.9184L6.96891 11.339L5.62097 9.13772L9.04619 5.67785L11.2244 7.03944L11.798 6.68705C13.1306 5.87166 14.5695 5.26791 16.0787 4.89567L16.7324 4.73389L17.3203 2.21574H22.1636L22.7504 4.73389L23.404 4.89567C24.9132 5.26791 26.3522 5.87166 27.6848 6.68705L28.2584 7.03944L30.4366 5.67785L33.8618 9.13772L32.5139 11.338L32.8626 11.9174C33.6699 13.2634 34.2677 14.7169 34.6362 16.2413L34.7962 16.9017L37.2903 17.4955V18.5834C36.1442 18.7452 34.9838 18.8338 33.8125 18.8338H32.8473C32.2868 12.0204 26.6297 6.64723 19.7419 6.64723C12.4846 6.64723 6.58065 12.6109 6.58065 19.9417C6.58065 27.2724 12.4846 33.2361 19.7419 33.2361C23.0104 33.2361 26.1251 31.9964 28.5161 29.8371V32.4395C28.5161 32.6345 28.5359 32.8262 28.5402 33.0201L28.2595 32.8439ZM28.5161 18.8338V26.5656C26.4465 29.3552 23.1979 31.0204 19.7419 31.0204C13.6943 31.0204 8.77419 26.0505 8.77419 19.9417C8.77419 13.8328 13.6943 8.86297 19.7419 8.86297C25.4188 8.86297 30.102 13.2435 30.6538 18.8338H28.5161ZM39.1976 62.7288L36.7157 58.551L33.3573 59.3985L35.6594 50.8701C37.3616 52.7546 39.3227 54.4031 41.4987 55.7547L39.1976 62.7288ZM63.1589 59.3985L59.8005 58.551L57.3185 62.7288L55.0175 55.7547C57.1935 54.4031 59.1546 52.7546 60.8568 50.8701L63.1589 59.3985ZM65.8064 32.4385C65.8064 43.3997 58.6072 53.2277 48.2581 56.4526C37.909 53.2277 30.7097 43.3997 30.7097 32.4385V21.0495H33.8125C38.9376 21.0495 43.9061 19.5993 48.257 16.8308C52.587 19.5938 57.5675 21.0495 62.7037 21.0495H65.8064V32.4385Z" fill="#5AC8FF"/>
</mask>
<g mask="url(#mask0)">
<path d="M0 0H68V68H0V0Z" fill="url(#paint0_linear)"/>
</g>
<defs>
<linearGradient id="paint0_linear" x1="0" y1="0" x2="68" y2="0" gradientUnits="userSpaceOnUse">
<stop stop-color="#F1325E"/>
<stop offset="1" stop-color="#FC199A"/>
</linearGradient>
</defs>
</svg>
