<svg width="68" height="68" viewBox="0 0 68 68" fill="none" xmlns="http://www.w3.org/2000/svg">
<mask id="mask0" mask-type="alpha" maskUnits="userSpaceOnUse" x="0" y="0" width="68" height="68">
<path d="M67.0319 17.8525L67.0294 17.8502L62.6401 17.2238C62.0232 17.136 61.5943 16.5644 61.6822 15.9473C61.7244 15.6508 61.8828 15.3833 62.1223 15.2036L65.6697 12.5422C66.1683 12.1682 66.2693 11.4609 65.8954 10.9622L61.8334 5.54475C61.4595 5.04607 60.7523 4.94505 60.2537 5.31903L56.7073 7.98032C56.2109 8.35719 55.5032 8.26008 55.1265 7.76354C54.9435 7.52233 54.8652 7.21775 54.9089 6.91822L55.5362 2.52787C55.6246 1.91079 55.1962 1.33906 54.5796 1.25038L54.5782 1.25026L47.8806 0.29321C47.2638 0.20466 46.6918 0.632926 46.6033 1.25001L45.9759 5.64073C45.888 6.25781 45.3167 6.68683 44.6998 6.59891C44.4032 6.55671 44.1359 6.39826 43.9562 6.15868L41.2968 2.61025C40.9228 2.11157 40.2157 2.01055 39.717 2.38453L36.3265 4.92969C34.7924 4.76657 33.2456 4.76657 31.7115 4.92969C21.6658 6.07819 13.788 14.0918 12.8088 24.1582C12.7783 24.4776 12.767 24.7948 12.7513 25.1118H12.4127C11.8773 25.1128 11.4163 25.4901 11.3092 26.0148L10.5295 29.7235L7.40633 27.5689C6.9581 27.2596 6.35276 27.3147 5.96772 27.6998L2.58274 31.0857C2.19826 31.4708 2.14326 32.0754 2.45185 32.5236L4.59568 35.642L0.886866 36.4219C0.368119 36.5357 -0.00112575 36.9957 2.57882e-06 37.5268V42.0414C-0.000279503 42.5752 0.37362 43.0362 0.895894 43.1463L4.6047 43.9263L2.46088 47.0447C2.15229 47.4928 2.20729 48.0974 2.59177 48.4825L5.97675 51.8684C6.36179 52.2535 6.96713 52.3087 7.41536 51.9993L10.5329 49.8493L11.3126 53.5591C11.4196 54.0838 11.8807 54.4611 12.4161 54.462H16.9294C17.4632 54.4623 17.924 54.0882 18.034 53.5659L18.8137 49.8561L21.9313 52.0004C22.3793 52.3092 22.9839 52.2541 23.3687 51.8696L25.1211 50.1112V53.3277C25.1261 54.9333 25.9861 56.4146 27.3777 57.2147V63.4854C27.3777 65.9788 29.3984 67.9999 31.891 67.9999H36.4043C38.8969 67.9999 40.9176 65.9788 40.9176 63.4854V57.2147C42.3092 56.4146 43.1692 54.9333 43.1742 53.3277V48.8606C43.2048 46.981 44.1879 45.2457 45.784 44.2535C46.7204 43.6459 47.6084 42.9666 48.4402 42.222L46.935 40.5403C46.191 41.2073 45.396 41.8153 44.5576 42.3586C42.3172 43.7651 40.9457 46.2148 40.9176 48.8606V53.3277C40.9176 54.5744 39.9073 55.585 38.6609 55.585H29.6344C28.388 55.585 27.3777 54.5744 27.3777 53.3277V48.7669C27.3516 46.1712 26.0017 43.7688 23.7986 42.3968C14.8557 36.776 12.1612 24.9678 17.7806 16.0224C21.2671 10.4722 27.3519 7.09406 33.9051 7.07063C33.8883 7.11081 33.8734 7.15188 33.8611 7.1937C33.8192 7.48995 33.8967 7.79087 34.0766 8.02995L36.736 11.5772C37.0164 11.9403 37.0434 12.4388 36.8037 12.83C36.573 13.2237 36.1269 13.4384 35.6754 13.3729L31.2862 12.7454C30.6693 12.657 30.0977 13.0854 30.009 13.7023L30.0089 13.7036L29.051 20.4066C28.9626 21.0235 29.3909 21.5955 30.0076 21.684L30.0089 21.6842L34.3982 22.3117C35.0151 22.3996 35.444 22.9711 35.3561 23.5882C35.3139 23.8847 35.1555 24.1522 34.916 24.332L31.3697 26.9921C30.8711 27.3661 30.7701 28.0735 31.144 28.5723L35.206 33.9897C35.5799 34.4884 36.2871 34.5894 36.7857 34.2155L40.3332 31.5552C40.8321 31.182 41.5393 31.284 41.9126 31.7832C42.0911 32.0221 42.1679 32.322 42.126 32.6173L41.4998 37.0076C41.4112 37.6246 41.8394 38.1967 42.4563 38.2852L49.1588 39.2435C49.2116 39.2502 49.2649 39.2536 49.318 39.2536C49.8798 39.2544 50.3564 38.8416 50.4361 38.2852L51.0623 33.8949C51.1502 33.2778 51.7216 32.8488 52.3385 32.9367C52.635 32.9789 52.9024 33.1372 53.0821 33.3768L55.7426 36.9241C56.1166 37.4229 56.8237 37.5239 57.3224 37.1498L62.7383 33.0867C63.2369 32.7128 63.3378 32.0054 62.964 31.5067L60.3045 27.9594C60.0254 27.5959 59.9984 27.0981 60.2368 26.7066C60.4626 26.3078 60.9128 26.0917 61.3651 26.1648L65.7544 26.7912C66.371 26.8799 66.943 26.4514 67.0316 25.8344L67.9884 19.1301C68.0769 18.513 67.6488 17.9411 67.0319 17.8525ZM29.6344 57.8422H38.6609V60.0996H29.6344V57.8422ZM29.6344 62.3568H38.6609V63.4854C38.6609 64.7321 37.6507 65.7427 36.4043 65.7427H31.891C30.6446 65.7427 29.6344 64.7321 29.6344 63.4854V62.3568ZM20.6517 42.8935C21.2678 43.3975 21.9115 43.8667 22.58 44.2986C23.6461 44.9726 24.4486 45.9921 24.8536 47.1869L22.4333 49.6033L20.0898 47.9871C19.0637 47.2797 17.6585 47.5384 16.9511 48.5649C16.7816 48.8111 16.6625 49.0885 16.6011 49.3808L16.0098 52.1991H13.3277L12.7365 49.3854C12.4799 48.1655 11.2831 47.3846 10.0635 47.6413C9.77116 47.7029 9.49387 47.822 9.24776 47.9915L6.9031 49.6033L4.84729 47.5514L6.46193 45.2083C7.16981 44.1822 6.91199 42.7765 5.88619 42.0685C5.63993 41.8984 5.36237 41.7791 5.06958 41.7174L2.25666 41.1249V38.4433L5.06958 37.8508C6.28873 37.5922 7.06755 36.394 6.80903 35.1744C6.74768 34.8849 6.63019 34.6106 6.46305 34.3666L4.84729 32.0168L6.9031 29.9649L9.24888 31.5813C10.2755 32.2879 11.6807 32.0283 12.3872 31.0013C12.5564 30.7555 12.6752 30.4784 12.7365 30.1862L12.934 29.2472C13.1148 30.5476 13.4143 31.8286 13.8288 33.0744C10.1161 33.5171 7.46529 36.8866 7.90787 40.6003C8.35046 44.3138 11.7191 46.9654 15.4317 46.5228C17.6667 46.2561 19.623 44.896 20.6517 42.8935ZM18.8995 41.3033C18.0569 43.6459 15.4754 44.8616 13.1334 44.0191C10.7914 43.1762 9.57596 40.5941 10.4184 38.2515C11.063 36.4593 12.7641 35.2656 14.6681 35.2696C14.6827 35.2696 14.6963 35.2696 14.7109 35.2696C15.7485 37.5076 17.1656 39.5488 18.8995 41.3033ZM64.951 24.3941L61.6788 23.9268C59.828 23.6624 58.1136 24.9489 57.8492 26.8001C57.7223 27.689 57.9536 28.592 58.4925 29.3104L60.4749 31.9547L56.8642 34.6635L54.8807 32.0202C53.759 30.5241 51.6374 30.2206 50.1418 31.3424C49.4237 31.8812 48.9488 32.6832 48.8215 33.5721L48.3645 36.8497L43.8975 36.2108L44.3646 32.9379C44.6297 31.0867 43.3442 29.3712 41.4936 29.1063C40.6043 28.9788 39.7012 29.2102 38.9825 29.7494L36.3388 31.7324L33.6309 28.1208L36.2735 26.1366C37.7692 25.0148 38.0726 22.8925 36.9509 21.3965C36.4125 20.6781 35.6107 20.2031 34.7219 20.0759L31.4499 19.6086L32.0884 15.1404L35.3606 15.6076C37.2112 15.8727 38.9262 14.5869 39.1912 12.7358C39.3185 11.8463 39.0872 10.9429 38.5481 10.224L36.5589 7.57737L40.1695 4.86872L42.1531 7.51313C43.2747 9.00916 45.3963 9.31273 46.8919 8.1908C47.6101 7.65219 48.0851 6.8502 48.2123 5.96117L48.6793 2.68822L53.1464 3.32583L52.6792 6.59891C52.4149 8.45015 53.701 10.1651 55.5517 10.4295C56.4404 10.5565 57.3433 10.3251 58.0614 9.78609L60.7051 7.80309L63.413 11.4148L60.7693 13.3989C59.2736 14.5208 58.9702 16.643 60.0919 18.139C60.6303 18.8574 61.4321 19.3324 62.3209 19.4597L65.5929 19.9269L64.951 24.3941Z" fill="#003047"/>
<path d="M48.5186 10.7374C43.5335 10.7374 39.492 14.7799 39.492 19.7664C39.492 24.753 43.5335 28.7955 48.5186 28.7955C53.5039 28.7955 57.5452 24.753 57.5452 19.7664C57.5396 14.7821 53.5016 10.7428 48.5186 10.7374ZM48.5186 26.5383C44.7796 26.5383 41.7487 23.5064 41.7487 19.7664C41.7487 16.0265 44.7796 12.9946 48.5186 12.9946C52.2576 12.9946 55.2887 16.0265 55.2887 19.7664C55.2842 23.5046 52.2559 26.5339 48.5186 26.5383Z" fill="#003047"/>
<path d="M35.2741 49.9413H33.0174V53.3272H35.2741V49.9413Z" fill="#003047"/>
<path d="M29.2124 38.8572C22.2472 36.1355 18.8064 28.281 21.5275 21.3139C22.582 18.6142 24.4743 16.3241 26.9265 14.78L25.7202 12.8704C18.3387 17.522 16.1245 27.2782 20.7749 34.6618C22.5757 37.5213 25.246 39.7279 28.3932 40.9576C31.1791 42.0253 33.0188 44.7002 33.0194 47.6843H35.2761C35.2796 43.7691 32.8675 40.2577 29.2124 38.8572Z" fill="#003047"/>
<path d="M63.484 42.0404H55.5857V44.2977H63.484V42.0404Z" fill="#003047"/>
<path d="M55.1782 47.9449L53.7337 49.6793L60.5041 55.3216L61.9486 53.5872L55.1782 47.9449Z" fill="#003047"/>
<path d="M51.0739 51.0693H48.8172V58.9698H51.0739V51.0693Z" fill="#003047"/>
<path d="M10.177 17.2448L1.15106 19.5017L1.69803 21.6904L10.724 19.4334L10.177 17.2448Z" fill="#003047"/>
<path d="M4.33734 6.13574L3.02643 7.97162L10.9241 13.6141L12.235 11.7784L4.33734 6.13574Z" fill="#003047"/>
<path d="M14.8808 0L12.6946 0.559138L15.0024 9.58747L17.1886 9.02833L14.8808 0Z" fill="#003047"/>
</mask>
<g mask="url(#mask0)">
<rect width="68" height="68" fill="url(#paint0_linear)"/>
</g>
<defs>
<linearGradient id="paint0_linear" x1="0" y1="0" x2="68" y2="0" gradientUnits="userSpaceOnUse">
<stop stop-color="#4663FF"/>
<stop offset="1" stop-color="#17A8D3"/>
</linearGradient>
</defs>
</svg>
