<svg xmlns="http://www.w3.org/2000/svg" width="7" height="13" viewBox="0 0 7 13" fill="none">
    <path d="M0.2 0.7C0.4 0.6 0.6 0.5 0.8 0.5 0.9 0.5 1.1 0.6 1.3 0.7L6.5 6C6.7 6.1 6.8 6.3 6.8 6.5 6.8 6.7 6.7 6.9 6.5 7L1.3 12.3C1.1 12.4 0.9 12.5 0.8 12.5 0.6 12.5 0.4 12.4 0.2 12.3 0.1 12.1 0 11.9 0 11.7 0 11.6 0.1 11.4 0.2 11.2L4.9 6.5 0.2 1.8C0.1 1.6 0 1.4 0 1.3 0 1.1 0.1 0.9 0.2 0.7Z" fill="
    " />
    <defs>
        <linearGradient y1="12.5" x2="7" y2="12.3" gradientUnits="userSpaceOnUse">
            <stop stop-color="#0085FF" />
            <stop offset="1" stop-color="#11A9FF" />
        </linearGradient>
    </defs>
</svg>