<svg width="24" height="24" viewBox="0 0 24 24" fill="none" xmlns="http://www.w3.org/2000/svg">
<path fill-rule="evenodd" clip-rule="evenodd" d="M12 0C5.37258 0 0 5.37258 0 12C0 18.6274 5.37258 24 12 24C18.6274 24 24 18.6274 24 12C24 5.37258 18.6274 0 12 0ZM5.76075 9.9389H8.48022V18.1098H5.76075V9.9389ZM8.65939 7.41135C8.64174 6.6102 8.06883 6 7.13852 6C6.20821 6 5.6 6.6102 5.6 7.41135C5.6 8.1959 6.19023 8.82367 7.10322 8.82367H7.1206C8.06883 8.82367 8.65939 8.1959 8.65939 7.41135ZM15.1565 9.74675C16.9461 9.74675 18.2877 10.9148 18.2877 13.4246L18.2875 18.1095H15.5682V13.7381C15.5682 12.6401 15.1747 11.8908 14.1902 11.8908C13.4389 11.8908 12.9914 12.3959 12.7949 12.8838C12.723 13.0586 12.7053 13.3022 12.7053 13.5464V18.1097H9.98551C9.98551 18.1097 10.0214 10.7055 9.98551 9.93883H12.7053V11.0962C13.0662 10.5398 13.7127 9.74675 15.1565 9.74675Z" fill="url(#paint0_linear)"/>
<defs>
<linearGradient id="paint0_linear" x1="8.9407e-08" y1="24" x2="24.9706" y2="22.9437" gradientUnits="userSpaceOnUse">
<stop stop-color="#F52C68"/>
<stop offset="1" stop-color="#FF4874"/>
</linearGradient>
</defs>
</svg>
