<svg width="277" height="295" viewBox="0 0 277 295" fill="none" xmlns="http://www.w3.org/2000/svg">
<rect x="0.5" y="49.5" width="276" height="245" fill="white" stroke="#76777E"/>
<path d="M188.09 108.251C188.09 108.251 190.941 106.755 190.191 102.414C189.591 98.0735 188.09 94.0323 189.141 81.7591C190.191 69.4859 189.741 64.5466 187.94 55.2669C186.289 45.8374 181.787 34.4622 163.028 26.8289" fill="url(#paint0_linear)"/>
<path d="M188.09 108.251C188.09 108.251 190.941 106.755 190.191 102.414C189.591 98.0735 188.09 94.0323 189.141 81.7591C190.191 69.4859 189.741 64.5466 187.94 55.2669C186.289 45.8374 181.787 34.4622 163.028 26.8289L149.301 16.1216L118.626 24.7624L117.33 36.4274C125.539 34.5553 144.289 31.5022 153.621 34.2672C165.287 37.7235 170.039 33.4031 186.456 80.0634C187.033 81.5035 187.925 85.2478 186.888 88.7042C185.592 93.0246 187.04 105.332 188.09 108.251Z" fill="url(#paint1_linear)"/>
<path d="M188.09 108.251C188.09 108.251 190.941 106.755 190.191 102.414C189.591 98.0735 188.09 94.0323 189.141 81.7591C190.191 69.4859 189.741 64.5466 187.94 55.2669C186.289 45.8374 181.787 34.4622 163.028 26.8289L149.301 16.1216L118.626 24.7624L117.33 36.4274C125.539 34.5553 144.289 31.5022 153.621 34.2672C165.287 37.7235 170.039 33.4031 186.456 80.0634C187.033 81.5035 187.925 85.2478 186.888 88.7042C185.592 93.0245 187.04 105.332 188.09 108.251Z" stroke="#76777E"/>
<path d="M188.24 132.05C188.24 132.05 186.739 151.358 179.836 163.631C172.932 175.904 170.231 176.353 170.231 176.353C170.231 176.353 177.735 197.158 173.533 201.498L172.182 199.253C172.182 199.253 169.931 214.969 162.127 215.867C162.127 215.867 162.127 212.874 162.127 211.077C162.127 211.077 159.276 211.527 158.375 211.227C157.475 211.077 160.626 204.043 156.574 197.906" fill="url(#paint2_linear)"/>
<path d="M188.24 132.05C188.24 132.05 186.739 151.358 179.836 163.631C172.932 175.904 170.231 176.353 170.231 176.353C170.231 176.353 177.735 197.158 173.533 201.498L172.182 199.253C172.182 199.253 169.931 214.969 162.127 215.867V211.077C162.127 211.077 159.276 211.527 158.375 211.227C157.475 211.077 160.626 204.043 156.574 197.906L158.375 177.704L188.24 132.05Z" fill="url(#paint3_linear)"/>
<path d="M162.127 215.867C169.931 214.969 172.182 199.253 172.182 199.253L173.533 201.498C177.735 197.158 170.231 176.353 170.231 176.353C170.231 176.353 172.932 175.904 179.836 163.631C186.739 151.358 188.24 132.05 188.24 132.05L158.375 177.704L156.574 197.906C160.626 204.043 157.475 211.077 158.375 211.227C159.276 211.527 162.127 211.077 162.127 211.077M162.127 215.867C162.127 215.867 162.127 212.874 162.127 211.077M162.127 215.867V211.077" stroke="#76777E"/>
<path d="M89.6415 142.975C90.3918 141.778 90.692 139.982 90.0917 136.988C90.0917 136.988 99.2462 154.65 107.05 162.283C114.854 169.917 120.257 173.06 134.213 176.053C148.17 179.047 160.326 177.849 165.429 176.053C170.531 174.257 172.482 173.06 173.983 168.869C175.484 164.678 176.684 160.786 179.085 157.344C181.637 153.752 183.287 147.016 184.938 141.479C186.589 135.941 191.241 126.511 190.041 118.578C188.84 110.646 186.589 101.665 186.439 98.3726C186.289 95.0797 186.589 92.236 187.039 88.0451C187.49 83.8542 187.64 82.3575 183.738 72.1797C179.836 62.0019 176.234 52.8718 173.082 48.8306C173.082 48.8306 166.929 23.8351 115.904 37.0064" fill="#FFFFFE"/>
<path d="M89.6415 142.975C90.3918 141.778 90.692 139.982 90.0917 136.988C90.0917 136.988 99.2462 154.65 107.05 162.283C114.854 169.917 120.257 173.06 134.213 176.053C148.17 179.047 160.326 177.849 165.429 176.053C170.531 174.257 172.482 173.06 173.983 168.869C175.484 164.678 176.684 160.786 179.085 157.344C181.637 153.752 183.287 147.016 184.938 141.479C186.589 135.941 191.241 126.511 190.041 118.579C188.84 110.646 186.589 101.665 186.439 98.3726C186.289 95.0797 186.589 92.236 187.039 88.0451C187.49 83.8542 187.64 82.3575 183.738 72.1797C179.836 62.0019 176.234 52.8718 173.082 48.8306C173.082 48.8306 166.929 23.8351 115.904 37.0064" stroke="#76777E"/>
<path d="M153.573 34.6122C153.573 34.6122 170.831 28.0265 163.178 11.4128C155.524 -5.20101 129.411 2.28267 120.857 5.42582C112.303 8.71864 87.0903 20.6925 81.0873 26.6795C75.0844 32.8161 56.9255 69.9351 53.4738 74.126C50.0221 78.3169 49.2717 76.9698 49.1216 81.7594C49.1216 81.7594 46.7205 85.2019 45.82 90.5901C44.9196 95.8287 42.8186 97.1757 45.82 108.102C48.8215 119.028 46.7205 121.722 48.5214 123.818C50.3222 126.063 51.973 130.104 51.973 130.104C51.973 130.104 52.8735 143.275 58.2761 150.011C58.2761 150.011 59.6268 162.733 62.028 168.869C64.4292 175.006 70.132 184.585 66.2301 191.47C62.3281 198.355 60.5272 196.11 60.5272 196.11L62.3281 198.355C62.3281 198.355 54.8244 203.594 45.67 201.049C45.67 201.049 47.6209 205.24 61.7278 203.743C61.7278 203.743 70.132 201.049 71.7828 197.457C71.7828 197.457 76.8853 202.247 75.2345 207.785L77.1854 204.941C77.1854 204.941 76.5851 214.071 72.0829 218.561C72.0829 218.561 77.6357 215.867 79.2865 212.424C79.2865 212.424 77.0354 221.405 68.7813 224.698C68.7813 224.698 75.3845 224.548 76.7352 223.201L74.334 226.494C74.334 226.494 85.5896 226.045 89.3414 215.119C93.0932 204.192 88.8912 187.13 88.8912 187.13C88.8912 187.13 91.7426 199.403 99.6965 205.24C107.65 211.227 111.102 217.064 110.652 222.602C110.652 222.602 108.251 185.633 92.493 164.529C92.493 164.529 98.796 164.978 99.5464 164.978C99.5464 164.978 90.3919 150.16 89.3414 143.874C89.3414 143.874 87.8407 144.922 83.6386 144.922C83.6386 144.922 73.7337 134.594 80.9373 117.831C88.1408 101.067 96.695 80.562 97.1452 70.8332C97.1452 70.8332 115.604 47.9331 116.055 37.7553C116.055 37.7553 134.363 11.7121 151.022 19.9442" fill="url(#paint4_linear)"/>
<path d="M153.573 34.6122C153.573 34.6122 170.831 28.0265 163.178 11.4128C155.524 -5.20101 129.411 2.28267 120.857 5.42582C112.303 8.71864 87.0903 20.6925 81.0873 26.6795C75.0844 32.8161 56.9255 69.9351 53.4738 74.126C50.0221 78.3169 49.2717 76.9698 49.1216 81.7594C49.1216 81.7594 46.7205 85.2018 45.82 90.5901C44.9196 95.8287 42.8186 97.1757 45.82 108.102C48.8215 119.028 46.7205 121.722 48.5214 123.818C50.3222 126.063 51.973 130.104 51.973 130.104C51.973 130.104 52.8735 143.275 58.2761 150.011C58.2761 150.011 59.6268 162.733 62.028 168.869C64.4292 175.006 70.132 184.585 66.2301 191.47C62.3281 198.355 60.5272 196.11 60.5272 196.11L62.3281 198.355C62.3281 198.355 54.8244 203.594 45.67 201.049C45.67 201.049 47.6209 205.24 61.7278 203.743C61.7278 203.743 70.132 201.049 71.7828 197.457C71.7828 197.457 76.8853 202.247 75.2345 207.785L77.1854 204.941C77.1854 204.941 76.5851 214.071 72.0829 218.561C72.0829 218.561 77.6357 215.867 79.2865 212.424C79.2865 212.424 77.0354 221.405 68.7813 224.698C68.7813 224.698 75.3845 224.548 76.7352 223.201L74.334 226.494C74.334 226.494 85.5896 226.045 89.3414 215.119C93.0932 204.192 88.8912 187.13 88.8912 187.13C88.8912 187.13 91.7426 199.403 99.6965 205.24C107.65 211.227 111.102 217.064 110.652 222.602C110.652 222.602 108.251 185.633 92.4929 164.529C92.4929 164.529 98.796 164.978 99.5464 164.978C99.5464 164.978 90.3919 150.16 89.3414 143.874C89.3414 143.874 87.8407 144.922 83.6386 144.922C83.6386 144.922 73.7337 134.594 80.9373 117.831C88.1408 101.067 96.695 80.562 97.1452 70.8332C97.1452 70.8332 115.604 47.9331 116.055 37.7553C116.055 37.7553 134.363 11.7121 151.022 19.9442" stroke="#76777E"/>
<path d="M158.225 178C158.225 178 155.824 193.416 156.724 208.982" stroke="#76777E"/>
<path d="M65.4797 202.247C65.4797 202.247 46.5704 212.424 44.1692 214.819C41.768 217.214 32.7636 225.745 33.2138 236.522C33.2138 236.522 44.9196 249.992 66.23 259.272C75.5346 263.313 86.49 266.606 99.0962 267.654C110.202 268.552 122.658 267.804 136.164 264.211C200.096 247.298 195.744 208.832 192.442 204.342C192.442 204.342 185.238 195.96 174.883 196.858" stroke="#76777E"/>
<path d="M60.0771 205.09C60.0771 205.09 20.0074 222.153 5 239.515" stroke="#76777E"/>
<path d="M174.733 194.464C174.733 194.464 198.145 194.015 211.952 202.546C225.758 211.078 229.66 222.154 229.66 222.154" stroke="#76777E"/>
<path d="M200.996 92.8351L200.846 91.7874C200.846 91.6377 200.696 91.3384 200.396 91.3384C199.195 85.2018 195.594 83.1064 189.741 82.9567C183.438 82.807 171.432 84.1541 169.181 94.9306C169.181 94.9306 169.181 95.2299 167.98 93.8828C166.78 92.5358 166.029 92.2364 163.028 92.5358C160.176 92.8351 156.875 93.5835 155.074 96.4273C155.074 96.4273 153.873 84.7528 135.714 86.5488C117.555 88.0456 116.655 97.475 116.655 97.475C116.655 97.475 108.851 98.5227 107.65 98.6724C106.3 98.8221 103.148 99.8698 103.148 99.8698L87.2404 101.666L86.7902 102.714C86.7902 102.714 102.548 100.618 103.148 100.618C103.148 100.618 105.399 101.367 108.401 101.067C111.402 100.768 116.055 100.169 116.055 100.169C116.055 100.169 114.854 119.627 131.362 123.967C147.87 128.308 157.325 107.353 155.374 97.924C155.374 97.924 156.124 94.7809 160.476 93.4338C164.829 92.0868 166.479 93.1345 167.23 94.0325C167.83 95.0802 169.031 95.8286 169.031 95.8286C169.031 95.8286 167.98 118.13 182.387 118.878C195.894 119.627 201.146 100.918 200.696 93.1345C200.846 93.2842 200.996 92.9848 200.996 92.8351ZM146.82 118.729C139.316 127.41 127.46 122.471 124.159 119.477C118.756 114.388 116.805 105.857 116.955 100.319C117.855 100.169 117.705 99.4208 117.705 99.4208C117.705 99.4208 117.705 98.9718 117.705 98.3731C117.705 97.7744 117.405 97.6247 117.405 97.6247C117.555 97.1757 117.705 96.7267 117.855 96.2776C121.007 90.2907 130.162 86.9979 136.915 86.9979C143.668 86.9979 152.222 88.1953 154.173 95.6789C156.124 103.013 154.173 110.048 146.82 118.729ZM196.044 109.299C191.091 119.327 183.288 119.776 178.035 117.232C172.782 114.687 168.13 101.666 170.531 92.8351C172.933 84.0044 188.69 81.7593 195.294 84.6031C197.845 85.6508 199.345 88.1953 199.796 91.3384C198.295 91.6377 195.444 92.3861 194.393 92.8351C193.042 93.4338 192.592 93.8828 192.592 93.8828L187.19 94.9306V95.5293L192.592 94.4815H193.643L200.096 93.7332C200.096 98.3731 198.745 104.061 196.044 109.299Z" fill="url(#paint5_linear)"/>
<defs>
<linearGradient id="paint0_linear" x1="137.51" y1="31.2786" x2="175.272" y2="84.8891" gradientUnits="userSpaceOnUse">
<stop stop-color="#EF3F7C"/>
<stop offset="1" stop-color="#FF009B"/>
</linearGradient>
<linearGradient id="paint1_linear" x1="137.51" y1="31.2786" x2="175.272" y2="84.8891" gradientUnits="userSpaceOnUse">
<stop stop-color="#EF3F7C"/>
<stop offset="1" stop-color="#FF009B"/>
</linearGradient>
<linearGradient id="paint2_linear" x1="165.33" y1="145.839" x2="199.206" y2="168.775" gradientUnits="userSpaceOnUse">
<stop stop-color="#EF3F7C"/>
<stop offset="1" stop-color="#FF009B"/>
</linearGradient>
<linearGradient id="paint3_linear" x1="165.33" y1="145.839" x2="199.206" y2="168.775" gradientUnits="userSpaceOnUse">
<stop stop-color="#EF3F7C"/>
<stop offset="1" stop-color="#FF009B"/>
</linearGradient>
<linearGradient id="paint4_linear" x1="77.6827" y1="38.0978" x2="175.761" y2="132.314" gradientUnits="userSpaceOnUse">
<stop stop-color="#EF3F7C"/>
<stop offset="1" stop-color="#FF009B"/>
</linearGradient>
<linearGradient id="paint5_linear" x1="118.367" y1="89.7911" x2="125.438" y2="124.575" gradientUnits="userSpaceOnUse">
<stop stop-color="#EF3F7C"/>
<stop offset="1" stop-color="#FF009B"/>
</linearGradient>
</defs>
</svg>
