<svg width="24" height="24" viewBox="0 0 24 24" fill="none" xmlns="http://www.w3.org/2000/svg">
<path fill-rule="evenodd" clip-rule="evenodd" d="M0 12C0 18.6274 5.37258 24 12 24C18.6274 24 24 18.6274 24 12C24 5.37258 18.6274 0 12 0C5.37258 0 0 5.37258 0 12ZM18.1727 12.0664C18.1727 12.51 18.1245 12.9418 18.032 13.3588C18.2675 13.8262 18.4 14.3522 18.4 14.9093C18.4 16.8368 16.815 18.4 14.8598 18.4C14.254 18.4 13.685 18.2494 13.1861 17.9853C12.8233 18.0513 12.45 18.0862 12.0677 18.0862C8.69613 18.0862 5.96274 15.3916 5.96274 12.0664C5.96274 11.6524 6.00563 11.2473 6.08616 10.8571C5.7776 10.3378 5.59999 9.73533 5.59999 9.09136C5.59999 7.16243 7.18494 5.59998 9.14091 5.59998C9.83254 5.59998 10.4783 5.79659 11.0239 6.13564C11.3641 6.07777 11.7125 6.04735 12.0677 6.04735C15.4401 6.04735 18.1727 8.74267 18.1727 12.0664Z" fill="url(#paint0_linear)"/>
<path d="M15.1992 14.9434C14.917 15.3381 14.5001 15.6497 13.9582 15.8708C13.4231 16.0904 12.7819 16.2024 12.0512 16.2024C11.1744 16.2024 10.4391 16.0503 9.8649 15.7498C9.45474 15.5317 9.11683 15.2364 8.8602 14.8699C8.60055 14.502 8.4696 14.1362 8.4696 13.7823C8.4696 13.5627 8.5554 13.3713 8.72398 13.2148C8.89105 13.059 9.10554 12.9811 9.36142 12.9811C9.57064 12.9811 9.75201 13.0426 9.89877 13.1651C10.0395 13.283 10.1599 13.4574 10.257 13.6807C10.3654 13.9255 10.4828 14.1318 10.607 14.2927C10.7274 14.45 10.8997 14.5813 11.1195 14.6845C11.3407 14.7869 11.6395 14.8403 12.006 14.8403C12.511 14.8403 12.9249 14.7334 13.2357 14.5242C13.5405 14.3202 13.688 14.0739 13.688 13.7727C13.688 13.536 13.6105 13.3491 13.4525 13.2022C13.2854 13.0493 13.0664 12.9306 12.8007 12.8475C12.523 12.763 12.1467 12.6702 11.6809 12.5738C11.0465 12.4402 10.5084 12.2822 10.0809 12.1019C9.64289 11.9187 9.28992 11.6642 9.03179 11.3459C8.76989 11.0217 8.63668 10.6159 8.63668 10.1389C8.63668 9.68481 8.77591 9.27454 9.05135 8.92139C9.32379 8.57048 9.72266 8.29597 10.2367 8.10976C10.7432 7.92502 11.3452 7.83154 12.0278 7.83154C12.5727 7.83154 13.0521 7.89386 13.4525 8.01702C13.8551 8.14017 14.1938 8.30636 14.4602 8.51187C14.7289 8.7196 14.9291 8.93994 15.054 9.16993C15.1804 9.40214 15.2451 9.63288 15.2451 9.85619C15.2451 10.0713 15.1609 10.2672 14.9945 10.4371C14.8275 10.6092 14.616 10.696 14.3676 10.696C14.1419 10.696 13.9642 10.6411 13.8423 10.5343C13.7279 10.4341 13.609 10.2783 13.4773 10.0558C13.3253 9.77087 13.1409 9.54607 12.9294 9.38731C12.724 9.23299 12.3816 9.15583 11.9097 9.15583C11.4732 9.15583 11.1165 9.24189 10.8523 9.41327C10.5979 9.57723 10.4737 9.76642 10.4737 9.99047C10.4737 10.127 10.5136 10.242 10.5964 10.3399C10.6822 10.4453 10.8049 10.5358 10.9599 10.6129C11.1202 10.6923 11.2858 10.7561 11.4514 10.8006C11.6207 10.8474 11.9052 10.9164 12.2958 11.0054C12.7902 11.1093 13.244 11.2272 13.6451 11.3541C14.0523 11.4817 14.403 11.639 14.6905 11.8237C14.9825 12.0114 15.2135 12.2518 15.3784 12.5396C15.5432 12.8297 15.6267 13.1858 15.6267 13.6006C15.6267 14.0961 15.4822 14.548 15.1992 14.9434Z" fill="url(#paint1_linear)"/>
<defs>
<linearGradient id="paint0_linear" x1="8.9407e-08" y1="24" x2="24.9706" y2="22.9437" gradientUnits="userSpaceOnUse">
<stop stop-color="#F52C68"/>
<stop offset="1" stop-color="#FF4874"/>
</linearGradient>
<linearGradient id="paint1_linear" x1="8.4696" y1="16.2024" x2="15.9197" y2="15.9329" gradientUnits="userSpaceOnUse">
<stop stop-color="#F52C68"/>
<stop offset="1" stop-color="#FF4874"/>
</linearGradient>
</defs>
</svg>
